G04 #@! TF.GenerationSoftware,KiCad,Pcbnew,(5.1.5)-2*
G04 #@! TF.CreationDate,2020-06-12T14:56:32+08:00*
G04 #@! TF.ProjectId,Bonjour STM32,426f6e6a-6f75-4722-9053-544d33322e6b,rev?*
G04 #@! TF.SameCoordinates,Original*
G04 #@! TF.FileFunction,Legend,Bot*
G04 #@! TF.FilePolarity,Positive*
%FSLAX46Y46*%
G04 Gerber Fmt 4.6, Leading zero omitted, Abs format (unit mm)*
G04 Created by KiCad (PCBNEW (5.1.5)-2) date 2020-06-12 14:56:32*
%MOMM*%
%LPD*%
G04 APERTURE LIST*
%ADD10C,0.120000*%
%ADD11C,0.150000*%
%ADD12C,0.010000*%
G04 APERTURE END LIST*
D10*
X200787000Y-116459000D02*
X169164000Y-116459000D01*
X180975000Y-119380000D02*
X180975000Y-113538000D01*
X190881000Y-113411000D02*
X190881000Y-119380000D01*
D11*
X179680619Y-117435380D02*
X179109190Y-117435380D01*
X179394904Y-118435380D02*
X179394904Y-117435380D01*
X178775857Y-118435380D02*
X178775857Y-117435380D01*
X178299666Y-118435380D02*
X178299666Y-117435380D01*
X177966333Y-118149666D01*
X177633000Y-117435380D01*
X177633000Y-118435380D01*
X176633000Y-118435380D02*
X177204428Y-118435380D01*
X176918714Y-118435380D02*
X176918714Y-117435380D01*
X177013952Y-117578238D01*
X177109190Y-117673476D01*
X177204428Y-117721095D01*
X176442523Y-118530619D02*
X175680619Y-118530619D01*
X174871095Y-118340142D02*
X174918714Y-118387761D01*
X175061571Y-118435380D01*
X175156809Y-118435380D01*
X175299666Y-118387761D01*
X175394904Y-118292523D01*
X175442523Y-118197285D01*
X175490142Y-118006809D01*
X175490142Y-117863952D01*
X175442523Y-117673476D01*
X175394904Y-117578238D01*
X175299666Y-117483000D01*
X175156809Y-117435380D01*
X175061571Y-117435380D01*
X174918714Y-117483000D01*
X174871095Y-117530619D01*
X174442523Y-118435380D02*
X174442523Y-117435380D01*
X174442523Y-117911571D02*
X173871095Y-117911571D01*
X173871095Y-118435380D02*
X173871095Y-117435380D01*
X172871095Y-118435380D02*
X173442523Y-118435380D01*
X173156809Y-118435380D02*
X173156809Y-117435380D01*
X173252047Y-117578238D01*
X173347285Y-117673476D01*
X173442523Y-117721095D01*
X171633000Y-118435380D02*
X171680619Y-118435380D01*
X171775857Y-118387761D01*
X171918714Y-118244904D01*
X172156809Y-117959190D01*
X172252047Y-117816333D01*
X172299666Y-117673476D01*
X172299666Y-117578238D01*
X172252047Y-117483000D01*
X172156809Y-117435380D01*
X172109190Y-117435380D01*
X172013952Y-117483000D01*
X171966333Y-117578238D01*
X171966333Y-117625857D01*
X172013952Y-117721095D01*
X172061571Y-117768714D01*
X172347285Y-117959190D01*
X172394904Y-118006809D01*
X172442523Y-118102047D01*
X172442523Y-118244904D01*
X172394904Y-118340142D01*
X172347285Y-118387761D01*
X172252047Y-118435380D01*
X172109190Y-118435380D01*
X172013952Y-118387761D01*
X171966333Y-118340142D01*
X171823476Y-118149666D01*
X171775857Y-118006809D01*
X171775857Y-117911571D01*
X171252047Y-117530619D02*
X171204428Y-117483000D01*
X171109190Y-117435380D01*
X170871095Y-117435380D01*
X170775857Y-117483000D01*
X170728238Y-117530619D01*
X170680619Y-117625857D01*
X170680619Y-117721095D01*
X170728238Y-117863952D01*
X171299666Y-118435380D01*
X170680619Y-118435380D01*
X177871095Y-114990571D02*
X177537761Y-114990571D01*
X177394904Y-115514380D02*
X177871095Y-115514380D01*
X177871095Y-114514380D01*
X177394904Y-114514380D01*
X176966333Y-114847714D02*
X176966333Y-115514380D01*
X176966333Y-114942952D02*
X176918714Y-114895333D01*
X176823476Y-114847714D01*
X176680619Y-114847714D01*
X176585380Y-114895333D01*
X176537761Y-114990571D01*
X176537761Y-115514380D01*
X175633000Y-115466761D02*
X175728238Y-115514380D01*
X175918714Y-115514380D01*
X176013952Y-115466761D01*
X176061571Y-115419142D01*
X176109190Y-115323904D01*
X176109190Y-115038190D01*
X176061571Y-114942952D01*
X176013952Y-114895333D01*
X175918714Y-114847714D01*
X175728238Y-114847714D01*
X175633000Y-114895333D01*
X175061571Y-115514380D02*
X175156809Y-115466761D01*
X175204428Y-115419142D01*
X175252047Y-115323904D01*
X175252047Y-115038190D01*
X175204428Y-114942952D01*
X175156809Y-114895333D01*
X175061571Y-114847714D01*
X174918714Y-114847714D01*
X174823476Y-114895333D01*
X174775857Y-114942952D01*
X174728238Y-115038190D01*
X174728238Y-115323904D01*
X174775857Y-115419142D01*
X174823476Y-115466761D01*
X174918714Y-115514380D01*
X175061571Y-115514380D01*
X173871095Y-115514380D02*
X173871095Y-114514380D01*
X173871095Y-115466761D02*
X173966333Y-115514380D01*
X174156809Y-115514380D01*
X174252047Y-115466761D01*
X174299666Y-115419142D01*
X174347285Y-115323904D01*
X174347285Y-115038190D01*
X174299666Y-114942952D01*
X174252047Y-114895333D01*
X174156809Y-114847714D01*
X173966333Y-114847714D01*
X173871095Y-114895333D01*
X173013952Y-115466761D02*
X173109190Y-115514380D01*
X173299666Y-115514380D01*
X173394904Y-115466761D01*
X173442523Y-115371523D01*
X173442523Y-114990571D01*
X173394904Y-114895333D01*
X173299666Y-114847714D01*
X173109190Y-114847714D01*
X173013952Y-114895333D01*
X172966333Y-114990571D01*
X172966333Y-115085809D01*
X173442523Y-115181047D01*
X172537761Y-115514380D02*
X172537761Y-114847714D01*
X172537761Y-115038190D02*
X172490142Y-114942952D01*
X172442523Y-114895333D01*
X172347285Y-114847714D01*
X172252047Y-114847714D01*
X187808952Y-118387761D02*
X187666095Y-118435380D01*
X187428000Y-118435380D01*
X187332761Y-118387761D01*
X187285142Y-118340142D01*
X187237523Y-118244904D01*
X187237523Y-118149666D01*
X187285142Y-118054428D01*
X187332761Y-118006809D01*
X187428000Y-117959190D01*
X187618476Y-117911571D01*
X187713714Y-117863952D01*
X187761333Y-117816333D01*
X187808952Y-117721095D01*
X187808952Y-117625857D01*
X187761333Y-117530619D01*
X187713714Y-117483000D01*
X187618476Y-117435380D01*
X187380380Y-117435380D01*
X187237523Y-117483000D01*
X186808952Y-118435380D02*
X186808952Y-117435380D01*
X186428000Y-117435380D01*
X186332761Y-117483000D01*
X186285142Y-117530619D01*
X186237523Y-117625857D01*
X186237523Y-117768714D01*
X186285142Y-117863952D01*
X186332761Y-117911571D01*
X186428000Y-117959190D01*
X186808952Y-117959190D01*
X185808952Y-118435380D02*
X185808952Y-117435380D01*
X185570857Y-118530619D02*
X184808952Y-118530619D01*
X184618476Y-117530619D02*
X184570857Y-117483000D01*
X184475619Y-117435380D01*
X184237523Y-117435380D01*
X184142285Y-117483000D01*
X184094666Y-117530619D01*
X184047047Y-117625857D01*
X184047047Y-117721095D01*
X184094666Y-117863952D01*
X184666095Y-118435380D01*
X184047047Y-118435380D01*
X187618476Y-114990571D02*
X187951809Y-114990571D01*
X187951809Y-115514380D02*
X187951809Y-114514380D01*
X187475619Y-114514380D01*
X186618476Y-115514380D02*
X187094666Y-115514380D01*
X187094666Y-114514380D01*
X186332761Y-115228666D02*
X185856571Y-115228666D01*
X186428000Y-115514380D02*
X186094666Y-114514380D01*
X185761333Y-115514380D01*
X185475619Y-115466761D02*
X185332761Y-115514380D01*
X185094666Y-115514380D01*
X184999428Y-115466761D01*
X184951809Y-115419142D01*
X184904190Y-115323904D01*
X184904190Y-115228666D01*
X184951809Y-115133428D01*
X184999428Y-115085809D01*
X185094666Y-115038190D01*
X185285142Y-114990571D01*
X185380380Y-114942952D01*
X185428000Y-114895333D01*
X185475619Y-114800095D01*
X185475619Y-114704857D01*
X185428000Y-114609619D01*
X185380380Y-114562000D01*
X185285142Y-114514380D01*
X185047047Y-114514380D01*
X184904190Y-114562000D01*
X184475619Y-115514380D02*
X184475619Y-114514380D01*
X184475619Y-114990571D02*
X183904190Y-114990571D01*
X183904190Y-115514380D02*
X183904190Y-114514380D01*
X197667333Y-118435380D02*
X197667333Y-117435380D01*
X197238761Y-117530619D02*
X197191142Y-117483000D01*
X197095904Y-117435380D01*
X196857809Y-117435380D01*
X196762571Y-117483000D01*
X196714952Y-117530619D01*
X196667333Y-117625857D01*
X196667333Y-117721095D01*
X196714952Y-117863952D01*
X197286380Y-118435380D01*
X196667333Y-118435380D01*
X195667333Y-118340142D02*
X195714952Y-118387761D01*
X195857809Y-118435380D01*
X195953047Y-118435380D01*
X196095904Y-118387761D01*
X196191142Y-118292523D01*
X196238761Y-118197285D01*
X196286380Y-118006809D01*
X196286380Y-117863952D01*
X196238761Y-117673476D01*
X196191142Y-117578238D01*
X196095904Y-117483000D01*
X195953047Y-117435380D01*
X195857809Y-117435380D01*
X195714952Y-117483000D01*
X195667333Y-117530619D01*
X195476857Y-118530619D02*
X194714952Y-118530619D01*
X194524476Y-117530619D02*
X194476857Y-117483000D01*
X194381619Y-117435380D01*
X194143523Y-117435380D01*
X194048285Y-117483000D01*
X194000666Y-117530619D01*
X193953047Y-117625857D01*
X193953047Y-117721095D01*
X194000666Y-117863952D01*
X194572095Y-118435380D01*
X193953047Y-118435380D01*
X198595904Y-114990571D02*
X198262571Y-114990571D01*
X198119714Y-115514380D02*
X198595904Y-115514380D01*
X198595904Y-114514380D01*
X198119714Y-114514380D01*
X197691142Y-114990571D02*
X197357809Y-114990571D01*
X197214952Y-115514380D02*
X197691142Y-115514380D01*
X197691142Y-114514380D01*
X197214952Y-114514380D01*
X196786380Y-115514380D02*
X196786380Y-114514380D01*
X196405428Y-114514380D01*
X196310190Y-114562000D01*
X196262571Y-114609619D01*
X196214952Y-114704857D01*
X196214952Y-114847714D01*
X196262571Y-114942952D01*
X196310190Y-114990571D01*
X196405428Y-115038190D01*
X196786380Y-115038190D01*
X195214952Y-115514380D02*
X195548285Y-115038190D01*
X195786380Y-115514380D02*
X195786380Y-114514380D01*
X195405428Y-114514380D01*
X195310190Y-114562000D01*
X195262571Y-114609619D01*
X195214952Y-114704857D01*
X195214952Y-114847714D01*
X195262571Y-114942952D01*
X195310190Y-114990571D01*
X195405428Y-115038190D01*
X195786380Y-115038190D01*
X194595904Y-114514380D02*
X194405428Y-114514380D01*
X194310190Y-114562000D01*
X194214952Y-114657238D01*
X194167333Y-114847714D01*
X194167333Y-115181047D01*
X194214952Y-115371523D01*
X194310190Y-115466761D01*
X194405428Y-115514380D01*
X194595904Y-115514380D01*
X194691142Y-115466761D01*
X194786380Y-115371523D01*
X194834000Y-115181047D01*
X194834000Y-114847714D01*
X194786380Y-114657238D01*
X194691142Y-114562000D01*
X194595904Y-114514380D01*
X193738761Y-115514380D02*
X193738761Y-114514380D01*
X193405428Y-115228666D01*
X193072095Y-114514380D01*
X193072095Y-115514380D01*
D10*
X169164000Y-119380000D02*
X200787000Y-119380000D01*
X169164000Y-113538000D02*
X169164000Y-119380000D01*
X200787000Y-113411000D02*
X169164000Y-113538000D01*
X200787000Y-119380000D02*
X200787000Y-113411000D01*
D11*
X199666666Y-58452380D02*
X199666666Y-59261904D01*
X199619047Y-59357142D01*
X199571428Y-59404761D01*
X199476190Y-59452380D01*
X199285714Y-59452380D01*
X199190476Y-59404761D01*
X199142857Y-59357142D01*
X199095238Y-59261904D01*
X199095238Y-58452380D01*
X198666666Y-59404761D02*
X198523809Y-59452380D01*
X198285714Y-59452380D01*
X198190476Y-59404761D01*
X198142857Y-59357142D01*
X198095238Y-59261904D01*
X198095238Y-59166666D01*
X198142857Y-59071428D01*
X198190476Y-59023809D01*
X198285714Y-58976190D01*
X198476190Y-58928571D01*
X198571428Y-58880952D01*
X198619047Y-58833333D01*
X198666666Y-58738095D01*
X198666666Y-58642857D01*
X198619047Y-58547619D01*
X198571428Y-58500000D01*
X198476190Y-58452380D01*
X198238095Y-58452380D01*
X198095238Y-58500000D01*
X197714285Y-59166666D02*
X197238095Y-59166666D01*
X197809523Y-59452380D02*
X197476190Y-58452380D01*
X197142857Y-59452380D01*
X196238095Y-59452380D02*
X196571428Y-58976190D01*
X196809523Y-59452380D02*
X196809523Y-58452380D01*
X196428571Y-58452380D01*
X196333333Y-58500000D01*
X196285714Y-58547619D01*
X196238095Y-58642857D01*
X196238095Y-58785714D01*
X196285714Y-58880952D01*
X196333333Y-58928571D01*
X196428571Y-58976190D01*
X196809523Y-58976190D01*
X195952380Y-58452380D02*
X195380952Y-58452380D01*
X195666666Y-59452380D02*
X195666666Y-58452380D01*
X194523809Y-59452380D02*
X195095238Y-59452380D01*
X194809523Y-59452380D02*
X194809523Y-58452380D01*
X194904761Y-58595238D01*
X195000000Y-58690476D01*
X195095238Y-58738095D01*
X194095238Y-59071428D02*
X193333333Y-59071428D01*
X192857142Y-58452380D02*
X192857142Y-59261904D01*
X192809523Y-59357142D01*
X192761904Y-59404761D01*
X192666666Y-59452380D01*
X192476190Y-59452380D01*
X192380952Y-59404761D01*
X192333333Y-59357142D01*
X192285714Y-59261904D01*
X192285714Y-58452380D01*
X191857142Y-59404761D02*
X191714285Y-59452380D01*
X191476190Y-59452380D01*
X191380952Y-59404761D01*
X191333333Y-59357142D01*
X191285714Y-59261904D01*
X191285714Y-59166666D01*
X191333333Y-59071428D01*
X191380952Y-59023809D01*
X191476190Y-58976190D01*
X191666666Y-58928571D01*
X191761904Y-58880952D01*
X191809523Y-58833333D01*
X191857142Y-58738095D01*
X191857142Y-58642857D01*
X191809523Y-58547619D01*
X191761904Y-58500000D01*
X191666666Y-58452380D01*
X191428571Y-58452380D01*
X191285714Y-58500000D01*
X190523809Y-58928571D02*
X190380952Y-58976190D01*
X190333333Y-59023809D01*
X190285714Y-59119047D01*
X190285714Y-59261904D01*
X190333333Y-59357142D01*
X190380952Y-59404761D01*
X190476190Y-59452380D01*
X190857142Y-59452380D01*
X190857142Y-58452380D01*
X190523809Y-58452380D01*
X190428571Y-58500000D01*
X190380952Y-58547619D01*
X190333333Y-58642857D01*
X190333333Y-58738095D01*
X190380952Y-58833333D01*
X190428571Y-58880952D01*
X190523809Y-58928571D01*
X190857142Y-58928571D01*
X176869047Y-57654761D02*
X176726190Y-57702380D01*
X176488095Y-57702380D01*
X176392857Y-57654761D01*
X176345238Y-57607142D01*
X176297619Y-57511904D01*
X176297619Y-57416666D01*
X176345238Y-57321428D01*
X176392857Y-57273809D01*
X176488095Y-57226190D01*
X176678571Y-57178571D01*
X176773809Y-57130952D01*
X176821428Y-57083333D01*
X176869047Y-56988095D01*
X176869047Y-56892857D01*
X176821428Y-56797619D01*
X176773809Y-56750000D01*
X176678571Y-56702380D01*
X176440476Y-56702380D01*
X176297619Y-56750000D01*
X175964285Y-56702380D02*
X175726190Y-57702380D01*
X175535714Y-56988095D01*
X175345238Y-57702380D01*
X175107142Y-56702380D01*
X174726190Y-57702380D02*
X174726190Y-56702380D01*
X174488095Y-56702380D01*
X174345238Y-56750000D01*
X174250000Y-56845238D01*
X174202380Y-56940476D01*
X174154761Y-57130952D01*
X174154761Y-57273809D01*
X174202380Y-57464285D01*
X174250000Y-57559523D01*
X174345238Y-57654761D01*
X174488095Y-57702380D01*
X174726190Y-57702380D01*
X173726190Y-57702380D02*
X173726190Y-56702380D01*
X173059523Y-56702380D02*
X172869047Y-56702380D01*
X172773809Y-56750000D01*
X172678571Y-56845238D01*
X172630952Y-57035714D01*
X172630952Y-57369047D01*
X172678571Y-57559523D01*
X172773809Y-57654761D01*
X172869047Y-57702380D01*
X173059523Y-57702380D01*
X173154761Y-57654761D01*
X173250000Y-57559523D01*
X173297619Y-57369047D01*
X173297619Y-57035714D01*
X173250000Y-56845238D01*
X173154761Y-56750000D01*
X173059523Y-56702380D01*
X204271619Y-78025142D02*
X205271619Y-78025142D01*
X205271619Y-77644190D01*
X205224000Y-77548952D01*
X205176380Y-77501333D01*
X205081142Y-77453714D01*
X204938285Y-77453714D01*
X204843047Y-77501333D01*
X204795428Y-77548952D01*
X204747809Y-77644190D01*
X204747809Y-78025142D01*
X204271619Y-76882285D02*
X204319238Y-76977523D01*
X204366857Y-77025142D01*
X204462095Y-77072761D01*
X204747809Y-77072761D01*
X204843047Y-77025142D01*
X204890666Y-76977523D01*
X204938285Y-76882285D01*
X204938285Y-76739428D01*
X204890666Y-76644190D01*
X204843047Y-76596571D01*
X204747809Y-76548952D01*
X204462095Y-76548952D01*
X204366857Y-76596571D01*
X204319238Y-76644190D01*
X204271619Y-76739428D01*
X204271619Y-76882285D01*
X204938285Y-76215619D02*
X204271619Y-76025142D01*
X204747809Y-75834666D01*
X204271619Y-75644190D01*
X204938285Y-75453714D01*
X204319238Y-74691809D02*
X204271619Y-74787047D01*
X204271619Y-74977523D01*
X204319238Y-75072761D01*
X204414476Y-75120380D01*
X204795428Y-75120380D01*
X204890666Y-75072761D01*
X204938285Y-74977523D01*
X204938285Y-74787047D01*
X204890666Y-74691809D01*
X204795428Y-74644190D01*
X204700190Y-74644190D01*
X204604952Y-75120380D01*
X204271619Y-74215619D02*
X204938285Y-74215619D01*
X204747809Y-74215619D02*
X204843047Y-74168000D01*
X204890666Y-74120380D01*
X204938285Y-74025142D01*
X204938285Y-73929904D01*
X204795428Y-72501333D02*
X204747809Y-72358476D01*
X204700190Y-72310857D01*
X204604952Y-72263238D01*
X204462095Y-72263238D01*
X204366857Y-72310857D01*
X204319238Y-72358476D01*
X204271619Y-72453714D01*
X204271619Y-72834666D01*
X205271619Y-72834666D01*
X205271619Y-72501333D01*
X205224000Y-72406095D01*
X205176380Y-72358476D01*
X205081142Y-72310857D01*
X204985904Y-72310857D01*
X204890666Y-72358476D01*
X204843047Y-72406095D01*
X204795428Y-72501333D01*
X204795428Y-72834666D01*
X205271619Y-71834666D02*
X204462095Y-71834666D01*
X204366857Y-71787047D01*
X204319238Y-71739428D01*
X204271619Y-71644190D01*
X204271619Y-71453714D01*
X204319238Y-71358476D01*
X204366857Y-71310857D01*
X204462095Y-71263238D01*
X205271619Y-71263238D01*
X204319238Y-70834666D02*
X204271619Y-70691809D01*
X204271619Y-70453714D01*
X204319238Y-70358476D01*
X204366857Y-70310857D01*
X204462095Y-70263238D01*
X204557333Y-70263238D01*
X204652571Y-70310857D01*
X204700190Y-70358476D01*
X204747809Y-70453714D01*
X204795428Y-70644190D01*
X204843047Y-70739428D01*
X204890666Y-70787047D01*
X204985904Y-70834666D01*
X205081142Y-70834666D01*
X205176380Y-70787047D01*
X205224000Y-70739428D01*
X205271619Y-70644190D01*
X205271619Y-70406095D01*
X205224000Y-70263238D01*
X205065333Y-96352571D02*
X205065333Y-95876380D01*
X204779619Y-96447809D02*
X205779619Y-96114476D01*
X204779619Y-95781142D01*
X204779619Y-95447809D02*
X205779619Y-95447809D01*
X205779619Y-95209714D01*
X205732000Y-95066857D01*
X205636761Y-94971619D01*
X205541523Y-94924000D01*
X205351047Y-94876380D01*
X205208190Y-94876380D01*
X205017714Y-94924000D01*
X204922476Y-94971619D01*
X204827238Y-95066857D01*
X204779619Y-95209714D01*
X204779619Y-95447809D01*
X204874857Y-93876380D02*
X204827238Y-93924000D01*
X204779619Y-94066857D01*
X204779619Y-94162095D01*
X204827238Y-94304952D01*
X204922476Y-94400190D01*
X205017714Y-94447809D01*
X205208190Y-94495428D01*
X205351047Y-94495428D01*
X205541523Y-94447809D01*
X205636761Y-94400190D01*
X205732000Y-94304952D01*
X205779619Y-94162095D01*
X205779619Y-94066857D01*
X205732000Y-93924000D01*
X205684380Y-93876380D01*
X204779619Y-92924000D02*
X204779619Y-93495428D01*
X204779619Y-93209714D02*
X205779619Y-93209714D01*
X205636761Y-93304952D01*
X205541523Y-93400190D01*
X205493904Y-93495428D01*
X204684380Y-92733523D02*
X204684380Y-91971619D01*
X205446285Y-91304952D02*
X204779619Y-91304952D01*
X205827238Y-91543047D02*
X205112952Y-91781142D01*
X205112952Y-91162095D01*
X204874857Y-90209714D02*
X204827238Y-90257333D01*
X204779619Y-90400190D01*
X204779619Y-90495428D01*
X204827238Y-90638285D01*
X204922476Y-90733523D01*
X205017714Y-90781142D01*
X205208190Y-90828761D01*
X205351047Y-90828761D01*
X205541523Y-90781142D01*
X205636761Y-90733523D01*
X205732000Y-90638285D01*
X205779619Y-90495428D01*
X205779619Y-90400190D01*
X205732000Y-90257333D01*
X205684380Y-90209714D01*
X204779619Y-89781142D02*
X205779619Y-89781142D01*
X205303428Y-89781142D02*
X205303428Y-89209714D01*
X204779619Y-89209714D02*
X205779619Y-89209714D01*
X205065333Y-88781142D02*
X205065333Y-88304952D01*
X204779619Y-88876380D02*
X205779619Y-88543047D01*
X204779619Y-88209714D01*
X204779619Y-87876380D02*
X205779619Y-87876380D01*
X204779619Y-87304952D01*
X205779619Y-87304952D01*
X204779619Y-86828761D02*
X205779619Y-86828761D01*
X204779619Y-86257333D01*
X205779619Y-86257333D01*
X205303428Y-85781142D02*
X205303428Y-85447809D01*
X204779619Y-85304952D02*
X204779619Y-85781142D01*
X205779619Y-85781142D01*
X205779619Y-85304952D01*
X204779619Y-84400190D02*
X204779619Y-84876380D01*
X205779619Y-84876380D01*
X189773809Y-62952380D02*
X189773809Y-61952380D01*
X189345238Y-62047619D02*
X189297619Y-62000000D01*
X189202380Y-61952380D01*
X188964285Y-61952380D01*
X188869047Y-62000000D01*
X188821428Y-62047619D01*
X188773809Y-62142857D01*
X188773809Y-62238095D01*
X188821428Y-62380952D01*
X189392857Y-62952380D01*
X188773809Y-62952380D01*
X187773809Y-62857142D02*
X187821428Y-62904761D01*
X187964285Y-62952380D01*
X188059523Y-62952380D01*
X188202380Y-62904761D01*
X188297619Y-62809523D01*
X188345238Y-62714285D01*
X188392857Y-62523809D01*
X188392857Y-62380952D01*
X188345238Y-62190476D01*
X188297619Y-62095238D01*
X188202380Y-62000000D01*
X188059523Y-61952380D01*
X187964285Y-61952380D01*
X187821428Y-62000000D01*
X187773809Y-62047619D01*
X186821428Y-62952380D02*
X187392857Y-62952380D01*
X187107142Y-62952380D02*
X187107142Y-61952380D01*
X187202380Y-62095238D01*
X187297619Y-62190476D01*
X187392857Y-62238095D01*
X185773809Y-62476190D02*
X185821428Y-62428571D01*
X185916666Y-62380952D01*
X186011904Y-62380952D01*
X186107142Y-62428571D01*
X186154761Y-62476190D01*
X186202380Y-62571428D01*
X186202380Y-62666666D01*
X186154761Y-62761904D01*
X186107142Y-62809523D01*
X186011904Y-62857142D01*
X185916666Y-62857142D01*
X185821428Y-62809523D01*
X185773809Y-62761904D01*
X185773809Y-62380952D02*
X185773809Y-62761904D01*
X185726190Y-62809523D01*
X185678571Y-62809523D01*
X185583333Y-62761904D01*
X185535714Y-62666666D01*
X185535714Y-62428571D01*
X185630952Y-62285714D01*
X185773809Y-62190476D01*
X185964285Y-62142857D01*
X186154761Y-62190476D01*
X186297619Y-62285714D01*
X186392857Y-62428571D01*
X186440476Y-62619047D01*
X186392857Y-62809523D01*
X186297619Y-62952380D01*
X186154761Y-63047619D01*
X185964285Y-63095238D01*
X185773809Y-63047619D01*
X185630952Y-62952380D01*
X184678571Y-62285714D02*
X184678571Y-62952380D01*
X184916666Y-61904761D02*
X185154761Y-62619047D01*
X184535714Y-62619047D01*
X183964285Y-61952380D02*
X183869047Y-61952380D01*
X183773809Y-62000000D01*
X183726190Y-62047619D01*
X183678571Y-62142857D01*
X183630952Y-62333333D01*
X183630952Y-62571428D01*
X183678571Y-62761904D01*
X183726190Y-62857142D01*
X183773809Y-62904761D01*
X183869047Y-62952380D01*
X183964285Y-62952380D01*
X184059523Y-62904761D01*
X184107142Y-62857142D01*
X184154761Y-62761904D01*
X184202380Y-62571428D01*
X184202380Y-62333333D01*
X184154761Y-62142857D01*
X184107142Y-62047619D01*
X184059523Y-62000000D01*
X183964285Y-61952380D01*
X183011904Y-61952380D02*
X182916666Y-61952380D01*
X182821428Y-62000000D01*
X182773809Y-62047619D01*
X182726190Y-62142857D01*
X182678571Y-62333333D01*
X182678571Y-62571428D01*
X182726190Y-62761904D01*
X182773809Y-62857142D01*
X182821428Y-62904761D01*
X182916666Y-62952380D01*
X183011904Y-62952380D01*
X183107142Y-62904761D01*
X183154761Y-62857142D01*
X183202380Y-62761904D01*
X183250000Y-62571428D01*
X183250000Y-62333333D01*
X183202380Y-62142857D01*
X183154761Y-62047619D01*
X183107142Y-62000000D01*
X183011904Y-61952380D01*
X182250000Y-62952380D02*
X182250000Y-61952380D01*
X181678571Y-62952380D02*
X182107142Y-62380952D01*
X181678571Y-61952380D02*
X182250000Y-62523809D01*
X181250000Y-62952380D02*
X181250000Y-61952380D01*
X181250000Y-62428571D02*
X180678571Y-62428571D01*
X180678571Y-62952380D02*
X180678571Y-61952380D01*
X180297619Y-61952380D02*
X179630952Y-61952380D01*
X180297619Y-62952380D01*
X179630952Y-62952380D01*
X165678571Y-103678571D02*
X165678571Y-103345238D01*
X166202380Y-103345238D02*
X165202380Y-103345238D01*
X165202380Y-103821428D01*
X166202380Y-104202380D02*
X165535714Y-104202380D01*
X165726190Y-104202380D02*
X165630952Y-104250000D01*
X165583333Y-104297619D01*
X165535714Y-104392857D01*
X165535714Y-104488095D01*
X166154761Y-105202380D02*
X166202380Y-105107142D01*
X166202380Y-104916666D01*
X166154761Y-104821428D01*
X166059523Y-104773809D01*
X165678571Y-104773809D01*
X165583333Y-104821428D01*
X165535714Y-104916666D01*
X165535714Y-105107142D01*
X165583333Y-105202380D01*
X165678571Y-105250000D01*
X165773809Y-105250000D01*
X165869047Y-104773809D01*
X166154761Y-106059523D02*
X166202380Y-105964285D01*
X166202380Y-105773809D01*
X166154761Y-105678571D01*
X166059523Y-105630952D01*
X165678571Y-105630952D01*
X165583333Y-105678571D01*
X165535714Y-105773809D01*
X165535714Y-105964285D01*
X165583333Y-106059523D01*
X165678571Y-106107142D01*
X165773809Y-106107142D01*
X165869047Y-105630952D01*
X165250000Y-107821428D02*
X165202380Y-107726190D01*
X165202380Y-107583333D01*
X165250000Y-107440476D01*
X165345238Y-107345238D01*
X165440476Y-107297619D01*
X165630952Y-107250000D01*
X165773809Y-107250000D01*
X165964285Y-107297619D01*
X166059523Y-107345238D01*
X166154761Y-107440476D01*
X166202380Y-107583333D01*
X166202380Y-107678571D01*
X166154761Y-107821428D01*
X166107142Y-107869047D01*
X165773809Y-107869047D01*
X165773809Y-107678571D01*
X166202380Y-108297619D02*
X165202380Y-108297619D01*
X165202380Y-108678571D01*
X165250000Y-108773809D01*
X165297619Y-108821428D01*
X165392857Y-108869047D01*
X165535714Y-108869047D01*
X165630952Y-108821428D01*
X165678571Y-108773809D01*
X165726190Y-108678571D01*
X165726190Y-108297619D01*
X166202380Y-109297619D02*
X165202380Y-109297619D01*
X165202380Y-109964285D02*
X165202380Y-110154761D01*
X165250000Y-110250000D01*
X165345238Y-110345238D01*
X165535714Y-110392857D01*
X165869047Y-110392857D01*
X166059523Y-110345238D01*
X166154761Y-110250000D01*
X166202380Y-110154761D01*
X166202380Y-109964285D01*
X166154761Y-109869047D01*
X166059523Y-109773809D01*
X165869047Y-109726190D01*
X165535714Y-109726190D01*
X165345238Y-109773809D01*
X165250000Y-109869047D01*
X165202380Y-109964285D01*
X166154761Y-110773809D02*
X166202380Y-110869047D01*
X166202380Y-111059523D01*
X166154761Y-111154761D01*
X166059523Y-111202380D01*
X166011904Y-111202380D01*
X165916666Y-111154761D01*
X165869047Y-111059523D01*
X165869047Y-110916666D01*
X165821428Y-110821428D01*
X165726190Y-110773809D01*
X165678571Y-110773809D01*
X165583333Y-110821428D01*
X165535714Y-110916666D01*
X165535714Y-111059523D01*
X165583333Y-111154761D01*
X164952380Y-81404761D02*
X164952380Y-81976190D01*
X165952380Y-81690476D02*
X164952380Y-81690476D01*
X165952380Y-82309523D02*
X164952380Y-82309523D01*
X165952380Y-82785714D02*
X164952380Y-82785714D01*
X165666666Y-83119047D01*
X164952380Y-83452380D01*
X165952380Y-83452380D01*
X164952380Y-83833333D02*
X164952380Y-84452380D01*
X165333333Y-84119047D01*
X165333333Y-84261904D01*
X165380952Y-84357142D01*
X165428571Y-84404761D01*
X165523809Y-84452380D01*
X165761904Y-84452380D01*
X165857142Y-84404761D01*
X165904761Y-84357142D01*
X165952380Y-84261904D01*
X165952380Y-83976190D01*
X165904761Y-83880952D01*
X165857142Y-83833333D01*
X166047619Y-84642857D02*
X166047619Y-85404761D01*
X165952380Y-85642857D02*
X164952380Y-85642857D01*
X164952380Y-86023809D01*
X165000000Y-86119047D01*
X165047619Y-86166666D01*
X165142857Y-86214285D01*
X165285714Y-86214285D01*
X165380952Y-86166666D01*
X165428571Y-86119047D01*
X165476190Y-86023809D01*
X165476190Y-85642857D01*
X164952380Y-86547619D02*
X165952380Y-86785714D01*
X165238095Y-86976190D01*
X165952380Y-87166666D01*
X164952380Y-87404761D01*
X165952380Y-87785714D02*
X164952380Y-87785714D01*
X165666666Y-88119047D01*
X164952380Y-88452380D01*
X165952380Y-88452380D01*
X205017619Y-107957619D02*
X204208095Y-107957619D01*
X204112857Y-107910000D01*
X204065238Y-107862380D01*
X204017619Y-107767142D01*
X204017619Y-107576666D01*
X204065238Y-107481428D01*
X204112857Y-107433809D01*
X204208095Y-107386190D01*
X205017619Y-107386190D01*
X204065238Y-106957619D02*
X204017619Y-106814761D01*
X204017619Y-106576666D01*
X204065238Y-106481428D01*
X204112857Y-106433809D01*
X204208095Y-106386190D01*
X204303333Y-106386190D01*
X204398571Y-106433809D01*
X204446190Y-106481428D01*
X204493809Y-106576666D01*
X204541428Y-106767142D01*
X204589047Y-106862380D01*
X204636666Y-106910000D01*
X204731904Y-106957619D01*
X204827142Y-106957619D01*
X204922380Y-106910000D01*
X204970000Y-106862380D01*
X205017619Y-106767142D01*
X205017619Y-106529047D01*
X204970000Y-106386190D01*
X204303333Y-106005238D02*
X204303333Y-105529047D01*
X204017619Y-106100476D02*
X205017619Y-105767142D01*
X204017619Y-105433809D01*
X204017619Y-104529047D02*
X204493809Y-104862380D01*
X204017619Y-105100476D02*
X205017619Y-105100476D01*
X205017619Y-104719523D01*
X204970000Y-104624285D01*
X204922380Y-104576666D01*
X204827142Y-104529047D01*
X204684285Y-104529047D01*
X204589047Y-104576666D01*
X204541428Y-104624285D01*
X204493809Y-104719523D01*
X204493809Y-105100476D01*
X205017619Y-104243333D02*
X205017619Y-103671904D01*
X204017619Y-103957619D02*
X205017619Y-103957619D01*
X205017619Y-102910000D02*
X205017619Y-103100476D01*
X204970000Y-103195714D01*
X204922380Y-103243333D01*
X204779523Y-103338571D01*
X204589047Y-103386190D01*
X204208095Y-103386190D01*
X204112857Y-103338571D01*
X204065238Y-103290952D01*
X204017619Y-103195714D01*
X204017619Y-103005238D01*
X204065238Y-102910000D01*
X204112857Y-102862380D01*
X204208095Y-102814761D01*
X204446190Y-102814761D01*
X204541428Y-102862380D01*
X204589047Y-102910000D01*
X204636666Y-103005238D01*
X204636666Y-103195714D01*
X204589047Y-103290952D01*
X204541428Y-103338571D01*
X204446190Y-103386190D01*
X166154761Y-59833333D02*
X166202380Y-59976190D01*
X166202380Y-60214285D01*
X166154761Y-60309523D01*
X166107142Y-60357142D01*
X166011904Y-60404761D01*
X165916666Y-60404761D01*
X165821428Y-60357142D01*
X165773809Y-60309523D01*
X165726190Y-60214285D01*
X165678571Y-60023809D01*
X165630952Y-59928571D01*
X165583333Y-59880952D01*
X165488095Y-59833333D01*
X165392857Y-59833333D01*
X165297619Y-59880952D01*
X165250000Y-59928571D01*
X165202380Y-60023809D01*
X165202380Y-60261904D01*
X165250000Y-60404761D01*
X166202380Y-60833333D02*
X165202380Y-60833333D01*
X165202380Y-61214285D01*
X165250000Y-61309523D01*
X165297619Y-61357142D01*
X165392857Y-61404761D01*
X165535714Y-61404761D01*
X165630952Y-61357142D01*
X165678571Y-61309523D01*
X165726190Y-61214285D01*
X165726190Y-60833333D01*
X166202380Y-61833333D02*
X165202380Y-61833333D01*
X166202380Y-62833333D02*
X166202380Y-62261904D01*
X166202380Y-62547619D02*
X165202380Y-62547619D01*
X165345238Y-62452380D01*
X165440476Y-62357142D01*
X165488095Y-62261904D01*
X165726190Y-63880952D02*
X165678571Y-63833333D01*
X165630952Y-63738095D01*
X165630952Y-63642857D01*
X165678571Y-63547619D01*
X165726190Y-63500000D01*
X165821428Y-63452380D01*
X165916666Y-63452380D01*
X166011904Y-63500000D01*
X166059523Y-63547619D01*
X166107142Y-63642857D01*
X166107142Y-63738095D01*
X166059523Y-63833333D01*
X166011904Y-63880952D01*
X165630952Y-63880952D02*
X166011904Y-63880952D01*
X166059523Y-63928571D01*
X166059523Y-63976190D01*
X166011904Y-64071428D01*
X165916666Y-64119047D01*
X165678571Y-64119047D01*
X165535714Y-64023809D01*
X165440476Y-63880952D01*
X165392857Y-63690476D01*
X165440476Y-63500000D01*
X165535714Y-63357142D01*
X165678571Y-63261904D01*
X165869047Y-63214285D01*
X166059523Y-63261904D01*
X166202380Y-63357142D01*
X166297619Y-63500000D01*
X166345238Y-63690476D01*
X166297619Y-63880952D01*
X166202380Y-64023809D01*
X165535714Y-64976190D02*
X166202380Y-64976190D01*
X165154761Y-64738095D02*
X165869047Y-64500000D01*
X165869047Y-65119047D01*
X165297619Y-65452380D02*
X165250000Y-65500000D01*
X165202380Y-65595238D01*
X165202380Y-65833333D01*
X165250000Y-65928571D01*
X165297619Y-65976190D01*
X165392857Y-66023809D01*
X165488095Y-66023809D01*
X165630952Y-65976190D01*
X166202380Y-65404761D01*
X166202380Y-66023809D01*
X166202380Y-66452380D02*
X165202380Y-66452380D01*
X165916666Y-66785714D01*
X165202380Y-67119047D01*
X166202380Y-67119047D01*
X166202380Y-67595238D02*
X165202380Y-67595238D01*
X165678571Y-67595238D02*
X165678571Y-68166666D01*
X166202380Y-68166666D02*
X165202380Y-68166666D01*
X165202380Y-68547619D02*
X165202380Y-69214285D01*
X166202380Y-68547619D01*
X166202380Y-69214285D01*
X195242180Y-102971600D02*
X195790820Y-103372920D01*
X194792600Y-102572820D02*
X195242180Y-102971600D01*
X194541140Y-102021640D02*
X194792600Y-102572820D01*
X194442080Y-101622860D02*
X194541140Y-102021640D01*
X194442080Y-101173280D02*
X194442080Y-101622860D01*
X194642740Y-100622100D02*
X194442080Y-101173280D01*
X195092320Y-100322380D02*
X194642740Y-100622100D01*
X195541900Y-100073460D02*
X195092320Y-100322380D01*
X195991480Y-100121720D02*
X195541900Y-100073460D01*
X196491860Y-100373180D02*
X195991480Y-100121720D01*
X196941440Y-100472240D02*
X196491860Y-100373180D01*
X197540880Y-100223320D02*
X196941440Y-100472240D01*
X196390260Y-104673400D02*
X196890640Y-105671620D01*
X196542660Y-104523540D02*
X196390260Y-104673400D01*
X196941440Y-104523540D02*
X196542660Y-104523540D01*
X196390260Y-104122220D02*
X196842380Y-103723440D01*
X195790820Y-104023160D02*
X196390260Y-104122220D01*
X196090540Y-103372920D02*
X195790820Y-104023160D01*
X196791580Y-102273100D02*
X196090540Y-103372920D01*
X196992240Y-102021640D02*
X196791580Y-102273100D01*
X197591680Y-101721920D02*
X196992240Y-102021640D01*
X198041260Y-101622860D02*
X197591680Y-101721920D01*
X198490840Y-101772720D02*
X198041260Y-101622860D01*
X198892160Y-101673660D02*
X198490840Y-101772720D01*
X199341740Y-101473000D02*
X198892160Y-101673660D01*
X199890380Y-101521260D02*
X199341740Y-101473000D01*
X200492360Y-101973380D02*
X199890380Y-101521260D01*
X201190860Y-102623620D02*
X200492360Y-101973380D01*
X201942700Y-103822500D02*
X201190860Y-102623620D01*
X202590400Y-103573580D02*
X201942700Y-103822500D01*
X203141580Y-103073200D02*
X202590400Y-103573580D01*
X203441300Y-102171500D02*
X203141580Y-103073200D01*
X203342240Y-101473000D02*
X203441300Y-102171500D01*
X202892660Y-100672900D02*
X203342240Y-101473000D01*
X202290680Y-100271580D02*
X202892660Y-100672900D01*
X201942700Y-100121720D02*
X202290680Y-100271580D01*
X201541380Y-100073460D02*
X201942700Y-100121720D01*
X200591420Y-100223320D02*
X201541380Y-100073460D01*
X199941180Y-100271580D02*
X200591420Y-100223320D01*
X199542400Y-100121720D02*
X199941180Y-100271580D01*
X199740520Y-100472240D02*
X199542400Y-100121720D01*
X200291700Y-100723700D02*
X199740520Y-100472240D01*
X200642220Y-100672900D02*
X200291700Y-100723700D01*
X201292460Y-100822760D02*
X200642220Y-100672900D01*
X201742040Y-100972620D02*
X201292460Y-100822760D01*
X202041760Y-101221540D02*
X201742040Y-100972620D01*
X202140820Y-101871780D02*
X202041760Y-101221540D01*
X201942700Y-102372160D02*
X202140820Y-101871780D01*
X201490580Y-102522020D02*
X201942700Y-102372160D01*
X201142600Y-102123240D02*
X201490580Y-102522020D01*
X200690480Y-101673660D02*
X201142600Y-102123240D01*
X200091040Y-101272340D02*
X200690480Y-101673660D01*
X199590660Y-101221540D02*
X200091040Y-101272340D01*
X199090280Y-101323140D02*
X199590660Y-101221540D01*
X198790560Y-101473000D02*
X199090280Y-101323140D01*
X198592440Y-101521260D02*
X198790560Y-101473000D01*
X198092060Y-101272340D02*
X198592440Y-101521260D01*
X197690740Y-101272340D02*
X198092060Y-101272340D01*
X197391020Y-101422200D02*
X197690740Y-101272340D01*
X197142100Y-101622860D02*
X197391020Y-101422200D01*
X196692520Y-101922580D02*
X197142100Y-101622860D01*
X196342000Y-102072440D02*
X196692520Y-101922580D01*
X196042280Y-102021640D02*
X196342000Y-102072440D01*
X195742560Y-101772720D02*
X196042280Y-102021640D01*
X195790820Y-101473000D02*
X195742560Y-101772720D01*
X195991480Y-101071680D02*
X195790820Y-101473000D01*
X196342000Y-101023420D02*
X195991480Y-101071680D01*
X196791580Y-101023420D02*
X196342000Y-101023420D01*
X197142100Y-100921820D02*
X196791580Y-101023420D01*
X197591680Y-100322380D02*
X197142100Y-100921820D01*
X200141840Y-103073200D02*
X199542400Y-102522020D01*
X200291700Y-104023160D02*
X200141840Y-103073200D01*
X200792080Y-104373680D02*
X200291700Y-104023160D01*
X202191620Y-104922320D02*
X200792080Y-104373680D01*
X201691240Y-104173020D02*
X202191620Y-104922320D01*
X201691240Y-103573580D02*
X201691240Y-104173020D01*
X198292720Y-102123240D02*
X198041260Y-101772720D01*
X198691500Y-102273100D02*
X198292720Y-102123240D01*
X199090280Y-103621840D02*
X198691500Y-103423720D01*
X199491600Y-103621840D02*
X199090280Y-103621840D01*
X199692260Y-103372920D02*
X199491600Y-103621840D01*
X199440800Y-103121460D02*
X199692260Y-103372920D01*
X198991220Y-103223060D02*
X199440800Y-103121460D01*
X198640700Y-103372920D02*
X198991220Y-103223060D01*
X196941440Y-103423720D02*
X197391020Y-103322120D01*
X196842380Y-103172260D02*
X196941440Y-103423720D01*
X196941440Y-102971600D02*
X196842380Y-103172260D01*
X197342760Y-102872540D02*
X196941440Y-102971600D01*
X197492620Y-103223060D02*
X197342760Y-102872540D01*
X197942200Y-105222040D02*
X197792340Y-104973120D01*
X198041260Y-105323640D02*
X197942200Y-105222040D01*
X198340980Y-105323640D02*
X198041260Y-105323640D01*
X198592440Y-105171240D02*
X198340980Y-105323640D01*
X198640700Y-104772460D02*
X198592440Y-105171240D01*
X198241920Y-104622600D02*
X198640700Y-104772460D01*
X197792340Y-104973120D02*
X198241920Y-104622600D01*
X196941440Y-105072180D02*
X197040500Y-105222040D01*
X197840600Y-104122220D02*
X197741540Y-104272080D01*
X197990460Y-103723440D02*
X197840600Y-104122220D01*
X198041260Y-103271320D02*
X197990460Y-103723440D01*
X198790560Y-104221280D02*
X198991220Y-104272080D01*
X198592440Y-104122220D02*
X198790560Y-104221280D01*
X198442580Y-104122220D02*
X198592440Y-104122220D01*
X198140320Y-104122220D02*
X198442580Y-104122220D01*
X197840600Y-104272080D02*
X198140320Y-104122220D01*
X197091300Y-104523540D02*
X196890640Y-104523540D01*
X197291960Y-104622600D02*
X197091300Y-104523540D01*
X197441820Y-104622600D02*
X197291960Y-104622600D01*
X197591680Y-104472740D02*
X197441820Y-104622600D01*
X197690740Y-104322880D02*
X197591680Y-104472740D01*
X196941440Y-103822500D02*
X196992240Y-104472740D01*
X197291960Y-106123740D02*
X196941440Y-106321860D01*
X197441820Y-105773220D02*
X197291960Y-106123740D01*
X197040500Y-105671620D02*
X197441820Y-105773220D01*
X196890640Y-105671620D02*
X197040500Y-105671620D01*
X199542400Y-104922320D02*
X199842120Y-104871520D01*
X199392540Y-105171240D02*
X199542400Y-104922320D01*
X199242680Y-105671620D02*
X199392540Y-105171240D01*
X199042020Y-106022140D02*
X199242680Y-105671620D01*
X198892160Y-106222800D02*
X199042020Y-106022140D01*
X198442580Y-106372660D02*
X198892160Y-106222800D01*
X197942200Y-106423460D02*
X198442580Y-106372660D01*
X197492620Y-106471720D02*
X197942200Y-106423460D01*
X196890640Y-106372660D02*
X197492620Y-106471720D01*
X197690740Y-106723180D02*
X197441820Y-106723180D01*
X198092060Y-106471720D02*
X197690740Y-106723180D01*
X197241160Y-108422440D02*
X197391020Y-108722160D01*
X197142100Y-108122720D02*
X197241160Y-108422440D01*
X197241160Y-107772200D02*
X197142100Y-108122720D01*
X197492620Y-107571540D02*
X197241160Y-107772200D01*
X197690740Y-107373420D02*
X197492620Y-107571540D01*
X197741540Y-107172760D02*
X197690740Y-107373420D01*
X197690740Y-107022900D02*
X197741540Y-107172760D01*
X197142100Y-106921300D02*
X197690740Y-107022900D01*
X196941440Y-106873040D02*
X197142100Y-106921300D01*
X197190360Y-106873040D02*
X196941440Y-106873040D01*
X197441820Y-106771440D02*
X197190360Y-106873040D01*
X197391020Y-108722160D02*
X197342760Y-108722160D01*
X197942200Y-108922820D02*
X197792340Y-109171740D01*
X197792340Y-108521500D02*
X197942200Y-108922820D01*
X197741540Y-108071920D02*
X197792340Y-108521500D01*
X198140320Y-107871260D02*
X197741540Y-108071920D01*
X198442580Y-107571540D02*
X198140320Y-107871260D01*
X198241920Y-107121960D02*
X198442580Y-107571540D01*
X198541640Y-109573060D02*
X198340980Y-109773720D01*
X198592440Y-109021880D02*
X198541640Y-109573060D01*
X198541640Y-108823760D02*
X198592440Y-109021880D01*
X198490840Y-108521500D02*
X198541640Y-108823760D01*
X198640700Y-108323380D02*
X198490840Y-108521500D01*
X198892160Y-108122720D02*
X198640700Y-108323380D01*
X198991220Y-107922060D02*
X198892160Y-108122720D01*
X198841360Y-107523280D02*
X198991220Y-107922060D01*
X199392540Y-109621320D02*
X199341740Y-109773720D01*
X199341740Y-109321600D02*
X199392540Y-109621320D01*
X199692260Y-108973620D02*
X199341740Y-109321600D01*
X199290940Y-108872020D02*
X199692260Y-108973620D01*
X199392540Y-108572300D02*
X199290940Y-108872020D01*
X199590660Y-108173520D02*
X199392540Y-108572300D01*
X199290940Y-109821980D02*
X199341740Y-109923580D01*
X200091040Y-107622340D02*
X199542400Y-108071920D01*
X199890380Y-106921300D02*
X200091040Y-107622340D01*
X200441560Y-106522520D02*
X199890380Y-106921300D01*
X200240900Y-105872280D02*
X200441560Y-106522520D01*
X200690480Y-105572560D02*
X200240900Y-105872280D01*
X200591420Y-105122980D02*
X200690480Y-105572560D01*
X200891140Y-104673400D02*
X200591420Y-105122980D01*
X200441560Y-107823000D02*
X200240900Y-107772200D01*
X201442320Y-105171240D02*
X201442320Y-104673400D01*
X201442320Y-105671620D02*
X201442320Y-105171240D01*
X201391520Y-106072940D02*
X201442320Y-105671620D01*
X201340720Y-106471720D02*
X201391520Y-106072940D01*
X201241660Y-106873040D02*
X201340720Y-106471720D01*
X201190860Y-107172760D02*
X201241660Y-106873040D01*
X200941940Y-107421680D02*
X201190860Y-107172760D01*
X200792080Y-107622340D02*
X200941940Y-107421680D01*
X200540620Y-107823000D02*
X200792080Y-107622340D01*
X199491600Y-101622860D02*
X199141080Y-101622860D01*
X200240900Y-101973380D02*
X199491600Y-101622860D01*
X200741280Y-102273100D02*
X200240900Y-101973380D01*
X197840600Y-101521260D02*
X197591680Y-101572060D01*
X195892420Y-100172520D02*
X197040500Y-100873560D01*
X196390260Y-100873560D02*
X195892420Y-100172520D01*
X194642740Y-100672900D02*
X196390260Y-100873560D01*
X195790820Y-101122480D02*
X194642740Y-100672900D01*
X194541140Y-101823520D02*
X195790820Y-101122480D01*
X195541900Y-101572060D02*
X194541140Y-101823520D01*
X195092320Y-102671880D02*
X195541900Y-101572060D01*
X195841620Y-101973380D02*
X195092320Y-102671880D01*
X195592700Y-103073200D02*
X195841620Y-101973380D01*
X196890640Y-102222300D02*
X195592700Y-103073200D01*
X197291960Y-102021640D02*
X196890640Y-102222300D01*
X197942200Y-101823520D02*
X197291960Y-102021640D01*
X201490580Y-100121720D02*
X200390760Y-100622100D01*
X201442320Y-100771960D02*
X201490580Y-100121720D01*
X202491340Y-100523040D02*
X201442320Y-100771960D01*
X201990960Y-101023420D02*
X202491340Y-100523040D01*
X203240640Y-101422200D02*
X201990960Y-101023420D01*
X202092560Y-101673660D02*
X203240640Y-101422200D01*
X203390500Y-102021640D02*
X202092560Y-101673660D01*
X203291440Y-102473760D02*
X203390500Y-102021640D01*
X202242420Y-101823520D02*
X203291440Y-102473760D01*
X202940920Y-103121460D02*
X202242420Y-101823520D01*
X201990960Y-102321360D02*
X202940920Y-103121460D01*
X202440540Y-103471980D02*
X201990960Y-102321360D01*
X201442320Y-102671880D02*
X202440540Y-103471980D01*
X204190600Y-110121700D02*
X204442060Y-110022640D01*
X204241400Y-110672880D02*
X204190600Y-110121700D01*
X204642720Y-110672880D02*
X204241400Y-110672880D01*
X204942440Y-110523020D02*
X204642720Y-110672880D01*
X205092300Y-110121700D02*
X204942440Y-110523020D01*
X205092300Y-109672120D02*
X205092300Y-110121700D01*
X204891640Y-109273340D02*
X205092300Y-109672120D01*
X204442060Y-109123480D02*
X204891640Y-109273340D01*
X204241400Y-109222540D02*
X204442060Y-109123480D01*
X202641200Y-110672880D02*
X202641200Y-109171740D01*
X203492100Y-109171740D02*
X202641200Y-110672880D01*
X203492100Y-110723680D02*
X203492100Y-109171740D01*
X201041000Y-110271560D02*
X201041000Y-109171740D01*
X201142600Y-110571280D02*
X201041000Y-110271560D01*
X201442320Y-110723680D02*
X201142600Y-110571280D01*
X201790300Y-110571280D02*
X201442320Y-110723680D01*
X201942700Y-110322360D02*
X201790300Y-110571280D01*
X201942700Y-109171740D02*
X201942700Y-110322360D01*
X195691760Y-110022640D02*
X195991480Y-110022640D01*
X195691760Y-110523020D02*
X195691760Y-110022640D01*
X196141340Y-110622080D02*
X195691760Y-110523020D01*
X196491860Y-110472220D02*
X196141340Y-110622080D01*
X196641720Y-110022640D02*
X196491860Y-110472220D01*
X196590920Y-109522260D02*
X196641720Y-110022640D01*
X196291200Y-109171740D02*
X196590920Y-109522260D01*
X195991480Y-109123480D02*
X196291200Y-109171740D01*
X195742560Y-109222540D02*
X195991480Y-109123480D01*
X194442080Y-109872780D02*
X194942460Y-109821980D01*
X194142360Y-109722920D02*
X194442080Y-109872780D01*
X194241420Y-109321600D02*
X194142360Y-109722920D01*
X194490340Y-109123480D02*
X194241420Y-109321600D01*
X195041520Y-109171740D02*
X194490340Y-109123480D01*
X195041520Y-110622080D02*
X195041520Y-109171740D01*
X193492120Y-110672880D02*
X192791080Y-110672880D01*
X193492120Y-109072680D02*
X193492120Y-110672880D01*
D12*
G36*
X171818122Y-102904276D02*
G01*
X171712388Y-102904855D01*
X171635868Y-102906422D01*
X171583628Y-102909472D01*
X171550737Y-102914496D01*
X171532263Y-102921989D01*
X171523273Y-102932444D01*
X171518837Y-102946353D01*
X171518406Y-102948154D01*
X171511667Y-102980645D01*
X171499192Y-103044752D01*
X171482281Y-103133651D01*
X171462229Y-103240519D01*
X171440336Y-103358533D01*
X171439571Y-103362678D01*
X171417641Y-103478331D01*
X171397123Y-103580514D01*
X171379341Y-103663098D01*
X171365619Y-103719956D01*
X171357282Y-103744958D01*
X171356884Y-103745401D01*
X171332323Y-103757610D01*
X171281685Y-103777956D01*
X171215905Y-103802045D01*
X171215539Y-103802174D01*
X171132683Y-103833318D01*
X171035000Y-103872991D01*
X170942923Y-103912881D01*
X170938566Y-103914853D01*
X170788593Y-103982920D01*
X170456502Y-103756139D01*
X170354626Y-103687004D01*
X170262343Y-103625197D01*
X170184997Y-103574233D01*
X170127936Y-103537627D01*
X170096505Y-103518894D01*
X170093521Y-103517504D01*
X170070679Y-103523690D01*
X170028018Y-103553535D01*
X169963872Y-103608447D01*
X169876579Y-103689834D01*
X169787465Y-103776422D01*
X169701559Y-103861747D01*
X169624673Y-103939608D01*
X169561436Y-104005197D01*
X169516477Y-104053705D01*
X169494424Y-104080325D01*
X169493604Y-104081695D01*
X169491166Y-104099963D01*
X169500350Y-104129795D01*
X169523426Y-104175221D01*
X169562663Y-104240270D01*
X169620330Y-104328970D01*
X169697205Y-104443157D01*
X169765430Y-104543662D01*
X169826418Y-104633803D01*
X169876644Y-104708349D01*
X169912584Y-104762065D01*
X169930713Y-104789718D01*
X169931854Y-104791595D01*
X169929641Y-104818090D01*
X169912862Y-104869586D01*
X169884858Y-104936351D01*
X169874878Y-104957672D01*
X169831328Y-105052659D01*
X169784866Y-105160437D01*
X169747123Y-105253692D01*
X169719927Y-105322906D01*
X169698325Y-105375506D01*
X169685842Y-105402997D01*
X169684291Y-105405116D01*
X169661332Y-105408624D01*
X169607214Y-105418238D01*
X169529132Y-105432589D01*
X169434281Y-105450307D01*
X169329857Y-105470025D01*
X169223056Y-105490374D01*
X169121074Y-105509986D01*
X169031106Y-105527491D01*
X168960347Y-105541522D01*
X168915994Y-105550709D01*
X168905115Y-105553307D01*
X168893878Y-105559718D01*
X168885395Y-105574197D01*
X168879286Y-105601633D01*
X168875168Y-105646911D01*
X168872659Y-105714920D01*
X168871379Y-105810547D01*
X168870946Y-105938680D01*
X168870923Y-105991201D01*
X168870923Y-106418345D01*
X168973500Y-106438591D01*
X169030569Y-106449570D01*
X169115731Y-106465595D01*
X169218628Y-106484733D01*
X169328904Y-106505051D01*
X169359385Y-106510632D01*
X169461145Y-106530417D01*
X169549795Y-106549873D01*
X169617892Y-106567197D01*
X169657996Y-106580588D01*
X169664677Y-106584579D01*
X169681081Y-106612842D01*
X169704601Y-106667609D01*
X169730684Y-106738088D01*
X169735858Y-106753269D01*
X169770044Y-106847396D01*
X169812477Y-106953601D01*
X169854003Y-107048973D01*
X169854208Y-107049416D01*
X169923360Y-107199025D01*
X169468488Y-107868117D01*
X169760500Y-108160616D01*
X169848820Y-108247670D01*
X169929375Y-108324409D01*
X169997640Y-108386737D01*
X170049092Y-108430556D01*
X170079206Y-108451770D01*
X170083526Y-108453116D01*
X170108889Y-108442516D01*
X170160642Y-108413047D01*
X170233132Y-108368205D01*
X170320706Y-108311484D01*
X170415388Y-108247962D01*
X170511484Y-108183168D01*
X170597163Y-108126787D01*
X170666984Y-108082288D01*
X170715506Y-108053139D01*
X170737218Y-108042808D01*
X170763707Y-108051550D01*
X170813938Y-108074587D01*
X170877549Y-108107131D01*
X170884292Y-108110749D01*
X170969954Y-108153710D01*
X171028694Y-108174779D01*
X171065228Y-108175003D01*
X171084269Y-108155428D01*
X171084380Y-108155154D01*
X171093898Y-108131972D01*
X171116597Y-108076941D01*
X171150718Y-107994322D01*
X171194500Y-107888372D01*
X171246184Y-107763352D01*
X171304008Y-107623520D01*
X171360009Y-107488137D01*
X171421553Y-107338734D01*
X171478061Y-107200332D01*
X171527839Y-107077173D01*
X171569194Y-106973502D01*
X171600432Y-106893559D01*
X171619859Y-106841588D01*
X171625846Y-106822192D01*
X171610832Y-106799943D01*
X171571561Y-106764482D01*
X171519193Y-106725387D01*
X171370059Y-106601745D01*
X171253489Y-106460022D01*
X171170882Y-106303204D01*
X171123634Y-106134275D01*
X171113143Y-105956222D01*
X171120769Y-105874039D01*
X171162318Y-105703531D01*
X171233877Y-105552959D01*
X171331005Y-105423809D01*
X171449266Y-105317564D01*
X171584220Y-105235710D01*
X171731429Y-105179732D01*
X171886456Y-105151115D01*
X172044861Y-105151344D01*
X172202206Y-105181905D01*
X172354054Y-105244282D01*
X172495965Y-105339960D01*
X172555197Y-105394072D01*
X172668797Y-105533020D01*
X172747894Y-105684861D01*
X172793014Y-105845167D01*
X172804684Y-106009512D01*
X172783431Y-106173471D01*
X172729780Y-106332618D01*
X172644260Y-106482525D01*
X172527395Y-106618767D01*
X172396807Y-106725387D01*
X172342412Y-106766142D01*
X172303986Y-106801218D01*
X172290154Y-106822226D01*
X172297397Y-106845135D01*
X172317995Y-106899865D01*
X172350254Y-106982172D01*
X172392479Y-107087815D01*
X172442977Y-107212550D01*
X172500052Y-107352136D01*
X172556146Y-107488170D01*
X172618033Y-107637701D01*
X172675356Y-107776267D01*
X172726356Y-107899607D01*
X172769273Y-108003464D01*
X172802347Y-108083580D01*
X172823819Y-108135695D01*
X172831775Y-108155154D01*
X172850571Y-108174923D01*
X172886926Y-108174865D01*
X172945521Y-108153941D01*
X173031032Y-108111113D01*
X173031708Y-108110749D01*
X173096093Y-108077512D01*
X173148139Y-108053302D01*
X173177488Y-108042904D01*
X173178783Y-108042808D01*
X173200876Y-108053355D01*
X173249652Y-108082684D01*
X173319669Y-108127327D01*
X173405486Y-108183814D01*
X173500612Y-108247962D01*
X173597460Y-108312911D01*
X173684747Y-108369396D01*
X173756819Y-108413921D01*
X173808023Y-108442990D01*
X173832474Y-108453116D01*
X173854990Y-108439807D01*
X173900258Y-108402612D01*
X173963756Y-108345628D01*
X174040961Y-108272949D01*
X174127349Y-108188671D01*
X174155601Y-108160516D01*
X174447713Y-107867916D01*
X174225369Y-107541604D01*
X174157798Y-107441397D01*
X174098493Y-107351463D01*
X174050783Y-107277010D01*
X174017993Y-107223251D01*
X174003452Y-107195394D01*
X174003026Y-107193412D01*
X174010692Y-107167155D01*
X174031311Y-107114337D01*
X174061315Y-107043810D01*
X174082375Y-106996593D01*
X174121752Y-106906194D01*
X174158835Y-106814866D01*
X174187585Y-106737700D01*
X174195395Y-106714192D01*
X174217583Y-106651416D01*
X174239273Y-106602911D01*
X174251187Y-106584579D01*
X174277477Y-106573359D01*
X174334858Y-106557454D01*
X174415882Y-106538667D01*
X174513105Y-106518799D01*
X174556615Y-106510632D01*
X174667104Y-106490329D01*
X174773084Y-106470670D01*
X174864199Y-106453588D01*
X174930092Y-106441018D01*
X174942500Y-106438591D01*
X175045077Y-106418345D01*
X175045077Y-105991201D01*
X175044847Y-105850746D01*
X175043901Y-105744479D01*
X175041859Y-105667513D01*
X175038338Y-105614960D01*
X175032957Y-105581933D01*
X175025334Y-105563545D01*
X175015088Y-105554908D01*
X175010885Y-105553307D01*
X174985530Y-105547627D01*
X174929516Y-105536295D01*
X174850036Y-105520679D01*
X174754288Y-105502147D01*
X174649467Y-105482069D01*
X174542768Y-105461812D01*
X174441387Y-105442746D01*
X174352521Y-105426239D01*
X174283363Y-105413659D01*
X174241111Y-105406375D01*
X174231710Y-105405116D01*
X174223193Y-105388263D01*
X174204340Y-105343370D01*
X174178676Y-105278930D01*
X174168877Y-105253692D01*
X174129352Y-105156186D01*
X174082808Y-105048459D01*
X174041123Y-104957672D01*
X174010450Y-104888253D01*
X173990044Y-104831210D01*
X173983232Y-104796277D01*
X173984318Y-104791595D01*
X173998715Y-104769491D01*
X174031588Y-104720331D01*
X174079410Y-104649348D01*
X174138652Y-104561778D01*
X174205785Y-104462857D01*
X174219059Y-104443330D01*
X174296954Y-104327640D01*
X174354213Y-104239544D01*
X174393119Y-104174986D01*
X174415956Y-104129911D01*
X174425006Y-104100263D01*
X174422552Y-104081985D01*
X174422489Y-104081869D01*
X174403173Y-104057861D01*
X174360449Y-104011447D01*
X174298949Y-103947437D01*
X174223302Y-103870645D01*
X174138139Y-103785882D01*
X174128535Y-103776422D01*
X174021210Y-103672489D01*
X173938385Y-103596175D01*
X173878395Y-103546071D01*
X173839577Y-103520770D01*
X173822480Y-103517504D01*
X173797527Y-103531750D01*
X173745745Y-103564656D01*
X173672480Y-103612708D01*
X173583080Y-103672390D01*
X173482889Y-103740188D01*
X173459499Y-103756139D01*
X173127407Y-103982920D01*
X172977435Y-103914853D01*
X172886230Y-103875185D01*
X172788331Y-103835291D01*
X172704169Y-103803483D01*
X172700462Y-103802174D01*
X172634631Y-103778076D01*
X172583884Y-103757700D01*
X172559158Y-103745436D01*
X172559116Y-103745401D01*
X172551271Y-103723234D01*
X172537934Y-103668717D01*
X172520430Y-103587980D01*
X172500083Y-103487150D01*
X172478218Y-103372356D01*
X172476429Y-103362678D01*
X172454496Y-103244404D01*
X172434360Y-103137042D01*
X172417320Y-103047417D01*
X172404672Y-102982351D01*
X172397716Y-102948668D01*
X172397594Y-102948154D01*
X172393361Y-102933825D01*
X172385129Y-102923007D01*
X172367967Y-102915206D01*
X172336942Y-102909929D01*
X172287122Y-102906682D01*
X172213576Y-102904972D01*
X172111371Y-102904307D01*
X171975575Y-102904193D01*
X171958000Y-102904192D01*
X171818122Y-102904276D01*
G37*
X171818122Y-102904276D02*
X171712388Y-102904855D01*
X171635868Y-102906422D01*
X171583628Y-102909472D01*
X171550737Y-102914496D01*
X171532263Y-102921989D01*
X171523273Y-102932444D01*
X171518837Y-102946353D01*
X171518406Y-102948154D01*
X171511667Y-102980645D01*
X171499192Y-103044752D01*
X171482281Y-103133651D01*
X171462229Y-103240519D01*
X171440336Y-103358533D01*
X171439571Y-103362678D01*
X171417641Y-103478331D01*
X171397123Y-103580514D01*
X171379341Y-103663098D01*
X171365619Y-103719956D01*
X171357282Y-103744958D01*
X171356884Y-103745401D01*
X171332323Y-103757610D01*
X171281685Y-103777956D01*
X171215905Y-103802045D01*
X171215539Y-103802174D01*
X171132683Y-103833318D01*
X171035000Y-103872991D01*
X170942923Y-103912881D01*
X170938566Y-103914853D01*
X170788593Y-103982920D01*
X170456502Y-103756139D01*
X170354626Y-103687004D01*
X170262343Y-103625197D01*
X170184997Y-103574233D01*
X170127936Y-103537627D01*
X170096505Y-103518894D01*
X170093521Y-103517504D01*
X170070679Y-103523690D01*
X170028018Y-103553535D01*
X169963872Y-103608447D01*
X169876579Y-103689834D01*
X169787465Y-103776422D01*
X169701559Y-103861747D01*
X169624673Y-103939608D01*
X169561436Y-104005197D01*
X169516477Y-104053705D01*
X169494424Y-104080325D01*
X169493604Y-104081695D01*
X169491166Y-104099963D01*
X169500350Y-104129795D01*
X169523426Y-104175221D01*
X169562663Y-104240270D01*
X169620330Y-104328970D01*
X169697205Y-104443157D01*
X169765430Y-104543662D01*
X169826418Y-104633803D01*
X169876644Y-104708349D01*
X169912584Y-104762065D01*
X169930713Y-104789718D01*
X169931854Y-104791595D01*
X169929641Y-104818090D01*
X169912862Y-104869586D01*
X169884858Y-104936351D01*
X169874878Y-104957672D01*
X169831328Y-105052659D01*
X169784866Y-105160437D01*
X169747123Y-105253692D01*
X169719927Y-105322906D01*
X169698325Y-105375506D01*
X169685842Y-105402997D01*
X169684291Y-105405116D01*
X169661332Y-105408624D01*
X169607214Y-105418238D01*
X169529132Y-105432589D01*
X169434281Y-105450307D01*
X169329857Y-105470025D01*
X169223056Y-105490374D01*
X169121074Y-105509986D01*
X169031106Y-105527491D01*
X168960347Y-105541522D01*
X168915994Y-105550709D01*
X168905115Y-105553307D01*
X168893878Y-105559718D01*
X168885395Y-105574197D01*
X168879286Y-105601633D01*
X168875168Y-105646911D01*
X168872659Y-105714920D01*
X168871379Y-105810547D01*
X168870946Y-105938680D01*
X168870923Y-105991201D01*
X168870923Y-106418345D01*
X168973500Y-106438591D01*
X169030569Y-106449570D01*
X169115731Y-106465595D01*
X169218628Y-106484733D01*
X169328904Y-106505051D01*
X169359385Y-106510632D01*
X169461145Y-106530417D01*
X169549795Y-106549873D01*
X169617892Y-106567197D01*
X169657996Y-106580588D01*
X169664677Y-106584579D01*
X169681081Y-106612842D01*
X169704601Y-106667609D01*
X169730684Y-106738088D01*
X169735858Y-106753269D01*
X169770044Y-106847396D01*
X169812477Y-106953601D01*
X169854003Y-107048973D01*
X169854208Y-107049416D01*
X169923360Y-107199025D01*
X169468488Y-107868117D01*
X169760500Y-108160616D01*
X169848820Y-108247670D01*
X169929375Y-108324409D01*
X169997640Y-108386737D01*
X170049092Y-108430556D01*
X170079206Y-108451770D01*
X170083526Y-108453116D01*
X170108889Y-108442516D01*
X170160642Y-108413047D01*
X170233132Y-108368205D01*
X170320706Y-108311484D01*
X170415388Y-108247962D01*
X170511484Y-108183168D01*
X170597163Y-108126787D01*
X170666984Y-108082288D01*
X170715506Y-108053139D01*
X170737218Y-108042808D01*
X170763707Y-108051550D01*
X170813938Y-108074587D01*
X170877549Y-108107131D01*
X170884292Y-108110749D01*
X170969954Y-108153710D01*
X171028694Y-108174779D01*
X171065228Y-108175003D01*
X171084269Y-108155428D01*
X171084380Y-108155154D01*
X171093898Y-108131972D01*
X171116597Y-108076941D01*
X171150718Y-107994322D01*
X171194500Y-107888372D01*
X171246184Y-107763352D01*
X171304008Y-107623520D01*
X171360009Y-107488137D01*
X171421553Y-107338734D01*
X171478061Y-107200332D01*
X171527839Y-107077173D01*
X171569194Y-106973502D01*
X171600432Y-106893559D01*
X171619859Y-106841588D01*
X171625846Y-106822192D01*
X171610832Y-106799943D01*
X171571561Y-106764482D01*
X171519193Y-106725387D01*
X171370059Y-106601745D01*
X171253489Y-106460022D01*
X171170882Y-106303204D01*
X171123634Y-106134275D01*
X171113143Y-105956222D01*
X171120769Y-105874039D01*
X171162318Y-105703531D01*
X171233877Y-105552959D01*
X171331005Y-105423809D01*
X171449266Y-105317564D01*
X171584220Y-105235710D01*
X171731429Y-105179732D01*
X171886456Y-105151115D01*
X172044861Y-105151344D01*
X172202206Y-105181905D01*
X172354054Y-105244282D01*
X172495965Y-105339960D01*
X172555197Y-105394072D01*
X172668797Y-105533020D01*
X172747894Y-105684861D01*
X172793014Y-105845167D01*
X172804684Y-106009512D01*
X172783431Y-106173471D01*
X172729780Y-106332618D01*
X172644260Y-106482525D01*
X172527395Y-106618767D01*
X172396807Y-106725387D01*
X172342412Y-106766142D01*
X172303986Y-106801218D01*
X172290154Y-106822226D01*
X172297397Y-106845135D01*
X172317995Y-106899865D01*
X172350254Y-106982172D01*
X172392479Y-107087815D01*
X172442977Y-107212550D01*
X172500052Y-107352136D01*
X172556146Y-107488170D01*
X172618033Y-107637701D01*
X172675356Y-107776267D01*
X172726356Y-107899607D01*
X172769273Y-108003464D01*
X172802347Y-108083580D01*
X172823819Y-108135695D01*
X172831775Y-108155154D01*
X172850571Y-108174923D01*
X172886926Y-108174865D01*
X172945521Y-108153941D01*
X173031032Y-108111113D01*
X173031708Y-108110749D01*
X173096093Y-108077512D01*
X173148139Y-108053302D01*
X173177488Y-108042904D01*
X173178783Y-108042808D01*
X173200876Y-108053355D01*
X173249652Y-108082684D01*
X173319669Y-108127327D01*
X173405486Y-108183814D01*
X173500612Y-108247962D01*
X173597460Y-108312911D01*
X173684747Y-108369396D01*
X173756819Y-108413921D01*
X173808023Y-108442990D01*
X173832474Y-108453116D01*
X173854990Y-108439807D01*
X173900258Y-108402612D01*
X173963756Y-108345628D01*
X174040961Y-108272949D01*
X174127349Y-108188671D01*
X174155601Y-108160516D01*
X174447713Y-107867916D01*
X174225369Y-107541604D01*
X174157798Y-107441397D01*
X174098493Y-107351463D01*
X174050783Y-107277010D01*
X174017993Y-107223251D01*
X174003452Y-107195394D01*
X174003026Y-107193412D01*
X174010692Y-107167155D01*
X174031311Y-107114337D01*
X174061315Y-107043810D01*
X174082375Y-106996593D01*
X174121752Y-106906194D01*
X174158835Y-106814866D01*
X174187585Y-106737700D01*
X174195395Y-106714192D01*
X174217583Y-106651416D01*
X174239273Y-106602911D01*
X174251187Y-106584579D01*
X174277477Y-106573359D01*
X174334858Y-106557454D01*
X174415882Y-106538667D01*
X174513105Y-106518799D01*
X174556615Y-106510632D01*
X174667104Y-106490329D01*
X174773084Y-106470670D01*
X174864199Y-106453588D01*
X174930092Y-106441018D01*
X174942500Y-106438591D01*
X175045077Y-106418345D01*
X175045077Y-105991201D01*
X175044847Y-105850746D01*
X175043901Y-105744479D01*
X175041859Y-105667513D01*
X175038338Y-105614960D01*
X175032957Y-105581933D01*
X175025334Y-105563545D01*
X175015088Y-105554908D01*
X175010885Y-105553307D01*
X174985530Y-105547627D01*
X174929516Y-105536295D01*
X174850036Y-105520679D01*
X174754288Y-105502147D01*
X174649467Y-105482069D01*
X174542768Y-105461812D01*
X174441387Y-105442746D01*
X174352521Y-105426239D01*
X174283363Y-105413659D01*
X174241111Y-105406375D01*
X174231710Y-105405116D01*
X174223193Y-105388263D01*
X174204340Y-105343370D01*
X174178676Y-105278930D01*
X174168877Y-105253692D01*
X174129352Y-105156186D01*
X174082808Y-105048459D01*
X174041123Y-104957672D01*
X174010450Y-104888253D01*
X173990044Y-104831210D01*
X173983232Y-104796277D01*
X173984318Y-104791595D01*
X173998715Y-104769491D01*
X174031588Y-104720331D01*
X174079410Y-104649348D01*
X174138652Y-104561778D01*
X174205785Y-104462857D01*
X174219059Y-104443330D01*
X174296954Y-104327640D01*
X174354213Y-104239544D01*
X174393119Y-104174986D01*
X174415956Y-104129911D01*
X174425006Y-104100263D01*
X174422552Y-104081985D01*
X174422489Y-104081869D01*
X174403173Y-104057861D01*
X174360449Y-104011447D01*
X174298949Y-103947437D01*
X174223302Y-103870645D01*
X174138139Y-103785882D01*
X174128535Y-103776422D01*
X174021210Y-103672489D01*
X173938385Y-103596175D01*
X173878395Y-103546071D01*
X173839577Y-103520770D01*
X173822480Y-103517504D01*
X173797527Y-103531750D01*
X173745745Y-103564656D01*
X173672480Y-103612708D01*
X173583080Y-103672390D01*
X173482889Y-103740188D01*
X173459499Y-103756139D01*
X173127407Y-103982920D01*
X172977435Y-103914853D01*
X172886230Y-103875185D01*
X172788331Y-103835291D01*
X172704169Y-103803483D01*
X172700462Y-103802174D01*
X172634631Y-103778076D01*
X172583884Y-103757700D01*
X172559158Y-103745436D01*
X172559116Y-103745401D01*
X172551271Y-103723234D01*
X172537934Y-103668717D01*
X172520430Y-103587980D01*
X172500083Y-103487150D01*
X172478218Y-103372356D01*
X172476429Y-103362678D01*
X172454496Y-103244404D01*
X172434360Y-103137042D01*
X172417320Y-103047417D01*
X172404672Y-102982351D01*
X172397716Y-102948668D01*
X172397594Y-102948154D01*
X172393361Y-102933825D01*
X172385129Y-102923007D01*
X172367967Y-102915206D01*
X172336942Y-102909929D01*
X172287122Y-102906682D01*
X172213576Y-102904972D01*
X172111371Y-102904307D01*
X171975575Y-102904193D01*
X171958000Y-102904192D01*
X171818122Y-102904276D01*
G36*
X167712776Y-109264338D02*
G01*
X167635472Y-109314861D01*
X167598186Y-109360090D01*
X167568647Y-109442163D01*
X167566301Y-109507107D01*
X167571615Y-109593945D01*
X167771885Y-109681603D01*
X167869261Y-109726387D01*
X167932887Y-109762413D01*
X167965971Y-109793617D01*
X167971720Y-109823936D01*
X167953342Y-109857305D01*
X167933077Y-109879423D01*
X167874111Y-109914893D01*
X167809976Y-109917379D01*
X167751074Y-109889735D01*
X167707803Y-109834820D01*
X167700064Y-109815428D01*
X167662994Y-109754864D01*
X167620346Y-109729052D01*
X167561846Y-109706971D01*
X167561846Y-109790684D01*
X167567018Y-109847650D01*
X167587277Y-109895689D01*
X167629738Y-109950846D01*
X167636049Y-109958014D01*
X167683280Y-110007085D01*
X167723879Y-110033420D01*
X167774672Y-110045535D01*
X167816780Y-110049503D01*
X167892098Y-110050491D01*
X167945714Y-110037966D01*
X167979162Y-110019369D01*
X168031732Y-109978475D01*
X168068121Y-109934248D01*
X168091150Y-109878626D01*
X168103641Y-109803547D01*
X168108413Y-109700949D01*
X168108794Y-109648876D01*
X168107499Y-109586448D01*
X167989529Y-109586448D01*
X167988161Y-109619938D01*
X167984751Y-109625423D01*
X167962247Y-109617972D01*
X167913818Y-109598253D01*
X167849092Y-109570218D01*
X167835557Y-109564192D01*
X167753756Y-109522596D01*
X167708688Y-109486038D01*
X167698783Y-109451796D01*
X167722474Y-109417148D01*
X167742040Y-109401839D01*
X167812640Y-109371221D01*
X167878720Y-109376280D01*
X167934041Y-109413651D01*
X167972364Y-109479973D01*
X167984651Y-109532616D01*
X167989529Y-109586448D01*
X168107499Y-109586448D01*
X168106270Y-109527220D01*
X168096968Y-109437210D01*
X168078540Y-109371667D01*
X168048640Y-109323412D01*
X168004920Y-109285267D01*
X167985859Y-109272940D01*
X167899274Y-109240836D01*
X167804478Y-109238816D01*
X167712776Y-109264338D01*
G37*
X167712776Y-109264338D02*
X167635472Y-109314861D01*
X167598186Y-109360090D01*
X167568647Y-109442163D01*
X167566301Y-109507107D01*
X167571615Y-109593945D01*
X167771885Y-109681603D01*
X167869261Y-109726387D01*
X167932887Y-109762413D01*
X167965971Y-109793617D01*
X167971720Y-109823936D01*
X167953342Y-109857305D01*
X167933077Y-109879423D01*
X167874111Y-109914893D01*
X167809976Y-109917379D01*
X167751074Y-109889735D01*
X167707803Y-109834820D01*
X167700064Y-109815428D01*
X167662994Y-109754864D01*
X167620346Y-109729052D01*
X167561846Y-109706971D01*
X167561846Y-109790684D01*
X167567018Y-109847650D01*
X167587277Y-109895689D01*
X167629738Y-109950846D01*
X167636049Y-109958014D01*
X167683280Y-110007085D01*
X167723879Y-110033420D01*
X167774672Y-110045535D01*
X167816780Y-110049503D01*
X167892098Y-110050491D01*
X167945714Y-110037966D01*
X167979162Y-110019369D01*
X168031732Y-109978475D01*
X168068121Y-109934248D01*
X168091150Y-109878626D01*
X168103641Y-109803547D01*
X168108413Y-109700949D01*
X168108794Y-109648876D01*
X168107499Y-109586448D01*
X167989529Y-109586448D01*
X167988161Y-109619938D01*
X167984751Y-109625423D01*
X167962247Y-109617972D01*
X167913818Y-109598253D01*
X167849092Y-109570218D01*
X167835557Y-109564192D01*
X167753756Y-109522596D01*
X167708688Y-109486038D01*
X167698783Y-109451796D01*
X167722474Y-109417148D01*
X167742040Y-109401839D01*
X167812640Y-109371221D01*
X167878720Y-109376280D01*
X167934041Y-109413651D01*
X167972364Y-109479973D01*
X167984651Y-109532616D01*
X167989529Y-109586448D01*
X168107499Y-109586448D01*
X168106270Y-109527220D01*
X168096968Y-109437210D01*
X168078540Y-109371667D01*
X168048640Y-109323412D01*
X168004920Y-109285267D01*
X167985859Y-109272940D01*
X167899274Y-109240836D01*
X167804478Y-109238816D01*
X167712776Y-109264338D01*
G36*
X168387193Y-109253282D02*
G01*
X168363839Y-109263488D01*
X168308098Y-109307634D01*
X168260431Y-109371467D01*
X168230952Y-109439587D01*
X168226154Y-109473170D01*
X168242240Y-109520056D01*
X168277525Y-109544865D01*
X168315356Y-109559887D01*
X168332679Y-109562655D01*
X168341114Y-109542566D01*
X168357770Y-109498851D01*
X168365077Y-109479098D01*
X168406052Y-109410771D01*
X168465378Y-109376691D01*
X168541448Y-109377739D01*
X168547082Y-109379081D01*
X168587695Y-109398336D01*
X168617552Y-109435875D01*
X168637945Y-109496309D01*
X168650164Y-109584251D01*
X168655500Y-109704313D01*
X168656000Y-109768198D01*
X168656248Y-109868903D01*
X168657874Y-109937554D01*
X168662199Y-109981173D01*
X168670546Y-110006782D01*
X168684235Y-110021403D01*
X168704589Y-110032058D01*
X168705766Y-110032595D01*
X168744962Y-110049167D01*
X168764381Y-110055269D01*
X168767365Y-110036819D01*
X168769919Y-109985823D01*
X168771860Y-109908808D01*
X168773003Y-109812305D01*
X168773231Y-109741684D01*
X168772068Y-109605025D01*
X168767521Y-109501351D01*
X168758001Y-109424608D01*
X168741919Y-109368746D01*
X168717687Y-109327712D01*
X168683714Y-109295454D01*
X168650167Y-109272940D01*
X168569501Y-109242976D01*
X168475619Y-109236218D01*
X168387193Y-109253282D01*
G37*
X168387193Y-109253282D02*
X168363839Y-109263488D01*
X168308098Y-109307634D01*
X168260431Y-109371467D01*
X168230952Y-109439587D01*
X168226154Y-109473170D01*
X168242240Y-109520056D01*
X168277525Y-109544865D01*
X168315356Y-109559887D01*
X168332679Y-109562655D01*
X168341114Y-109542566D01*
X168357770Y-109498851D01*
X168365077Y-109479098D01*
X168406052Y-109410771D01*
X168465378Y-109376691D01*
X168541448Y-109377739D01*
X168547082Y-109379081D01*
X168587695Y-109398336D01*
X168617552Y-109435875D01*
X168637945Y-109496309D01*
X168650164Y-109584251D01*
X168655500Y-109704313D01*
X168656000Y-109768198D01*
X168656248Y-109868903D01*
X168657874Y-109937554D01*
X168662199Y-109981173D01*
X168670546Y-110006782D01*
X168684235Y-110021403D01*
X168704589Y-110032058D01*
X168705766Y-110032595D01*
X168744962Y-110049167D01*
X168764381Y-110055269D01*
X168767365Y-110036819D01*
X168769919Y-109985823D01*
X168771860Y-109908808D01*
X168773003Y-109812305D01*
X168773231Y-109741684D01*
X168772068Y-109605025D01*
X168767521Y-109501351D01*
X168758001Y-109424608D01*
X168741919Y-109368746D01*
X168717687Y-109327712D01*
X168683714Y-109295454D01*
X168650167Y-109272940D01*
X168569501Y-109242976D01*
X168475619Y-109236218D01*
X168387193Y-109253282D01*
G36*
X169070667Y-109250028D02*
G01*
X169014410Y-109275617D01*
X168970253Y-109306624D01*
X168937899Y-109341295D01*
X168915562Y-109386020D01*
X168901454Y-109447192D01*
X168893789Y-109531201D01*
X168890780Y-109644440D01*
X168890462Y-109719009D01*
X168890462Y-110009920D01*
X168940227Y-110032595D01*
X168979424Y-110049167D01*
X168998843Y-110055269D01*
X169002558Y-110037110D01*
X169005505Y-109988148D01*
X169007309Y-109916653D01*
X169007692Y-109859885D01*
X169009339Y-109777871D01*
X169013778Y-109712809D01*
X169020260Y-109672967D01*
X169025410Y-109664500D01*
X169060023Y-109673146D01*
X169114360Y-109695323D01*
X169177278Y-109725386D01*
X169237632Y-109757692D01*
X169284279Y-109786598D01*
X169306074Y-109806461D01*
X169306161Y-109806675D01*
X169304286Y-109843435D01*
X169287475Y-109878526D01*
X169257961Y-109907028D01*
X169214884Y-109916561D01*
X169178068Y-109915450D01*
X169125926Y-109914633D01*
X169098556Y-109926849D01*
X169082118Y-109959124D01*
X169080045Y-109965210D01*
X169072919Y-110011239D01*
X169091976Y-110039187D01*
X169141647Y-110052507D01*
X169195303Y-110054970D01*
X169291858Y-110036710D01*
X169341841Y-110010631D01*
X169403571Y-109949368D01*
X169436310Y-109874170D01*
X169439247Y-109794711D01*
X169411576Y-109720667D01*
X169369953Y-109674269D01*
X169328396Y-109648293D01*
X169263078Y-109615407D01*
X169186962Y-109582057D01*
X169174274Y-109576961D01*
X169090667Y-109540065D01*
X169042470Y-109507546D01*
X169026970Y-109475218D01*
X169041450Y-109438894D01*
X169066308Y-109410500D01*
X169125061Y-109375539D01*
X169189707Y-109372917D01*
X169248992Y-109399858D01*
X169291661Y-109453588D01*
X169297261Y-109467450D01*
X169329867Y-109518436D01*
X169377470Y-109556287D01*
X169437539Y-109587350D01*
X169437539Y-109499268D01*
X169434003Y-109445451D01*
X169418844Y-109403034D01*
X169385232Y-109357779D01*
X169352965Y-109322920D01*
X169302791Y-109273562D01*
X169263807Y-109247047D01*
X169221936Y-109236411D01*
X169174540Y-109234654D01*
X169070667Y-109250028D01*
G37*
X169070667Y-109250028D02*
X169014410Y-109275617D01*
X168970253Y-109306624D01*
X168937899Y-109341295D01*
X168915562Y-109386020D01*
X168901454Y-109447192D01*
X168893789Y-109531201D01*
X168890780Y-109644440D01*
X168890462Y-109719009D01*
X168890462Y-110009920D01*
X168940227Y-110032595D01*
X168979424Y-110049167D01*
X168998843Y-110055269D01*
X169002558Y-110037110D01*
X169005505Y-109988148D01*
X169007309Y-109916653D01*
X169007692Y-109859885D01*
X169009339Y-109777871D01*
X169013778Y-109712809D01*
X169020260Y-109672967D01*
X169025410Y-109664500D01*
X169060023Y-109673146D01*
X169114360Y-109695323D01*
X169177278Y-109725386D01*
X169237632Y-109757692D01*
X169284279Y-109786598D01*
X169306074Y-109806461D01*
X169306161Y-109806675D01*
X169304286Y-109843435D01*
X169287475Y-109878526D01*
X169257961Y-109907028D01*
X169214884Y-109916561D01*
X169178068Y-109915450D01*
X169125926Y-109914633D01*
X169098556Y-109926849D01*
X169082118Y-109959124D01*
X169080045Y-109965210D01*
X169072919Y-110011239D01*
X169091976Y-110039187D01*
X169141647Y-110052507D01*
X169195303Y-110054970D01*
X169291858Y-110036710D01*
X169341841Y-110010631D01*
X169403571Y-109949368D01*
X169436310Y-109874170D01*
X169439247Y-109794711D01*
X169411576Y-109720667D01*
X169369953Y-109674269D01*
X169328396Y-109648293D01*
X169263078Y-109615407D01*
X169186962Y-109582057D01*
X169174274Y-109576961D01*
X169090667Y-109540065D01*
X169042470Y-109507546D01*
X169026970Y-109475218D01*
X169041450Y-109438894D01*
X169066308Y-109410500D01*
X169125061Y-109375539D01*
X169189707Y-109372917D01*
X169248992Y-109399858D01*
X169291661Y-109453588D01*
X169297261Y-109467450D01*
X169329867Y-109518436D01*
X169377470Y-109556287D01*
X169437539Y-109587350D01*
X169437539Y-109499268D01*
X169434003Y-109445451D01*
X169418844Y-109403034D01*
X169385232Y-109357779D01*
X169352965Y-109322920D01*
X169302791Y-109273562D01*
X169263807Y-109247047D01*
X169221936Y-109236411D01*
X169174540Y-109234654D01*
X169070667Y-109250028D01*
G36*
X169562071Y-109253162D02*
G01*
X169559089Y-109304568D01*
X169556753Y-109382692D01*
X169555251Y-109481357D01*
X169554769Y-109584843D01*
X169554769Y-109935033D01*
X169616599Y-109996863D01*
X169659207Y-110034962D01*
X169696610Y-110050395D01*
X169747730Y-110049418D01*
X169768022Y-110046933D01*
X169831446Y-110039700D01*
X169883905Y-110035555D01*
X169896692Y-110035172D01*
X169939801Y-110037676D01*
X170001456Y-110043962D01*
X170025362Y-110046933D01*
X170084078Y-110051528D01*
X170123536Y-110041546D01*
X170162662Y-110010728D01*
X170176785Y-109996863D01*
X170238615Y-109935033D01*
X170238615Y-109280003D01*
X170188850Y-109257329D01*
X170145998Y-109240534D01*
X170120927Y-109234654D01*
X170114499Y-109253236D01*
X170108491Y-109305155D01*
X170103303Y-109384672D01*
X170099336Y-109486046D01*
X170097423Y-109571692D01*
X170092077Y-109908731D01*
X170045440Y-109915325D01*
X170003024Y-109910714D01*
X169982240Y-109895787D01*
X169976430Y-109867877D01*
X169971470Y-109808425D01*
X169967754Y-109724966D01*
X169965676Y-109625032D01*
X169965376Y-109573604D01*
X169965077Y-109277554D01*
X169903546Y-109256104D01*
X169859996Y-109241520D01*
X169836306Y-109234719D01*
X169835623Y-109234654D01*
X169833246Y-109253142D01*
X169830634Y-109304406D01*
X169828005Y-109382149D01*
X169825579Y-109480074D01*
X169823885Y-109571692D01*
X169818539Y-109908731D01*
X169701308Y-109908731D01*
X169695928Y-109601246D01*
X169690549Y-109293761D01*
X169633399Y-109264207D01*
X169591203Y-109243913D01*
X169566230Y-109234704D01*
X169565509Y-109234654D01*
X169562071Y-109253162D01*
G37*
X169562071Y-109253162D02*
X169559089Y-109304568D01*
X169556753Y-109382692D01*
X169555251Y-109481357D01*
X169554769Y-109584843D01*
X169554769Y-109935033D01*
X169616599Y-109996863D01*
X169659207Y-110034962D01*
X169696610Y-110050395D01*
X169747730Y-110049418D01*
X169768022Y-110046933D01*
X169831446Y-110039700D01*
X169883905Y-110035555D01*
X169896692Y-110035172D01*
X169939801Y-110037676D01*
X170001456Y-110043962D01*
X170025362Y-110046933D01*
X170084078Y-110051528D01*
X170123536Y-110041546D01*
X170162662Y-110010728D01*
X170176785Y-109996863D01*
X170238615Y-109935033D01*
X170238615Y-109280003D01*
X170188850Y-109257329D01*
X170145998Y-109240534D01*
X170120927Y-109234654D01*
X170114499Y-109253236D01*
X170108491Y-109305155D01*
X170103303Y-109384672D01*
X170099336Y-109486046D01*
X170097423Y-109571692D01*
X170092077Y-109908731D01*
X170045440Y-109915325D01*
X170003024Y-109910714D01*
X169982240Y-109895787D01*
X169976430Y-109867877D01*
X169971470Y-109808425D01*
X169967754Y-109724966D01*
X169965676Y-109625032D01*
X169965376Y-109573604D01*
X169965077Y-109277554D01*
X169903546Y-109256104D01*
X169859996Y-109241520D01*
X169836306Y-109234719D01*
X169835623Y-109234654D01*
X169833246Y-109253142D01*
X169830634Y-109304406D01*
X169828005Y-109382149D01*
X169825579Y-109480074D01*
X169823885Y-109571692D01*
X169818539Y-109908731D01*
X169701308Y-109908731D01*
X169695928Y-109601246D01*
X169690549Y-109293761D01*
X169633399Y-109264207D01*
X169591203Y-109243913D01*
X169566230Y-109234704D01*
X169565509Y-109234654D01*
X169562071Y-109253162D01*
G36*
X170355919Y-109396789D02*
G01*
X170356167Y-109542820D01*
X170357128Y-109655155D01*
X170359206Y-109739178D01*
X170362807Y-109800269D01*
X170368335Y-109843809D01*
X170376196Y-109875179D01*
X170386793Y-109899762D01*
X170394818Y-109913794D01*
X170461272Y-109989888D01*
X170545530Y-110037584D01*
X170638751Y-110054699D01*
X170732100Y-110039046D01*
X170787688Y-110010918D01*
X170846043Y-109962260D01*
X170885814Y-109902833D01*
X170909810Y-109825007D01*
X170920839Y-109721152D01*
X170922401Y-109644962D01*
X170922191Y-109639486D01*
X170785692Y-109639486D01*
X170784859Y-109726855D01*
X170781039Y-109784692D01*
X170772254Y-109822529D01*
X170756526Y-109849898D01*
X170737734Y-109870542D01*
X170674625Y-109910390D01*
X170606863Y-109913795D01*
X170542821Y-109880525D01*
X170537836Y-109876017D01*
X170516561Y-109852567D01*
X170503221Y-109824666D01*
X170495999Y-109783141D01*
X170493077Y-109718816D01*
X170492615Y-109647700D01*
X170493617Y-109558358D01*
X170497762Y-109498758D01*
X170506764Y-109459589D01*
X170522333Y-109431540D01*
X170535098Y-109416644D01*
X170594400Y-109379075D01*
X170662699Y-109374557D01*
X170727890Y-109403253D01*
X170740472Y-109413906D01*
X170761889Y-109437563D01*
X170775256Y-109465751D01*
X170782434Y-109507745D01*
X170785281Y-109572819D01*
X170785692Y-109639486D01*
X170922191Y-109639486D01*
X170917678Y-109522265D01*
X170901638Y-109430077D01*
X170871472Y-109360769D01*
X170824371Y-109306711D01*
X170787688Y-109279005D01*
X170721010Y-109249072D01*
X170643728Y-109235178D01*
X170571890Y-109238897D01*
X170531692Y-109253900D01*
X170515918Y-109258170D01*
X170505450Y-109242250D01*
X170498144Y-109199589D01*
X170492615Y-109134606D01*
X170486563Y-109062232D01*
X170478156Y-109018687D01*
X170462859Y-108993787D01*
X170436136Y-108977345D01*
X170419346Y-108970064D01*
X170355846Y-108943463D01*
X170355919Y-109396789D01*
G37*
X170355919Y-109396789D02*
X170356167Y-109542820D01*
X170357128Y-109655155D01*
X170359206Y-109739178D01*
X170362807Y-109800269D01*
X170368335Y-109843809D01*
X170376196Y-109875179D01*
X170386793Y-109899762D01*
X170394818Y-109913794D01*
X170461272Y-109989888D01*
X170545530Y-110037584D01*
X170638751Y-110054699D01*
X170732100Y-110039046D01*
X170787688Y-110010918D01*
X170846043Y-109962260D01*
X170885814Y-109902833D01*
X170909810Y-109825007D01*
X170920839Y-109721152D01*
X170922401Y-109644962D01*
X170922191Y-109639486D01*
X170785692Y-109639486D01*
X170784859Y-109726855D01*
X170781039Y-109784692D01*
X170772254Y-109822529D01*
X170756526Y-109849898D01*
X170737734Y-109870542D01*
X170674625Y-109910390D01*
X170606863Y-109913795D01*
X170542821Y-109880525D01*
X170537836Y-109876017D01*
X170516561Y-109852567D01*
X170503221Y-109824666D01*
X170495999Y-109783141D01*
X170493077Y-109718816D01*
X170492615Y-109647700D01*
X170493617Y-109558358D01*
X170497762Y-109498758D01*
X170506764Y-109459589D01*
X170522333Y-109431540D01*
X170535098Y-109416644D01*
X170594400Y-109379075D01*
X170662699Y-109374557D01*
X170727890Y-109403253D01*
X170740472Y-109413906D01*
X170761889Y-109437563D01*
X170775256Y-109465751D01*
X170782434Y-109507745D01*
X170785281Y-109572819D01*
X170785692Y-109639486D01*
X170922191Y-109639486D01*
X170917678Y-109522265D01*
X170901638Y-109430077D01*
X170871472Y-109360769D01*
X170824371Y-109306711D01*
X170787688Y-109279005D01*
X170721010Y-109249072D01*
X170643728Y-109235178D01*
X170571890Y-109238897D01*
X170531692Y-109253900D01*
X170515918Y-109258170D01*
X170505450Y-109242250D01*
X170498144Y-109199589D01*
X170492615Y-109134606D01*
X170486563Y-109062232D01*
X170478156Y-109018687D01*
X170462859Y-108993787D01*
X170436136Y-108977345D01*
X170419346Y-108970064D01*
X170355846Y-108943463D01*
X170355919Y-109396789D01*
G36*
X171244638Y-109241170D02*
G01*
X171155883Y-109273921D01*
X171083978Y-109331850D01*
X171055856Y-109372628D01*
X171025198Y-109447454D01*
X171025835Y-109501558D01*
X171058013Y-109537946D01*
X171069919Y-109544133D01*
X171121325Y-109563425D01*
X171147578Y-109558482D01*
X171156470Y-109526087D01*
X171156923Y-109508192D01*
X171173203Y-109442359D01*
X171215635Y-109396307D01*
X171274612Y-109374064D01*
X171340525Y-109379661D01*
X171394105Y-109408729D01*
X171412202Y-109425310D01*
X171425029Y-109445425D01*
X171433694Y-109475832D01*
X171439304Y-109523288D01*
X171442965Y-109594550D01*
X171445785Y-109696375D01*
X171446516Y-109728615D01*
X171449180Y-109838910D01*
X171452208Y-109916536D01*
X171456750Y-109967896D01*
X171463954Y-109999390D01*
X171474967Y-110017420D01*
X171490940Y-110028388D01*
X171501166Y-110033233D01*
X171544594Y-110049801D01*
X171570158Y-110055269D01*
X171578605Y-110037007D01*
X171583761Y-109981796D01*
X171585654Y-109888999D01*
X171584311Y-109757978D01*
X171583893Y-109737769D01*
X171580942Y-109618233D01*
X171577452Y-109530949D01*
X171572486Y-109469091D01*
X171565107Y-109425836D01*
X171554376Y-109394360D01*
X171539355Y-109367839D01*
X171531498Y-109356475D01*
X171486447Y-109306192D01*
X171436060Y-109267081D01*
X171429892Y-109263667D01*
X171339542Y-109236712D01*
X171244638Y-109241170D01*
G37*
X171244638Y-109241170D02*
X171155883Y-109273921D01*
X171083978Y-109331850D01*
X171055856Y-109372628D01*
X171025198Y-109447454D01*
X171025835Y-109501558D01*
X171058013Y-109537946D01*
X171069919Y-109544133D01*
X171121325Y-109563425D01*
X171147578Y-109558482D01*
X171156470Y-109526087D01*
X171156923Y-109508192D01*
X171173203Y-109442359D01*
X171215635Y-109396307D01*
X171274612Y-109374064D01*
X171340525Y-109379661D01*
X171394105Y-109408729D01*
X171412202Y-109425310D01*
X171425029Y-109445425D01*
X171433694Y-109475832D01*
X171439304Y-109523288D01*
X171442965Y-109594550D01*
X171445785Y-109696375D01*
X171446516Y-109728615D01*
X171449180Y-109838910D01*
X171452208Y-109916536D01*
X171456750Y-109967896D01*
X171463954Y-109999390D01*
X171474967Y-110017420D01*
X171490940Y-110028388D01*
X171501166Y-110033233D01*
X171544594Y-110049801D01*
X171570158Y-110055269D01*
X171578605Y-110037007D01*
X171583761Y-109981796D01*
X171585654Y-109888999D01*
X171584311Y-109757978D01*
X171583893Y-109737769D01*
X171580942Y-109618233D01*
X171577452Y-109530949D01*
X171572486Y-109469091D01*
X171565107Y-109425836D01*
X171554376Y-109394360D01*
X171539355Y-109367839D01*
X171531498Y-109356475D01*
X171486447Y-109306192D01*
X171436060Y-109267081D01*
X171429892Y-109263667D01*
X171339542Y-109236712D01*
X171244638Y-109241170D01*
G36*
X171904499Y-109242803D02*
G01*
X171827940Y-109271233D01*
X171827064Y-109271779D01*
X171779715Y-109306627D01*
X171744759Y-109347352D01*
X171720175Y-109400425D01*
X171703938Y-109472314D01*
X171694025Y-109569492D01*
X171688414Y-109698428D01*
X171687923Y-109716798D01*
X171680859Y-109993787D01*
X171740305Y-110024528D01*
X171783319Y-110045302D01*
X171809290Y-110055146D01*
X171810491Y-110055269D01*
X171814986Y-110037106D01*
X171818556Y-109988112D01*
X171820752Y-109916531D01*
X171821231Y-109858568D01*
X171821242Y-109764670D01*
X171825534Y-109705703D01*
X171840497Y-109677579D01*
X171872518Y-109676206D01*
X171927986Y-109697498D01*
X172011731Y-109736636D01*
X172073311Y-109769143D01*
X172104983Y-109797345D01*
X172114294Y-109828082D01*
X172114308Y-109829604D01*
X172098943Y-109882554D01*
X172053453Y-109911160D01*
X171983834Y-109915303D01*
X171933687Y-109914584D01*
X171907246Y-109929027D01*
X171890757Y-109963718D01*
X171881267Y-110007916D01*
X171894943Y-110032993D01*
X171900093Y-110036582D01*
X171948575Y-110050996D01*
X172016469Y-110053037D01*
X172086388Y-110043483D01*
X172135932Y-110026022D01*
X172204430Y-109967864D01*
X172243366Y-109886908D01*
X172251077Y-109823660D01*
X172245193Y-109766611D01*
X172223899Y-109720042D01*
X172181735Y-109678681D01*
X172113241Y-109637255D01*
X172012956Y-109590493D01*
X172006846Y-109587850D01*
X171916510Y-109546117D01*
X171860765Y-109511891D01*
X171836871Y-109481135D01*
X171842087Y-109449811D01*
X171873672Y-109413883D01*
X171883117Y-109405616D01*
X171946383Y-109373558D01*
X172011936Y-109374907D01*
X172069028Y-109406338D01*
X172106907Y-109464524D01*
X172110426Y-109475946D01*
X172144700Y-109531337D01*
X172188191Y-109558018D01*
X172251077Y-109584460D01*
X172251077Y-109516048D01*
X172231948Y-109416610D01*
X172175169Y-109325402D01*
X172145622Y-109294889D01*
X172078458Y-109255728D01*
X171993044Y-109238000D01*
X171904499Y-109242803D01*
G37*
X171904499Y-109242803D02*
X171827940Y-109271233D01*
X171827064Y-109271779D01*
X171779715Y-109306627D01*
X171744759Y-109347352D01*
X171720175Y-109400425D01*
X171703938Y-109472314D01*
X171694025Y-109569492D01*
X171688414Y-109698428D01*
X171687923Y-109716798D01*
X171680859Y-109993787D01*
X171740305Y-110024528D01*
X171783319Y-110045302D01*
X171809290Y-110055146D01*
X171810491Y-110055269D01*
X171814986Y-110037106D01*
X171818556Y-109988112D01*
X171820752Y-109916531D01*
X171821231Y-109858568D01*
X171821242Y-109764670D01*
X171825534Y-109705703D01*
X171840497Y-109677579D01*
X171872518Y-109676206D01*
X171927986Y-109697498D01*
X172011731Y-109736636D01*
X172073311Y-109769143D01*
X172104983Y-109797345D01*
X172114294Y-109828082D01*
X172114308Y-109829604D01*
X172098943Y-109882554D01*
X172053453Y-109911160D01*
X171983834Y-109915303D01*
X171933687Y-109914584D01*
X171907246Y-109929027D01*
X171890757Y-109963718D01*
X171881267Y-110007916D01*
X171894943Y-110032993D01*
X171900093Y-110036582D01*
X171948575Y-110050996D01*
X172016469Y-110053037D01*
X172086388Y-110043483D01*
X172135932Y-110026022D01*
X172204430Y-109967864D01*
X172243366Y-109886908D01*
X172251077Y-109823660D01*
X172245193Y-109766611D01*
X172223899Y-109720042D01*
X172181735Y-109678681D01*
X172113241Y-109637255D01*
X172012956Y-109590493D01*
X172006846Y-109587850D01*
X171916510Y-109546117D01*
X171860765Y-109511891D01*
X171836871Y-109481135D01*
X171842087Y-109449811D01*
X171873672Y-109413883D01*
X171883117Y-109405616D01*
X171946383Y-109373558D01*
X172011936Y-109374907D01*
X172069028Y-109406338D01*
X172106907Y-109464524D01*
X172110426Y-109475946D01*
X172144700Y-109531337D01*
X172188191Y-109558018D01*
X172251077Y-109584460D01*
X172251077Y-109516048D01*
X172231948Y-109416610D01*
X172175169Y-109325402D01*
X172145622Y-109294889D01*
X172078458Y-109255728D01*
X171993044Y-109238000D01*
X171904499Y-109242803D01*
G36*
X172798154Y-109108620D02*
G01*
X172792428Y-109188480D01*
X172785851Y-109235539D01*
X172776738Y-109256066D01*
X172763402Y-109256329D01*
X172759077Y-109253878D01*
X172701556Y-109236136D01*
X172626732Y-109237172D01*
X172550661Y-109255410D01*
X172503082Y-109279005D01*
X172454298Y-109316698D01*
X172418636Y-109359355D01*
X172394155Y-109413557D01*
X172378913Y-109485884D01*
X172370970Y-109582919D01*
X172368384Y-109711242D01*
X172368338Y-109735858D01*
X172368308Y-110012370D01*
X172429839Y-110033820D01*
X172473541Y-110048412D01*
X172497518Y-110055206D01*
X172498223Y-110055269D01*
X172500585Y-110036845D01*
X172502594Y-109986026D01*
X172504099Y-109909493D01*
X172504947Y-109813930D01*
X172505077Y-109755829D01*
X172505349Y-109641271D01*
X172506748Y-109559167D01*
X172510151Y-109502893D01*
X172516433Y-109465826D01*
X172526471Y-109441344D01*
X172541139Y-109422825D01*
X172550298Y-109413906D01*
X172613211Y-109377966D01*
X172681864Y-109375275D01*
X172744152Y-109405670D01*
X172755671Y-109416644D01*
X172772567Y-109437279D01*
X172784286Y-109461756D01*
X172791767Y-109497147D01*
X172795946Y-109550526D01*
X172797763Y-109628966D01*
X172798154Y-109737117D01*
X172798154Y-110012370D01*
X172859685Y-110033820D01*
X172903387Y-110048412D01*
X172927364Y-110055206D01*
X172928070Y-110055269D01*
X172929874Y-110036569D01*
X172931500Y-109983822D01*
X172932883Y-109902057D01*
X172933958Y-109796305D01*
X172934660Y-109671594D01*
X172934923Y-109532955D01*
X172934923Y-108998306D01*
X172807923Y-108944736D01*
X172798154Y-109108620D01*
G37*
X172798154Y-109108620D02*
X172792428Y-109188480D01*
X172785851Y-109235539D01*
X172776738Y-109256066D01*
X172763402Y-109256329D01*
X172759077Y-109253878D01*
X172701556Y-109236136D01*
X172626732Y-109237172D01*
X172550661Y-109255410D01*
X172503082Y-109279005D01*
X172454298Y-109316698D01*
X172418636Y-109359355D01*
X172394155Y-109413557D01*
X172378913Y-109485884D01*
X172370970Y-109582919D01*
X172368384Y-109711242D01*
X172368338Y-109735858D01*
X172368308Y-110012370D01*
X172429839Y-110033820D01*
X172473541Y-110048412D01*
X172497518Y-110055206D01*
X172498223Y-110055269D01*
X172500585Y-110036845D01*
X172502594Y-109986026D01*
X172504099Y-109909493D01*
X172504947Y-109813930D01*
X172505077Y-109755829D01*
X172505349Y-109641271D01*
X172506748Y-109559167D01*
X172510151Y-109502893D01*
X172516433Y-109465826D01*
X172526471Y-109441344D01*
X172541139Y-109422825D01*
X172550298Y-109413906D01*
X172613211Y-109377966D01*
X172681864Y-109375275D01*
X172744152Y-109405670D01*
X172755671Y-109416644D01*
X172772567Y-109437279D01*
X172784286Y-109461756D01*
X172791767Y-109497147D01*
X172795946Y-109550526D01*
X172797763Y-109628966D01*
X172798154Y-109737117D01*
X172798154Y-110012370D01*
X172859685Y-110033820D01*
X172903387Y-110048412D01*
X172927364Y-110055206D01*
X172928070Y-110055269D01*
X172929874Y-110036569D01*
X172931500Y-109983822D01*
X172932883Y-109902057D01*
X172933958Y-109796305D01*
X172934660Y-109671594D01*
X172934923Y-109532955D01*
X172934923Y-108998306D01*
X172807923Y-108944736D01*
X172798154Y-109108620D01*
G36*
X174423746Y-109216245D02*
G01*
X174346714Y-109268067D01*
X174287184Y-109342912D01*
X174251622Y-109438154D01*
X174244429Y-109508256D01*
X174245246Y-109537509D01*
X174252086Y-109559907D01*
X174270888Y-109579974D01*
X174307592Y-109602233D01*
X174368138Y-109631209D01*
X174458466Y-109671427D01*
X174458923Y-109671629D01*
X174542067Y-109709710D01*
X174610247Y-109743525D01*
X174656495Y-109769433D01*
X174673842Y-109783795D01*
X174673846Y-109783911D01*
X174658557Y-109815185D01*
X174622804Y-109849657D01*
X174581758Y-109874490D01*
X174560963Y-109879423D01*
X174504230Y-109862362D01*
X174455373Y-109819633D01*
X174431535Y-109772655D01*
X174408603Y-109738022D01*
X174363682Y-109698581D01*
X174310877Y-109664509D01*
X174264290Y-109645980D01*
X174254548Y-109644962D01*
X174243582Y-109661715D01*
X174242921Y-109704539D01*
X174250980Y-109762281D01*
X174266173Y-109823789D01*
X174286914Y-109877909D01*
X174287962Y-109880010D01*
X174350379Y-109967160D01*
X174431274Y-110026439D01*
X174523144Y-110055534D01*
X174618487Y-110052134D01*
X174709802Y-110013928D01*
X174713862Y-110011241D01*
X174785694Y-109946142D01*
X174832927Y-109861205D01*
X174859066Y-109749521D01*
X174862574Y-109718143D01*
X174868787Y-109570036D01*
X174861339Y-109500968D01*
X174673846Y-109500968D01*
X174671410Y-109544052D01*
X174658086Y-109556626D01*
X174624868Y-109547219D01*
X174572506Y-109524983D01*
X174513976Y-109497110D01*
X174512521Y-109496372D01*
X174462911Y-109470277D01*
X174443000Y-109452863D01*
X174447910Y-109434607D01*
X174468584Y-109410620D01*
X174521181Y-109375906D01*
X174577823Y-109373356D01*
X174628631Y-109398619D01*
X174663724Y-109447347D01*
X174673846Y-109500968D01*
X174861339Y-109500968D01*
X174856008Y-109451536D01*
X174823222Y-109357555D01*
X174777579Y-109291715D01*
X174695198Y-109225181D01*
X174604454Y-109192176D01*
X174511815Y-109190073D01*
X174423746Y-109216245D01*
G37*
X174423746Y-109216245D02*
X174346714Y-109268067D01*
X174287184Y-109342912D01*
X174251622Y-109438154D01*
X174244429Y-109508256D01*
X174245246Y-109537509D01*
X174252086Y-109559907D01*
X174270888Y-109579974D01*
X174307592Y-109602233D01*
X174368138Y-109631209D01*
X174458466Y-109671427D01*
X174458923Y-109671629D01*
X174542067Y-109709710D01*
X174610247Y-109743525D01*
X174656495Y-109769433D01*
X174673842Y-109783795D01*
X174673846Y-109783911D01*
X174658557Y-109815185D01*
X174622804Y-109849657D01*
X174581758Y-109874490D01*
X174560963Y-109879423D01*
X174504230Y-109862362D01*
X174455373Y-109819633D01*
X174431535Y-109772655D01*
X174408603Y-109738022D01*
X174363682Y-109698581D01*
X174310877Y-109664509D01*
X174264290Y-109645980D01*
X174254548Y-109644962D01*
X174243582Y-109661715D01*
X174242921Y-109704539D01*
X174250980Y-109762281D01*
X174266173Y-109823789D01*
X174286914Y-109877909D01*
X174287962Y-109880010D01*
X174350379Y-109967160D01*
X174431274Y-110026439D01*
X174523144Y-110055534D01*
X174618487Y-110052134D01*
X174709802Y-110013928D01*
X174713862Y-110011241D01*
X174785694Y-109946142D01*
X174832927Y-109861205D01*
X174859066Y-109749521D01*
X174862574Y-109718143D01*
X174868787Y-109570036D01*
X174861339Y-109500968D01*
X174673846Y-109500968D01*
X174671410Y-109544052D01*
X174658086Y-109556626D01*
X174624868Y-109547219D01*
X174572506Y-109524983D01*
X174513976Y-109497110D01*
X174512521Y-109496372D01*
X174462911Y-109470277D01*
X174443000Y-109452863D01*
X174447910Y-109434607D01*
X174468584Y-109410620D01*
X174521181Y-109375906D01*
X174577823Y-109373356D01*
X174628631Y-109398619D01*
X174663724Y-109447347D01*
X174673846Y-109500968D01*
X174861339Y-109500968D01*
X174856008Y-109451536D01*
X174823222Y-109357555D01*
X174777579Y-109291715D01*
X174695198Y-109225181D01*
X174604454Y-109192176D01*
X174511815Y-109190073D01*
X174423746Y-109216245D01*
G36*
X175941114Y-109203756D02*
G01*
X175849536Y-109251909D01*
X175781951Y-109329405D01*
X175757943Y-109379227D01*
X175739262Y-109454033D01*
X175729699Y-109548552D01*
X175728792Y-109651710D01*
X175736079Y-109752435D01*
X175751097Y-109839653D01*
X175773385Y-109902291D01*
X175780235Y-109913079D01*
X175861368Y-109993605D01*
X175957734Y-110041836D01*
X176062299Y-110055950D01*
X176168032Y-110034129D01*
X176197457Y-110021047D01*
X176254759Y-109980731D01*
X176305050Y-109927275D01*
X176309803Y-109920495D01*
X176329122Y-109887821D01*
X176341892Y-109852894D01*
X176349436Y-109806914D01*
X176353076Y-109741084D01*
X176354135Y-109646605D01*
X176354154Y-109625423D01*
X176354106Y-109618682D01*
X176158769Y-109618682D01*
X176157632Y-109707849D01*
X176153159Y-109767020D01*
X176143754Y-109805241D01*
X176127824Y-109831553D01*
X176119692Y-109840346D01*
X176072942Y-109873761D01*
X176027553Y-109872237D01*
X175981660Y-109843252D01*
X175954288Y-109812309D01*
X175938077Y-109767143D01*
X175928974Y-109695920D01*
X175928349Y-109687614D01*
X175926796Y-109558537D01*
X175943035Y-109462672D01*
X175976848Y-109400607D01*
X176028016Y-109372932D01*
X176046280Y-109371423D01*
X176094240Y-109379013D01*
X176127047Y-109405308D01*
X176147105Y-109455595D01*
X176156822Y-109535164D01*
X176158769Y-109618682D01*
X176354106Y-109618682D01*
X176353426Y-109524749D01*
X176350371Y-109454406D01*
X176343678Y-109405663D01*
X176332040Y-109369788D01*
X176314147Y-109338048D01*
X176310192Y-109332148D01*
X176243733Y-109252604D01*
X176171315Y-109206429D01*
X176083151Y-109188099D01*
X176053213Y-109187203D01*
X175941114Y-109203756D01*
G37*
X175941114Y-109203756D02*
X175849536Y-109251909D01*
X175781951Y-109329405D01*
X175757943Y-109379227D01*
X175739262Y-109454033D01*
X175729699Y-109548552D01*
X175728792Y-109651710D01*
X175736079Y-109752435D01*
X175751097Y-109839653D01*
X175773385Y-109902291D01*
X175780235Y-109913079D01*
X175861368Y-109993605D01*
X175957734Y-110041836D01*
X176062299Y-110055950D01*
X176168032Y-110034129D01*
X176197457Y-110021047D01*
X176254759Y-109980731D01*
X176305050Y-109927275D01*
X176309803Y-109920495D01*
X176329122Y-109887821D01*
X176341892Y-109852894D01*
X176349436Y-109806914D01*
X176353076Y-109741084D01*
X176354135Y-109646605D01*
X176354154Y-109625423D01*
X176354106Y-109618682D01*
X176158769Y-109618682D01*
X176157632Y-109707849D01*
X176153159Y-109767020D01*
X176143754Y-109805241D01*
X176127824Y-109831553D01*
X176119692Y-109840346D01*
X176072942Y-109873761D01*
X176027553Y-109872237D01*
X175981660Y-109843252D01*
X175954288Y-109812309D01*
X175938077Y-109767143D01*
X175928974Y-109695920D01*
X175928349Y-109687614D01*
X175926796Y-109558537D01*
X175943035Y-109462672D01*
X175976848Y-109400607D01*
X176028016Y-109372932D01*
X176046280Y-109371423D01*
X176094240Y-109379013D01*
X176127047Y-109405308D01*
X176147105Y-109455595D01*
X176156822Y-109535164D01*
X176158769Y-109618682D01*
X176354106Y-109618682D01*
X176353426Y-109524749D01*
X176350371Y-109454406D01*
X176343678Y-109405663D01*
X176332040Y-109369788D01*
X176314147Y-109338048D01*
X176310192Y-109332148D01*
X176243733Y-109252604D01*
X176171315Y-109206429D01*
X176083151Y-109188099D01*
X176053213Y-109187203D01*
X175941114Y-109203756D01*
G36*
X173686336Y-109211589D02*
G01*
X173623633Y-109247858D01*
X173580039Y-109283858D01*
X173548155Y-109321575D01*
X173526190Y-109367699D01*
X173512351Y-109428921D01*
X173504847Y-109511931D01*
X173501883Y-109623419D01*
X173501539Y-109703562D01*
X173501539Y-109998565D01*
X173667615Y-110073015D01*
X173677385Y-109749902D01*
X173681421Y-109629229D01*
X173685656Y-109541641D01*
X173690903Y-109481150D01*
X173697975Y-109441768D01*
X173707689Y-109417507D01*
X173720856Y-109402380D01*
X173725081Y-109399106D01*
X173789091Y-109373534D01*
X173853792Y-109383653D01*
X173892308Y-109410500D01*
X173907975Y-109429524D01*
X173918820Y-109454488D01*
X173925712Y-109492334D01*
X173929521Y-109550002D01*
X173931117Y-109634435D01*
X173931385Y-109722428D01*
X173931437Y-109832823D01*
X173933328Y-109910963D01*
X173939655Y-109963665D01*
X173953017Y-109997742D01*
X173976015Y-110020011D01*
X174011246Y-110037287D01*
X174058303Y-110055238D01*
X174109697Y-110074778D01*
X174103579Y-109727985D01*
X174101116Y-109602968D01*
X174098233Y-109510582D01*
X174094102Y-109444381D01*
X174087893Y-109397920D01*
X174078774Y-109364756D01*
X174065917Y-109338444D01*
X174050416Y-109315229D01*
X173975629Y-109241069D01*
X173884372Y-109198184D01*
X173785117Y-109187912D01*
X173686336Y-109211589D01*
G37*
X173686336Y-109211589D02*
X173623633Y-109247858D01*
X173580039Y-109283858D01*
X173548155Y-109321575D01*
X173526190Y-109367699D01*
X173512351Y-109428921D01*
X173504847Y-109511931D01*
X173501883Y-109623419D01*
X173501539Y-109703562D01*
X173501539Y-109998565D01*
X173667615Y-110073015D01*
X173677385Y-109749902D01*
X173681421Y-109629229D01*
X173685656Y-109541641D01*
X173690903Y-109481150D01*
X173697975Y-109441768D01*
X173707689Y-109417507D01*
X173720856Y-109402380D01*
X173725081Y-109399106D01*
X173789091Y-109373534D01*
X173853792Y-109383653D01*
X173892308Y-109410500D01*
X173907975Y-109429524D01*
X173918820Y-109454488D01*
X173925712Y-109492334D01*
X173929521Y-109550002D01*
X173931117Y-109634435D01*
X173931385Y-109722428D01*
X173931437Y-109832823D01*
X173933328Y-109910963D01*
X173939655Y-109963665D01*
X173953017Y-109997742D01*
X173976015Y-110020011D01*
X174011246Y-110037287D01*
X174058303Y-110055238D01*
X174109697Y-110074778D01*
X174103579Y-109727985D01*
X174101116Y-109602968D01*
X174098233Y-109510582D01*
X174094102Y-109444381D01*
X174087893Y-109397920D01*
X174078774Y-109364756D01*
X174065917Y-109338444D01*
X174050416Y-109315229D01*
X173975629Y-109241069D01*
X173884372Y-109198184D01*
X173785117Y-109187912D01*
X173686336Y-109211589D01*
G36*
X175189114Y-109201005D02*
G01*
X175114461Y-109238227D01*
X175048569Y-109306761D01*
X175030423Y-109332148D01*
X175010655Y-109365366D01*
X174997828Y-109401445D01*
X174990490Y-109449598D01*
X174987187Y-109519036D01*
X174986462Y-109610706D01*
X174989737Y-109736330D01*
X175001123Y-109830654D01*
X175022959Y-109901023D01*
X175057581Y-109954786D01*
X175107330Y-109999288D01*
X175110986Y-110001923D01*
X175160015Y-110028877D01*
X175219055Y-110042212D01*
X175294141Y-110045500D01*
X175416205Y-110045500D01*
X175416256Y-110163997D01*
X175417392Y-110229992D01*
X175424314Y-110268702D01*
X175442402Y-110291919D01*
X175477038Y-110311433D01*
X175485355Y-110315420D01*
X175524280Y-110334103D01*
X175554417Y-110345903D01*
X175576826Y-110346922D01*
X175592567Y-110333261D01*
X175602698Y-110301022D01*
X175608277Y-110246304D01*
X175610365Y-110165211D01*
X175610019Y-110053844D01*
X175608300Y-109908302D01*
X175607763Y-109864769D01*
X175605828Y-109714705D01*
X175604096Y-109616542D01*
X175416308Y-109616542D01*
X175415252Y-109699864D01*
X175410562Y-109754380D01*
X175399949Y-109790337D01*
X175381128Y-109817982D01*
X175368350Y-109831465D01*
X175316110Y-109870917D01*
X175269858Y-109874128D01*
X175222133Y-109841549D01*
X175220923Y-109840346D01*
X175201506Y-109815168D01*
X175189693Y-109780947D01*
X175183735Y-109728248D01*
X175181880Y-109647631D01*
X175181846Y-109629771D01*
X175186330Y-109518675D01*
X175200926Y-109441661D01*
X175227350Y-109394647D01*
X175267317Y-109373550D01*
X175290416Y-109371423D01*
X175345238Y-109381400D01*
X175382842Y-109414252D01*
X175405477Y-109474357D01*
X175415394Y-109566098D01*
X175416308Y-109616542D01*
X175604096Y-109616542D01*
X175603778Y-109598560D01*
X175601127Y-109511179D01*
X175597394Y-109447405D01*
X175592093Y-109402082D01*
X175584742Y-109370055D01*
X175574857Y-109346168D01*
X175561954Y-109325264D01*
X175556421Y-109317398D01*
X175483031Y-109243095D01*
X175390240Y-109200967D01*
X175282904Y-109189222D01*
X175189114Y-109201005D01*
G37*
X175189114Y-109201005D02*
X175114461Y-109238227D01*
X175048569Y-109306761D01*
X175030423Y-109332148D01*
X175010655Y-109365366D01*
X174997828Y-109401445D01*
X174990490Y-109449598D01*
X174987187Y-109519036D01*
X174986462Y-109610706D01*
X174989737Y-109736330D01*
X175001123Y-109830654D01*
X175022959Y-109901023D01*
X175057581Y-109954786D01*
X175107330Y-109999288D01*
X175110986Y-110001923D01*
X175160015Y-110028877D01*
X175219055Y-110042212D01*
X175294141Y-110045500D01*
X175416205Y-110045500D01*
X175416256Y-110163997D01*
X175417392Y-110229992D01*
X175424314Y-110268702D01*
X175442402Y-110291919D01*
X175477038Y-110311433D01*
X175485355Y-110315420D01*
X175524280Y-110334103D01*
X175554417Y-110345903D01*
X175576826Y-110346922D01*
X175592567Y-110333261D01*
X175602698Y-110301022D01*
X175608277Y-110246304D01*
X175610365Y-110165211D01*
X175610019Y-110053844D01*
X175608300Y-109908302D01*
X175607763Y-109864769D01*
X175605828Y-109714705D01*
X175604096Y-109616542D01*
X175416308Y-109616542D01*
X175415252Y-109699864D01*
X175410562Y-109754380D01*
X175399949Y-109790337D01*
X175381128Y-109817982D01*
X175368350Y-109831465D01*
X175316110Y-109870917D01*
X175269858Y-109874128D01*
X175222133Y-109841549D01*
X175220923Y-109840346D01*
X175201506Y-109815168D01*
X175189693Y-109780947D01*
X175183735Y-109728248D01*
X175181880Y-109647631D01*
X175181846Y-109629771D01*
X175186330Y-109518675D01*
X175200926Y-109441661D01*
X175227350Y-109394647D01*
X175267317Y-109373550D01*
X175290416Y-109371423D01*
X175345238Y-109381400D01*
X175382842Y-109414252D01*
X175405477Y-109474357D01*
X175415394Y-109566098D01*
X175416308Y-109616542D01*
X175604096Y-109616542D01*
X175603778Y-109598560D01*
X175601127Y-109511179D01*
X175597394Y-109447405D01*
X175592093Y-109402082D01*
X175584742Y-109370055D01*
X175574857Y-109346168D01*
X175561954Y-109325264D01*
X175556421Y-109317398D01*
X175483031Y-109243095D01*
X175390240Y-109200967D01*
X175282904Y-109189222D01*
X175189114Y-109201005D01*
M02*
