G04 #@! TF.GenerationSoftware,KiCad,Pcbnew,(5.1.5)-2*
G04 #@! TF.CreationDate,2020-06-09T15:52:10+08:00*
G04 #@! TF.ProjectId,Bonjour STM32,426f6e6a-6f75-4722-9053-544d33322e6b,rev?*
G04 #@! TF.SameCoordinates,Original*
G04 #@! TF.FileFunction,Legend,Top*
G04 #@! TF.FilePolarity,Positive*
%FSLAX46Y46*%
G04 Gerber Fmt 4.6, Leading zero omitted, Abs format (unit mm)*
G04 Created by KiCad (PCBNEW (5.1.5)-2) date 2020-06-09 15:52:10*
%MOMM*%
%LPD*%
G04 APERTURE LIST*
%ADD10C,0.120000*%
%ADD11C,0.150000*%
%ADD12C,0.010000*%
G04 APERTURE END LIST*
D10*
X201220605Y-63627000D02*
G75*
G03X201220605Y-63627000I-179605J0D01*
G01*
X179704999Y-59182001D02*
X178816000Y-59817000D01*
X179704999Y-59182001D02*
X178816000Y-58547000D01*
X175982674Y-62439419D02*
G75*
G02X179704999Y-59182001I3214326J82419D01*
G01*
X177038000Y-62738000D02*
X177038000Y-65913000D01*
X177038000Y-65913000D02*
X173355000Y-66802000D01*
X173355000Y-61976000D02*
X177038000Y-62738000D01*
X173355000Y-66802000D02*
X173355000Y-61976000D01*
X164338000Y-64389000D02*
X165354000Y-65024000D01*
X164338000Y-64389000D02*
X165354000Y-63754000D01*
X167132000Y-64389000D02*
X164338000Y-64389000D01*
X170815000Y-61976000D02*
X167132000Y-62865000D01*
X170815000Y-66802000D02*
X170815000Y-61976000D01*
X167132000Y-66040000D02*
X170815000Y-66802000D01*
X167132000Y-62865000D02*
X167132000Y-66040000D01*
D11*
X176347380Y-65714380D02*
X175347380Y-65714380D01*
X175442619Y-65285809D02*
X175395000Y-65238190D01*
X175347380Y-65142952D01*
X175347380Y-64904857D01*
X175395000Y-64809619D01*
X175442619Y-64762000D01*
X175537857Y-64714380D01*
X175633095Y-64714380D01*
X175775952Y-64762000D01*
X176347380Y-65333428D01*
X176347380Y-64714380D01*
X176252142Y-63714380D02*
X176299761Y-63762000D01*
X176347380Y-63904857D01*
X176347380Y-64000095D01*
X176299761Y-64142952D01*
X176204523Y-64238190D01*
X176109285Y-64285809D01*
X175918809Y-64333428D01*
X175775952Y-64333428D01*
X175585476Y-64285809D01*
X175490238Y-64238190D01*
X175395000Y-64142952D01*
X175347380Y-64000095D01*
X175347380Y-63904857D01*
X175395000Y-63762000D01*
X175442619Y-63714380D01*
X176347380Y-62762000D02*
X176347380Y-63333428D01*
X176347380Y-63047714D02*
X175347380Y-63047714D01*
X175490238Y-63142952D01*
X175585476Y-63238190D01*
X175633095Y-63333428D01*
X170305361Y-65965200D02*
X170352980Y-65822342D01*
X170352980Y-65584247D01*
X170305361Y-65489009D01*
X170257742Y-65441390D01*
X170162504Y-65393771D01*
X170067266Y-65393771D01*
X169972028Y-65441390D01*
X169924409Y-65489009D01*
X169876790Y-65584247D01*
X169829171Y-65774723D01*
X169781552Y-65869961D01*
X169733933Y-65917580D01*
X169638695Y-65965200D01*
X169543457Y-65965200D01*
X169448219Y-65917580D01*
X169400600Y-65869961D01*
X169352980Y-65774723D01*
X169352980Y-65536628D01*
X169400600Y-65393771D01*
X170352980Y-64965200D02*
X169352980Y-64965200D01*
X169352980Y-64584247D01*
X169400600Y-64489009D01*
X169448219Y-64441390D01*
X169543457Y-64393771D01*
X169686314Y-64393771D01*
X169781552Y-64441390D01*
X169829171Y-64489009D01*
X169876790Y-64584247D01*
X169876790Y-64965200D01*
X170352980Y-63965200D02*
X169352980Y-63965200D01*
X170352980Y-62965200D02*
X170352980Y-63536628D01*
X170352980Y-63250914D02*
X169352980Y-63250914D01*
X169495838Y-63346152D01*
X169591076Y-63441390D01*
X169638695Y-63536628D01*
D10*
X185742534Y-88595200D02*
G75*
G03X185742534Y-88595200I-627334J0D01*
G01*
X185322981Y-76708000D02*
G75*
G03X185322981Y-76708000I-283981J0D01*
G01*
X199898000Y-94996000D02*
G75*
G03X199898000Y-94996000I-254000J0D01*
G01*
X199644000Y-75184000D02*
G75*
G03X199644000Y-75184000I-254000J0D01*
G01*
D11*
X203454095Y-78494000D02*
X203358857Y-78446380D01*
X203216000Y-78446380D01*
X203073142Y-78494000D01*
X202977904Y-78589238D01*
X202930285Y-78684476D01*
X202882666Y-78874952D01*
X202882666Y-79017809D01*
X202930285Y-79208285D01*
X202977904Y-79303523D01*
X203073142Y-79398761D01*
X203216000Y-79446380D01*
X203311238Y-79446380D01*
X203454095Y-79398761D01*
X203501714Y-79351142D01*
X203501714Y-79017809D01*
X203311238Y-79017809D01*
X203930285Y-79446380D02*
X203930285Y-78446380D01*
X204501714Y-79446380D01*
X204501714Y-78446380D01*
X204977904Y-79446380D02*
X204977904Y-78446380D01*
X205216000Y-78446380D01*
X205358857Y-78494000D01*
X205454095Y-78589238D01*
X205501714Y-78684476D01*
X205549333Y-78874952D01*
X205549333Y-79017809D01*
X205501714Y-79208285D01*
X205454095Y-79303523D01*
X205358857Y-79398761D01*
X205216000Y-79446380D01*
X204977904Y-79446380D01*
X203962095Y-75906380D02*
X204533523Y-75906380D01*
X204247809Y-76906380D02*
X204247809Y-75906380D01*
X204771619Y-75906380D02*
X205438285Y-76906380D01*
X205438285Y-75906380D02*
X204771619Y-76906380D01*
X204557333Y-74366380D02*
X204224000Y-73890190D01*
X203985904Y-74366380D02*
X203985904Y-73366380D01*
X204366857Y-73366380D01*
X204462095Y-73414000D01*
X204509714Y-73461619D01*
X204557333Y-73556857D01*
X204557333Y-73699714D01*
X204509714Y-73794952D01*
X204462095Y-73842571D01*
X204366857Y-73890190D01*
X203985904Y-73890190D01*
X204890666Y-73366380D02*
X205557333Y-74366380D01*
X205557333Y-73366380D02*
X204890666Y-74366380D01*
X203231904Y-70826380D02*
X203850952Y-70826380D01*
X203517619Y-71207333D01*
X203660476Y-71207333D01*
X203755714Y-71254952D01*
X203803333Y-71302571D01*
X203850952Y-71397809D01*
X203850952Y-71635904D01*
X203803333Y-71731142D01*
X203755714Y-71778761D01*
X203660476Y-71826380D01*
X203374761Y-71826380D01*
X203279523Y-71778761D01*
X203231904Y-71731142D01*
X204136666Y-70826380D02*
X204470000Y-71826380D01*
X204803333Y-70826380D01*
X205041428Y-70826380D02*
X205660476Y-70826380D01*
X205327142Y-71207333D01*
X205470000Y-71207333D01*
X205565238Y-71254952D01*
X205612857Y-71302571D01*
X205660476Y-71397809D01*
X205660476Y-71635904D01*
X205612857Y-71731142D01*
X205565238Y-71778761D01*
X205470000Y-71826380D01*
X205184285Y-71826380D01*
X205089047Y-71778761D01*
X205041428Y-71731142D01*
X165488095Y-59000000D02*
X165392857Y-58952380D01*
X165250000Y-58952380D01*
X165107142Y-59000000D01*
X165011904Y-59095238D01*
X164964285Y-59190476D01*
X164916666Y-59380952D01*
X164916666Y-59523809D01*
X164964285Y-59714285D01*
X165011904Y-59809523D01*
X165107142Y-59904761D01*
X165250000Y-59952380D01*
X165345238Y-59952380D01*
X165488095Y-59904761D01*
X165535714Y-59857142D01*
X165535714Y-59523809D01*
X165345238Y-59523809D01*
X165964285Y-59952380D02*
X165964285Y-58952380D01*
X166535714Y-59952380D01*
X166535714Y-58952380D01*
X167011904Y-59952380D02*
X167011904Y-58952380D01*
X167250000Y-58952380D01*
X167392857Y-59000000D01*
X167488095Y-59095238D01*
X167535714Y-59190476D01*
X167583333Y-59380952D01*
X167583333Y-59523809D01*
X167535714Y-59714285D01*
X167488095Y-59809523D01*
X167392857Y-59904761D01*
X167250000Y-59952380D01*
X167011904Y-59952380D01*
X199654761Y-100202380D02*
X199654761Y-99202380D01*
X200035714Y-99202380D01*
X200130952Y-99250000D01*
X200178571Y-99297619D01*
X200226190Y-99392857D01*
X200226190Y-99535714D01*
X200178571Y-99630952D01*
X200130952Y-99678571D01*
X200035714Y-99726190D01*
X199654761Y-99726190D01*
X200845238Y-99202380D02*
X201035714Y-99202380D01*
X201130952Y-99250000D01*
X201226190Y-99345238D01*
X201273809Y-99535714D01*
X201273809Y-99869047D01*
X201226190Y-100059523D01*
X201130952Y-100154761D01*
X201035714Y-100202380D01*
X200845238Y-100202380D01*
X200750000Y-100154761D01*
X200654761Y-100059523D01*
X200607142Y-99869047D01*
X200607142Y-99535714D01*
X200654761Y-99345238D01*
X200750000Y-99250000D01*
X200845238Y-99202380D01*
X201607142Y-99202380D02*
X201845238Y-100202380D01*
X202035714Y-99488095D01*
X202226190Y-100202380D01*
X202464285Y-99202380D01*
X202845238Y-99678571D02*
X203178571Y-99678571D01*
X203321428Y-100202380D02*
X202845238Y-100202380D01*
X202845238Y-99202380D01*
X203321428Y-99202380D01*
X204321428Y-100202380D02*
X203988095Y-99726190D01*
X203750000Y-100202380D02*
X203750000Y-99202380D01*
X204130952Y-99202380D01*
X204226190Y-99250000D01*
X204273809Y-99297619D01*
X204321428Y-99392857D01*
X204321428Y-99535714D01*
X204273809Y-99630952D01*
X204226190Y-99678571D01*
X204130952Y-99726190D01*
X203750000Y-99726190D01*
X204511904Y-100297619D02*
X205273809Y-100297619D01*
X205511904Y-100202380D02*
X205511904Y-99202380D01*
X205892857Y-99202380D01*
X205988095Y-99250000D01*
X206035714Y-99297619D01*
X206083333Y-99392857D01*
X206083333Y-99535714D01*
X206035714Y-99630952D01*
X205988095Y-99678571D01*
X205892857Y-99726190D01*
X205511904Y-99726190D01*
X206702380Y-99202380D02*
X206892857Y-99202380D01*
X206988095Y-99250000D01*
X207083333Y-99345238D01*
X207130952Y-99535714D01*
X207130952Y-99869047D01*
X207083333Y-100059523D01*
X206988095Y-100154761D01*
X206892857Y-100202380D01*
X206702380Y-100202380D01*
X206607142Y-100154761D01*
X206511904Y-100059523D01*
X206464285Y-99869047D01*
X206464285Y-99535714D01*
X206511904Y-99345238D01*
X206607142Y-99250000D01*
X206702380Y-99202380D01*
X208130952Y-100202380D02*
X207797619Y-99726190D01*
X207559523Y-100202380D02*
X207559523Y-99202380D01*
X207940476Y-99202380D01*
X208035714Y-99250000D01*
X208083333Y-99297619D01*
X208130952Y-99392857D01*
X208130952Y-99535714D01*
X208083333Y-99630952D01*
X208035714Y-99678571D01*
X207940476Y-99726190D01*
X207559523Y-99726190D01*
X208416666Y-99202380D02*
X208988095Y-99202380D01*
X208702380Y-100202380D02*
X208702380Y-99202380D01*
X204000000Y-96761904D02*
X203952380Y-96857142D01*
X203952380Y-97000000D01*
X204000000Y-97142857D01*
X204095238Y-97238095D01*
X204190476Y-97285714D01*
X204380952Y-97333333D01*
X204523809Y-97333333D01*
X204714285Y-97285714D01*
X204809523Y-97238095D01*
X204904761Y-97142857D01*
X204952380Y-97000000D01*
X204952380Y-96904761D01*
X204904761Y-96761904D01*
X204857142Y-96714285D01*
X204523809Y-96714285D01*
X204523809Y-96904761D01*
X204952380Y-96285714D02*
X203952380Y-96285714D01*
X204952380Y-95714285D01*
X203952380Y-95714285D01*
X204952380Y-95238095D02*
X203952380Y-95238095D01*
X203952380Y-95000000D01*
X204000000Y-94857142D01*
X204095238Y-94761904D01*
X204190476Y-94714285D01*
X204380952Y-94666666D01*
X204523809Y-94666666D01*
X204714285Y-94714285D01*
X204809523Y-94761904D01*
X204904761Y-94857142D01*
X204952380Y-95000000D01*
X204952380Y-95238095D01*
X203500000Y-93202380D02*
X203500000Y-92202380D01*
X203976190Y-93202380D02*
X203976190Y-92202380D01*
X204547619Y-93202380D01*
X204547619Y-92202380D01*
X204928571Y-92202380D02*
X205547619Y-92202380D01*
X205214285Y-92583333D01*
X205357142Y-92583333D01*
X205452380Y-92630952D01*
X205500000Y-92678571D01*
X205547619Y-92773809D01*
X205547619Y-93011904D01*
X205500000Y-93107142D01*
X205452380Y-93154761D01*
X205357142Y-93202380D01*
X205071428Y-93202380D01*
X204976190Y-93154761D01*
X204928571Y-93107142D01*
X203500000Y-90702380D02*
X203500000Y-89702380D01*
X203976190Y-90702380D02*
X203976190Y-89702380D01*
X204547619Y-90702380D01*
X204547619Y-89702380D01*
X204976190Y-89797619D02*
X205023809Y-89750000D01*
X205119047Y-89702380D01*
X205357142Y-89702380D01*
X205452380Y-89750000D01*
X205500000Y-89797619D01*
X205547619Y-89892857D01*
X205547619Y-89988095D01*
X205500000Y-90130952D01*
X204928571Y-90702380D01*
X205547619Y-90702380D01*
X203500000Y-88202380D02*
X203500000Y-87202380D01*
X203976190Y-88202380D02*
X203976190Y-87202380D01*
X204547619Y-88202380D01*
X204547619Y-87202380D01*
X205547619Y-88202380D02*
X204976190Y-88202380D01*
X205261904Y-88202380D02*
X205261904Y-87202380D01*
X205166666Y-87345238D01*
X205071428Y-87440476D01*
X204976190Y-87488095D01*
X203500000Y-85702380D02*
X203500000Y-84702380D01*
X203976190Y-85702380D02*
X203976190Y-84702380D01*
X204547619Y-85702380D01*
X204547619Y-84702380D01*
X205214285Y-84702380D02*
X205309523Y-84702380D01*
X205404761Y-84750000D01*
X205452380Y-84797619D01*
X205500000Y-84892857D01*
X205547619Y-85083333D01*
X205547619Y-85321428D01*
X205500000Y-85511904D01*
X205452380Y-85607142D01*
X205404761Y-85654761D01*
X205309523Y-85702380D01*
X205214285Y-85702380D01*
X205119047Y-85654761D01*
X205071428Y-85607142D01*
X205023809Y-85511904D01*
X204976190Y-85321428D01*
X204976190Y-85083333D01*
X205023809Y-84892857D01*
X205071428Y-84797619D01*
X205119047Y-84750000D01*
X205214285Y-84702380D01*
X178714285Y-56821428D02*
X179476190Y-56821428D01*
X179095238Y-57202380D02*
X179095238Y-56440476D01*
X180428571Y-56202380D02*
X179952380Y-56202380D01*
X179904761Y-56678571D01*
X179952380Y-56630952D01*
X180047619Y-56583333D01*
X180285714Y-56583333D01*
X180380952Y-56630952D01*
X180428571Y-56678571D01*
X180476190Y-56773809D01*
X180476190Y-57011904D01*
X180428571Y-57107142D01*
X180380952Y-57154761D01*
X180285714Y-57202380D01*
X180047619Y-57202380D01*
X179952380Y-57154761D01*
X179904761Y-57107142D01*
X180761904Y-56202380D02*
X181095238Y-57202380D01*
X181428571Y-56202380D01*
X176952380Y-58738095D02*
X176952380Y-58119047D01*
X177333333Y-58452380D01*
X177333333Y-58309523D01*
X177380952Y-58214285D01*
X177428571Y-58166666D01*
X177523809Y-58119047D01*
X177761904Y-58119047D01*
X177857142Y-58166666D01*
X177904761Y-58214285D01*
X177952380Y-58309523D01*
X177952380Y-58595238D01*
X177904761Y-58690476D01*
X177857142Y-58738095D01*
X176952380Y-57833333D02*
X177952380Y-57500000D01*
X176952380Y-57166666D01*
X176952380Y-56928571D02*
X176952380Y-56309523D01*
X177333333Y-56642857D01*
X177333333Y-56500000D01*
X177380952Y-56404761D01*
X177428571Y-56357142D01*
X177523809Y-56309523D01*
X177761904Y-56309523D01*
X177857142Y-56357142D01*
X177904761Y-56404761D01*
X177952380Y-56500000D01*
X177952380Y-56785714D01*
X177904761Y-56880952D01*
X177857142Y-56928571D01*
X174500000Y-58261904D02*
X174452380Y-58357142D01*
X174452380Y-58500000D01*
X174500000Y-58642857D01*
X174595238Y-58738095D01*
X174690476Y-58785714D01*
X174880952Y-58833333D01*
X175023809Y-58833333D01*
X175214285Y-58785714D01*
X175309523Y-58738095D01*
X175404761Y-58642857D01*
X175452380Y-58500000D01*
X175452380Y-58404761D01*
X175404761Y-58261904D01*
X175357142Y-58214285D01*
X175023809Y-58214285D01*
X175023809Y-58404761D01*
X175452380Y-57785714D02*
X174452380Y-57785714D01*
X175452380Y-57214285D01*
X174452380Y-57214285D01*
X175452380Y-56738095D02*
X174452380Y-56738095D01*
X174452380Y-56500000D01*
X174500000Y-56357142D01*
X174595238Y-56261904D01*
X174690476Y-56214285D01*
X174880952Y-56166666D01*
X175023809Y-56166666D01*
X175214285Y-56214285D01*
X175309523Y-56261904D01*
X175404761Y-56357142D01*
X175452380Y-56500000D01*
X175452380Y-56738095D01*
X172654761Y-60369047D02*
X172702380Y-60226190D01*
X172702380Y-59988095D01*
X172654761Y-59892857D01*
X172607142Y-59845238D01*
X172511904Y-59797619D01*
X172416666Y-59797619D01*
X172321428Y-59845238D01*
X172273809Y-59892857D01*
X172226190Y-59988095D01*
X172178571Y-60178571D01*
X172130952Y-60273809D01*
X172083333Y-60321428D01*
X171988095Y-60369047D01*
X171892857Y-60369047D01*
X171797619Y-60321428D01*
X171750000Y-60273809D01*
X171702380Y-60178571D01*
X171702380Y-59940476D01*
X171750000Y-59797619D01*
X171702380Y-59464285D02*
X172702380Y-59226190D01*
X171988095Y-59035714D01*
X172702380Y-58845238D01*
X171702380Y-58607142D01*
X172702380Y-58226190D02*
X171702380Y-58226190D01*
X171702380Y-57988095D01*
X171750000Y-57845238D01*
X171845238Y-57750000D01*
X171940476Y-57702380D01*
X172130952Y-57654761D01*
X172273809Y-57654761D01*
X172464285Y-57702380D01*
X172559523Y-57750000D01*
X172654761Y-57845238D01*
X172702380Y-57988095D01*
X172702380Y-58226190D01*
X172702380Y-57226190D02*
X171702380Y-57226190D01*
X171702380Y-56559523D02*
X171702380Y-56369047D01*
X171750000Y-56273809D01*
X171845238Y-56178571D01*
X172035714Y-56130952D01*
X172369047Y-56130952D01*
X172559523Y-56178571D01*
X172654761Y-56273809D01*
X172702380Y-56369047D01*
X172702380Y-56559523D01*
X172654761Y-56654761D01*
X172559523Y-56750000D01*
X172369047Y-56797619D01*
X172035714Y-56797619D01*
X171845238Y-56750000D01*
X171750000Y-56654761D01*
X171702380Y-56559523D01*
X170154761Y-60761904D02*
X170202380Y-60619047D01*
X170202380Y-60380952D01*
X170154761Y-60285714D01*
X170107142Y-60238095D01*
X170011904Y-60190476D01*
X169916666Y-60190476D01*
X169821428Y-60238095D01*
X169773809Y-60285714D01*
X169726190Y-60380952D01*
X169678571Y-60571428D01*
X169630952Y-60666666D01*
X169583333Y-60714285D01*
X169488095Y-60761904D01*
X169392857Y-60761904D01*
X169297619Y-60714285D01*
X169250000Y-60666666D01*
X169202380Y-60571428D01*
X169202380Y-60333333D01*
X169250000Y-60190476D01*
X169202380Y-59857142D02*
X170202380Y-59619047D01*
X169488095Y-59428571D01*
X170202380Y-59238095D01*
X169202380Y-59000000D01*
X170107142Y-58047619D02*
X170154761Y-58095238D01*
X170202380Y-58238095D01*
X170202380Y-58333333D01*
X170154761Y-58476190D01*
X170059523Y-58571428D01*
X169964285Y-58619047D01*
X169773809Y-58666666D01*
X169630952Y-58666666D01*
X169440476Y-58619047D01*
X169345238Y-58571428D01*
X169250000Y-58476190D01*
X169202380Y-58333333D01*
X169202380Y-58238095D01*
X169250000Y-58095238D01*
X169297619Y-58047619D01*
X170202380Y-57142857D02*
X170202380Y-57619047D01*
X169202380Y-57619047D01*
X170202380Y-56809523D02*
X169202380Y-56809523D01*
X170202380Y-56238095D02*
X169630952Y-56666666D01*
X169202380Y-56238095D02*
X169773809Y-56809523D01*
X165142857Y-69880952D02*
X165047619Y-69833333D01*
X165000000Y-69785714D01*
X164952380Y-69690476D01*
X164952380Y-69642857D01*
X165000000Y-69547619D01*
X165047619Y-69500000D01*
X165142857Y-69452380D01*
X165333333Y-69452380D01*
X165428571Y-69500000D01*
X165476190Y-69547619D01*
X165523809Y-69642857D01*
X165523809Y-69690476D01*
X165476190Y-69785714D01*
X165428571Y-69833333D01*
X165333333Y-69880952D01*
X165142857Y-69880952D01*
X165047619Y-69928571D01*
X165000000Y-69976190D01*
X164952380Y-70071428D01*
X164952380Y-70261904D01*
X165000000Y-70357142D01*
X165047619Y-70404761D01*
X165142857Y-70452380D01*
X165333333Y-70452380D01*
X165428571Y-70404761D01*
X165476190Y-70357142D01*
X165523809Y-70261904D01*
X165523809Y-70071428D01*
X165476190Y-69976190D01*
X165428571Y-69928571D01*
X165333333Y-69880952D01*
X165952380Y-70452380D02*
X165952380Y-69452380D01*
X166333333Y-69452380D01*
X166428571Y-69500000D01*
X166476190Y-69547619D01*
X166523809Y-69642857D01*
X166523809Y-69785714D01*
X166476190Y-69880952D01*
X166428571Y-69928571D01*
X166333333Y-69976190D01*
X165952380Y-69976190D01*
X166952380Y-70452380D02*
X166952380Y-69452380D01*
X167428571Y-70452380D02*
X167428571Y-69452380D01*
X168000000Y-70452380D01*
X168000000Y-69452380D01*
X168452380Y-78095238D02*
X168452380Y-77428571D01*
X169452380Y-77857142D01*
X169452380Y-77047619D02*
X168452380Y-77047619D01*
X168452380Y-76666666D01*
X168500000Y-76571428D01*
X168547619Y-76523809D01*
X168642857Y-76476190D01*
X168785714Y-76476190D01*
X168880952Y-76523809D01*
X168928571Y-76571428D01*
X168976190Y-76666666D01*
X168976190Y-77047619D01*
X169452380Y-76047619D02*
X168452380Y-76047619D01*
X169452380Y-75571428D02*
X168452380Y-75571428D01*
X169452380Y-75000000D01*
X168452380Y-75000000D01*
X165738095Y-87000000D02*
X165642857Y-86952380D01*
X165500000Y-86952380D01*
X165357142Y-87000000D01*
X165261904Y-87095238D01*
X165214285Y-87190476D01*
X165166666Y-87380952D01*
X165166666Y-87523809D01*
X165214285Y-87714285D01*
X165261904Y-87809523D01*
X165357142Y-87904761D01*
X165500000Y-87952380D01*
X165595238Y-87952380D01*
X165738095Y-87904761D01*
X165785714Y-87857142D01*
X165785714Y-87523809D01*
X165595238Y-87523809D01*
X166214285Y-87952380D02*
X166214285Y-86952380D01*
X166785714Y-87952380D01*
X166785714Y-86952380D01*
X167261904Y-87952380D02*
X167261904Y-86952380D01*
X167500000Y-86952380D01*
X167642857Y-87000000D01*
X167738095Y-87095238D01*
X167785714Y-87190476D01*
X167833333Y-87380952D01*
X167833333Y-87523809D01*
X167785714Y-87714285D01*
X167738095Y-87809523D01*
X167642857Y-87904761D01*
X167500000Y-87952380D01*
X167261904Y-87952380D01*
X165809523Y-85357142D02*
X165761904Y-85404761D01*
X165619047Y-85452380D01*
X165523809Y-85452380D01*
X165380952Y-85404761D01*
X165285714Y-85309523D01*
X165238095Y-85214285D01*
X165190476Y-85023809D01*
X165190476Y-84880952D01*
X165238095Y-84690476D01*
X165285714Y-84595238D01*
X165380952Y-84500000D01*
X165523809Y-84452380D01*
X165619047Y-84452380D01*
X165761904Y-84500000D01*
X165809523Y-84547619D01*
X166238095Y-85452380D02*
X166238095Y-84452380D01*
X166238095Y-84928571D02*
X166809523Y-84928571D01*
X166809523Y-85452380D02*
X166809523Y-84452380D01*
X167714285Y-84785714D02*
X167714285Y-85452380D01*
X167476190Y-84404761D02*
X167238095Y-85119047D01*
X167857142Y-85119047D01*
X165809523Y-82857142D02*
X165761904Y-82904761D01*
X165619047Y-82952380D01*
X165523809Y-82952380D01*
X165380952Y-82904761D01*
X165285714Y-82809523D01*
X165238095Y-82714285D01*
X165190476Y-82523809D01*
X165190476Y-82380952D01*
X165238095Y-82190476D01*
X165285714Y-82095238D01*
X165380952Y-82000000D01*
X165523809Y-81952380D01*
X165619047Y-81952380D01*
X165761904Y-82000000D01*
X165809523Y-82047619D01*
X166238095Y-82952380D02*
X166238095Y-81952380D01*
X166238095Y-82428571D02*
X166809523Y-82428571D01*
X166809523Y-82952380D02*
X166809523Y-81952380D01*
X167190476Y-81952380D02*
X167809523Y-81952380D01*
X167476190Y-82333333D01*
X167619047Y-82333333D01*
X167714285Y-82380952D01*
X167761904Y-82428571D01*
X167809523Y-82523809D01*
X167809523Y-82761904D01*
X167761904Y-82857142D01*
X167714285Y-82904761D01*
X167619047Y-82952380D01*
X167333333Y-82952380D01*
X167238095Y-82904761D01*
X167190476Y-82857142D01*
X165261904Y-93452380D02*
X165261904Y-92452380D01*
X165642857Y-92452380D01*
X165738095Y-92500000D01*
X165785714Y-92547619D01*
X165833333Y-92642857D01*
X165833333Y-92785714D01*
X165785714Y-92880952D01*
X165738095Y-92928571D01*
X165642857Y-92976190D01*
X165261904Y-92976190D01*
X166833333Y-93357142D02*
X166785714Y-93404761D01*
X166642857Y-93452380D01*
X166547619Y-93452380D01*
X166404761Y-93404761D01*
X166309523Y-93309523D01*
X166261904Y-93214285D01*
X166214285Y-93023809D01*
X166214285Y-92880952D01*
X166261904Y-92690476D01*
X166309523Y-92595238D01*
X166404761Y-92500000D01*
X166547619Y-92452380D01*
X166642857Y-92452380D01*
X166785714Y-92500000D01*
X166833333Y-92547619D01*
X167452380Y-92452380D02*
X167547619Y-92452380D01*
X167642857Y-92500000D01*
X167690476Y-92547619D01*
X167738095Y-92642857D01*
X167785714Y-92833333D01*
X167785714Y-93071428D01*
X167738095Y-93261904D01*
X167690476Y-93357142D01*
X167642857Y-93404761D01*
X167547619Y-93452380D01*
X167452380Y-93452380D01*
X167357142Y-93404761D01*
X167309523Y-93357142D01*
X167261904Y-93261904D01*
X167214285Y-93071428D01*
X167214285Y-92833333D01*
X167261904Y-92642857D01*
X167309523Y-92547619D01*
X167357142Y-92500000D01*
X167452380Y-92452380D01*
X165261904Y-95952380D02*
X165261904Y-94952380D01*
X165642857Y-94952380D01*
X165738095Y-95000000D01*
X165785714Y-95047619D01*
X165833333Y-95142857D01*
X165833333Y-95285714D01*
X165785714Y-95380952D01*
X165738095Y-95428571D01*
X165642857Y-95476190D01*
X165261904Y-95476190D01*
X166833333Y-95857142D02*
X166785714Y-95904761D01*
X166642857Y-95952380D01*
X166547619Y-95952380D01*
X166404761Y-95904761D01*
X166309523Y-95809523D01*
X166261904Y-95714285D01*
X166214285Y-95523809D01*
X166214285Y-95380952D01*
X166261904Y-95190476D01*
X166309523Y-95095238D01*
X166404761Y-95000000D01*
X166547619Y-94952380D01*
X166642857Y-94952380D01*
X166785714Y-95000000D01*
X166833333Y-95047619D01*
X167785714Y-95952380D02*
X167214285Y-95952380D01*
X167500000Y-95952380D02*
X167500000Y-94952380D01*
X167404761Y-95095238D01*
X167309523Y-95190476D01*
X167214285Y-95238095D01*
X165261904Y-98452380D02*
X165261904Y-97452380D01*
X165642857Y-97452380D01*
X165738095Y-97500000D01*
X165785714Y-97547619D01*
X165833333Y-97642857D01*
X165833333Y-97785714D01*
X165785714Y-97880952D01*
X165738095Y-97928571D01*
X165642857Y-97976190D01*
X165261904Y-97976190D01*
X166833333Y-98357142D02*
X166785714Y-98404761D01*
X166642857Y-98452380D01*
X166547619Y-98452380D01*
X166404761Y-98404761D01*
X166309523Y-98309523D01*
X166261904Y-98214285D01*
X166214285Y-98023809D01*
X166214285Y-97880952D01*
X166261904Y-97690476D01*
X166309523Y-97595238D01*
X166404761Y-97500000D01*
X166547619Y-97452380D01*
X166642857Y-97452380D01*
X166785714Y-97500000D01*
X166833333Y-97547619D01*
X167214285Y-97547619D02*
X167261904Y-97500000D01*
X167357142Y-97452380D01*
X167595238Y-97452380D01*
X167690476Y-97500000D01*
X167738095Y-97547619D01*
X167785714Y-97642857D01*
X167785714Y-97738095D01*
X167738095Y-97880952D01*
X167166666Y-98452380D01*
X167785714Y-98452380D01*
X165261904Y-100952380D02*
X165261904Y-99952380D01*
X165642857Y-99952380D01*
X165738095Y-100000000D01*
X165785714Y-100047619D01*
X165833333Y-100142857D01*
X165833333Y-100285714D01*
X165785714Y-100380952D01*
X165738095Y-100428571D01*
X165642857Y-100476190D01*
X165261904Y-100476190D01*
X166833333Y-100857142D02*
X166785714Y-100904761D01*
X166642857Y-100952380D01*
X166547619Y-100952380D01*
X166404761Y-100904761D01*
X166309523Y-100809523D01*
X166261904Y-100714285D01*
X166214285Y-100523809D01*
X166214285Y-100380952D01*
X166261904Y-100190476D01*
X166309523Y-100095238D01*
X166404761Y-100000000D01*
X166547619Y-99952380D01*
X166642857Y-99952380D01*
X166785714Y-100000000D01*
X166833333Y-100047619D01*
X167166666Y-99952380D02*
X167785714Y-99952380D01*
X167452380Y-100333333D01*
X167595238Y-100333333D01*
X167690476Y-100380952D01*
X167738095Y-100428571D01*
X167785714Y-100523809D01*
X167785714Y-100761904D01*
X167738095Y-100857142D01*
X167690476Y-100904761D01*
X167595238Y-100952380D01*
X167309523Y-100952380D01*
X167214285Y-100904761D01*
X167166666Y-100857142D01*
X165261904Y-103452380D02*
X165261904Y-102452380D01*
X165642857Y-102452380D01*
X165738095Y-102500000D01*
X165785714Y-102547619D01*
X165833333Y-102642857D01*
X165833333Y-102785714D01*
X165785714Y-102880952D01*
X165738095Y-102928571D01*
X165642857Y-102976190D01*
X165261904Y-102976190D01*
X166833333Y-103357142D02*
X166785714Y-103404761D01*
X166642857Y-103452380D01*
X166547619Y-103452380D01*
X166404761Y-103404761D01*
X166309523Y-103309523D01*
X166261904Y-103214285D01*
X166214285Y-103023809D01*
X166214285Y-102880952D01*
X166261904Y-102690476D01*
X166309523Y-102595238D01*
X166404761Y-102500000D01*
X166547619Y-102452380D01*
X166642857Y-102452380D01*
X166785714Y-102500000D01*
X166833333Y-102547619D01*
X167738095Y-102452380D02*
X167261904Y-102452380D01*
X167214285Y-102928571D01*
X167261904Y-102880952D01*
X167357142Y-102833333D01*
X167595238Y-102833333D01*
X167690476Y-102880952D01*
X167738095Y-102928571D01*
X167785714Y-103023809D01*
X167785714Y-103261904D01*
X167738095Y-103357142D01*
X167690476Y-103404761D01*
X167595238Y-103452380D01*
X167357142Y-103452380D01*
X167261904Y-103404761D01*
X167214285Y-103357142D01*
X165261904Y-105952380D02*
X165261904Y-104952380D01*
X165642857Y-104952380D01*
X165738095Y-105000000D01*
X165785714Y-105047619D01*
X165833333Y-105142857D01*
X165833333Y-105285714D01*
X165785714Y-105380952D01*
X165738095Y-105428571D01*
X165642857Y-105476190D01*
X165261904Y-105476190D01*
X166595238Y-105428571D02*
X166738095Y-105476190D01*
X166785714Y-105523809D01*
X166833333Y-105619047D01*
X166833333Y-105761904D01*
X166785714Y-105857142D01*
X166738095Y-105904761D01*
X166642857Y-105952380D01*
X166261904Y-105952380D01*
X166261904Y-104952380D01*
X166595238Y-104952380D01*
X166690476Y-105000000D01*
X166738095Y-105047619D01*
X166785714Y-105142857D01*
X166785714Y-105238095D01*
X166738095Y-105333333D01*
X166690476Y-105380952D01*
X166595238Y-105428571D01*
X166261904Y-105428571D01*
X167214285Y-105047619D02*
X167261904Y-105000000D01*
X167357142Y-104952380D01*
X167595238Y-104952380D01*
X167690476Y-105000000D01*
X167738095Y-105047619D01*
X167785714Y-105142857D01*
X167785714Y-105238095D01*
X167738095Y-105380952D01*
X167166666Y-105952380D01*
X167785714Y-105952380D01*
X164857142Y-108452380D02*
X164857142Y-107452380D01*
X165238095Y-107452380D01*
X165333333Y-107500000D01*
X165380952Y-107547619D01*
X165428571Y-107642857D01*
X165428571Y-107785714D01*
X165380952Y-107880952D01*
X165333333Y-107928571D01*
X165238095Y-107976190D01*
X164857142Y-107976190D01*
X165809523Y-108166666D02*
X166285714Y-108166666D01*
X165714285Y-108452380D02*
X166047619Y-107452380D01*
X166380952Y-108452380D01*
X167238095Y-108452380D02*
X166666666Y-108452380D01*
X166952380Y-108452380D02*
X166952380Y-107452380D01*
X166857142Y-107595238D01*
X166761904Y-107690476D01*
X166666666Y-107738095D01*
X167857142Y-107452380D02*
X167952380Y-107452380D01*
X168047619Y-107500000D01*
X168095238Y-107547619D01*
X168142857Y-107642857D01*
X168190476Y-107833333D01*
X168190476Y-108071428D01*
X168142857Y-108261904D01*
X168095238Y-108357142D01*
X168047619Y-108404761D01*
X167952380Y-108452380D01*
X167857142Y-108452380D01*
X167761904Y-108404761D01*
X167714285Y-108357142D01*
X167666666Y-108261904D01*
X167619047Y-108071428D01*
X167619047Y-107833333D01*
X167666666Y-107642857D01*
X167714285Y-107547619D01*
X167761904Y-107500000D01*
X167857142Y-107452380D01*
X165261904Y-110952380D02*
X165261904Y-109952380D01*
X165642857Y-109952380D01*
X165738095Y-110000000D01*
X165785714Y-110047619D01*
X165833333Y-110142857D01*
X165833333Y-110285714D01*
X165785714Y-110380952D01*
X165738095Y-110428571D01*
X165642857Y-110476190D01*
X165261904Y-110476190D01*
X166595238Y-110428571D02*
X166738095Y-110476190D01*
X166785714Y-110523809D01*
X166833333Y-110619047D01*
X166833333Y-110761904D01*
X166785714Y-110857142D01*
X166738095Y-110904761D01*
X166642857Y-110952380D01*
X166261904Y-110952380D01*
X166261904Y-109952380D01*
X166595238Y-109952380D01*
X166690476Y-110000000D01*
X166738095Y-110047619D01*
X166785714Y-110142857D01*
X166785714Y-110238095D01*
X166738095Y-110333333D01*
X166690476Y-110380952D01*
X166595238Y-110428571D01*
X166261904Y-110428571D01*
X167738095Y-109952380D02*
X167261904Y-109952380D01*
X167214285Y-110428571D01*
X167261904Y-110380952D01*
X167357142Y-110333333D01*
X167595238Y-110333333D01*
X167690476Y-110380952D01*
X167738095Y-110428571D01*
X167785714Y-110523809D01*
X167785714Y-110761904D01*
X167738095Y-110857142D01*
X167690476Y-110904761D01*
X167595238Y-110952380D01*
X167357142Y-110952380D01*
X167261904Y-110904761D01*
X167214285Y-110857142D01*
D12*
G36*
X184642375Y-82295691D02*
G01*
X184674348Y-82344464D01*
X184703176Y-82423732D01*
X184728349Y-82531845D01*
X184749359Y-82667151D01*
X184761364Y-82777666D01*
X184769754Y-82860848D01*
X184778043Y-82929848D01*
X184785415Y-82978742D01*
X184791056Y-83001606D01*
X184792302Y-83002497D01*
X184935583Y-82929533D01*
X185077240Y-82873470D01*
X185210281Y-82836607D01*
X185327711Y-82821243D01*
X185344634Y-82820933D01*
X185391484Y-82822887D01*
X185413552Y-82831850D01*
X185419839Y-82852473D01*
X185420000Y-82859880D01*
X185409186Y-82905296D01*
X185374576Y-82931036D01*
X185312915Y-82939457D01*
X185310105Y-82939466D01*
X185226671Y-82947331D01*
X185131596Y-82968744D01*
X185033414Y-83000434D01*
X184940660Y-83039131D01*
X184861867Y-83081563D01*
X184805570Y-83124461D01*
X184794110Y-83137228D01*
X184767321Y-83192190D01*
X184759746Y-83242317D01*
X184759892Y-83303533D01*
X184883018Y-83308119D01*
X184953876Y-83308189D01*
X185016758Y-83300894D01*
X185085374Y-83283855D01*
X185156295Y-83260679D01*
X185261390Y-83228613D01*
X185340983Y-83214787D01*
X185398114Y-83219206D01*
X185435820Y-83241875D01*
X185448921Y-83261200D01*
X185455076Y-83282253D01*
X185459773Y-83319797D01*
X185463087Y-83376725D01*
X185465090Y-83455929D01*
X185465855Y-83560300D01*
X185465455Y-83692731D01*
X185463963Y-83856114D01*
X185463958Y-83856565D01*
X185462125Y-83990588D01*
X185459800Y-84114024D01*
X185457111Y-84222725D01*
X185454186Y-84312549D01*
X185451152Y-84379348D01*
X185448139Y-84418978D01*
X185446349Y-84428065D01*
X185419304Y-84444160D01*
X185379432Y-84443844D01*
X185342893Y-84428227D01*
X185334732Y-84420409D01*
X185328515Y-84406061D01*
X185323939Y-84377904D01*
X185320947Y-84332754D01*
X185319482Y-84267427D01*
X185319485Y-84178740D01*
X185320898Y-84063509D01*
X185323663Y-83918550D01*
X185324719Y-83870075D01*
X185328439Y-83718663D01*
X185331359Y-83598049D01*
X185332330Y-83505164D01*
X185330202Y-83436941D01*
X185323826Y-83390313D01*
X185312051Y-83362212D01*
X185293729Y-83349571D01*
X185267709Y-83349322D01*
X185232841Y-83358398D01*
X185187976Y-83373730D01*
X185144188Y-83388416D01*
X185043341Y-83416506D01*
X184963768Y-83427841D01*
X184897317Y-83422435D01*
X184835839Y-83400303D01*
X184814634Y-83388978D01*
X184742667Y-83347830D01*
X184742873Y-83393415D01*
X184739711Y-83429707D01*
X184730843Y-83492367D01*
X184717477Y-83574924D01*
X184700821Y-83670905D01*
X184682085Y-83773835D01*
X184662477Y-83877242D01*
X184643207Y-83974653D01*
X184625481Y-84059595D01*
X184610511Y-84125594D01*
X184599503Y-84166178D01*
X184597606Y-84171367D01*
X184571015Y-84213281D01*
X184541263Y-84224322D01*
X184513224Y-84203692D01*
X184503724Y-84186712D01*
X184498392Y-84164404D01*
X184498373Y-84128785D01*
X184504217Y-84075423D01*
X184516477Y-83999888D01*
X184535703Y-83897747D01*
X184546396Y-83843812D01*
X184568454Y-83730612D01*
X184590160Y-83613679D01*
X184609704Y-83503161D01*
X184625272Y-83409205D01*
X184632265Y-83362800D01*
X184649668Y-83198080D01*
X184657149Y-83027219D01*
X184655055Y-82857729D01*
X184643736Y-82697120D01*
X184623538Y-82552906D01*
X184594810Y-82432596D01*
X184588249Y-82412577D01*
X184568410Y-82346365D01*
X184565012Y-82305285D01*
X184578766Y-82284479D01*
X184607765Y-82279067D01*
X184642375Y-82295691D01*
G37*
X184642375Y-82295691D02*
X184674348Y-82344464D01*
X184703176Y-82423732D01*
X184728349Y-82531845D01*
X184749359Y-82667151D01*
X184761364Y-82777666D01*
X184769754Y-82860848D01*
X184778043Y-82929848D01*
X184785415Y-82978742D01*
X184791056Y-83001606D01*
X184792302Y-83002497D01*
X184935583Y-82929533D01*
X185077240Y-82873470D01*
X185210281Y-82836607D01*
X185327711Y-82821243D01*
X185344634Y-82820933D01*
X185391484Y-82822887D01*
X185413552Y-82831850D01*
X185419839Y-82852473D01*
X185420000Y-82859880D01*
X185409186Y-82905296D01*
X185374576Y-82931036D01*
X185312915Y-82939457D01*
X185310105Y-82939466D01*
X185226671Y-82947331D01*
X185131596Y-82968744D01*
X185033414Y-83000434D01*
X184940660Y-83039131D01*
X184861867Y-83081563D01*
X184805570Y-83124461D01*
X184794110Y-83137228D01*
X184767321Y-83192190D01*
X184759746Y-83242317D01*
X184759892Y-83303533D01*
X184883018Y-83308119D01*
X184953876Y-83308189D01*
X185016758Y-83300894D01*
X185085374Y-83283855D01*
X185156295Y-83260679D01*
X185261390Y-83228613D01*
X185340983Y-83214787D01*
X185398114Y-83219206D01*
X185435820Y-83241875D01*
X185448921Y-83261200D01*
X185455076Y-83282253D01*
X185459773Y-83319797D01*
X185463087Y-83376725D01*
X185465090Y-83455929D01*
X185465855Y-83560300D01*
X185465455Y-83692731D01*
X185463963Y-83856114D01*
X185463958Y-83856565D01*
X185462125Y-83990588D01*
X185459800Y-84114024D01*
X185457111Y-84222725D01*
X185454186Y-84312549D01*
X185451152Y-84379348D01*
X185448139Y-84418978D01*
X185446349Y-84428065D01*
X185419304Y-84444160D01*
X185379432Y-84443844D01*
X185342893Y-84428227D01*
X185334732Y-84420409D01*
X185328515Y-84406061D01*
X185323939Y-84377904D01*
X185320947Y-84332754D01*
X185319482Y-84267427D01*
X185319485Y-84178740D01*
X185320898Y-84063509D01*
X185323663Y-83918550D01*
X185324719Y-83870075D01*
X185328439Y-83718663D01*
X185331359Y-83598049D01*
X185332330Y-83505164D01*
X185330202Y-83436941D01*
X185323826Y-83390313D01*
X185312051Y-83362212D01*
X185293729Y-83349571D01*
X185267709Y-83349322D01*
X185232841Y-83358398D01*
X185187976Y-83373730D01*
X185144188Y-83388416D01*
X185043341Y-83416506D01*
X184963768Y-83427841D01*
X184897317Y-83422435D01*
X184835839Y-83400303D01*
X184814634Y-83388978D01*
X184742667Y-83347830D01*
X184742873Y-83393415D01*
X184739711Y-83429707D01*
X184730843Y-83492367D01*
X184717477Y-83574924D01*
X184700821Y-83670905D01*
X184682085Y-83773835D01*
X184662477Y-83877242D01*
X184643207Y-83974653D01*
X184625481Y-84059595D01*
X184610511Y-84125594D01*
X184599503Y-84166178D01*
X184597606Y-84171367D01*
X184571015Y-84213281D01*
X184541263Y-84224322D01*
X184513224Y-84203692D01*
X184503724Y-84186712D01*
X184498392Y-84164404D01*
X184498373Y-84128785D01*
X184504217Y-84075423D01*
X184516477Y-83999888D01*
X184535703Y-83897747D01*
X184546396Y-83843812D01*
X184568454Y-83730612D01*
X184590160Y-83613679D01*
X184609704Y-83503161D01*
X184625272Y-83409205D01*
X184632265Y-83362800D01*
X184649668Y-83198080D01*
X184657149Y-83027219D01*
X184655055Y-82857729D01*
X184643736Y-82697120D01*
X184623538Y-82552906D01*
X184594810Y-82432596D01*
X184588249Y-82412577D01*
X184568410Y-82346365D01*
X184565012Y-82305285D01*
X184578766Y-82284479D01*
X184607765Y-82279067D01*
X184642375Y-82295691D01*
G36*
X183647096Y-82158726D02*
G01*
X183675904Y-82171137D01*
X183701191Y-82190168D01*
X183705940Y-82194500D01*
X183736799Y-82233087D01*
X183758437Y-82285008D01*
X183771149Y-82353915D01*
X183775232Y-82443461D01*
X183770981Y-82557298D01*
X183758692Y-82699077D01*
X183751906Y-82761667D01*
X183742088Y-82858216D01*
X183734064Y-82955668D01*
X183728694Y-83042290D01*
X183726836Y-83103357D01*
X183723163Y-83183837D01*
X183712142Y-83233606D01*
X183702313Y-83249268D01*
X183669689Y-83264026D01*
X183604596Y-83276234D01*
X183508353Y-83285646D01*
X183507580Y-83285701D01*
X183337200Y-83297781D01*
X183337200Y-83655564D01*
X183451500Y-83644402D01*
X183605115Y-83630682D01*
X183728664Y-83622833D01*
X183825476Y-83621093D01*
X183898879Y-83625700D01*
X183952202Y-83636893D01*
X183988775Y-83654909D01*
X184011925Y-83679986D01*
X184014603Y-83684663D01*
X184027002Y-83729853D01*
X184010788Y-83760775D01*
X183968854Y-83775570D01*
X183904097Y-83772384D01*
X183884004Y-83768409D01*
X183851694Y-83762245D01*
X183816966Y-83758613D01*
X183774306Y-83757656D01*
X183718200Y-83759518D01*
X183643135Y-83764341D01*
X183543597Y-83772269D01*
X183459967Y-83779433D01*
X183337200Y-83790112D01*
X183337804Y-83919356D01*
X183339751Y-83996997D01*
X183344413Y-84091719D01*
X183350918Y-84186929D01*
X183353504Y-84217685D01*
X183359270Y-84316045D01*
X183355539Y-84383452D01*
X183341415Y-84421710D01*
X183316005Y-84432621D01*
X183278412Y-84417990D01*
X183260197Y-84405707D01*
X183240614Y-84374041D01*
X183225160Y-84310438D01*
X183213780Y-84214459D01*
X183206422Y-84085668D01*
X183203208Y-83942767D01*
X183201734Y-83803067D01*
X182960433Y-83802111D01*
X182859279Y-83800236D01*
X182771174Y-83795773D01*
X182703028Y-83789211D01*
X182661747Y-83781039D01*
X182661474Y-83780944D01*
X182614722Y-83755422D01*
X182570145Y-83716391D01*
X182535009Y-83672394D01*
X182516580Y-83631973D01*
X182517153Y-83611261D01*
X182536981Y-83586809D01*
X182569212Y-83589662D01*
X182616657Y-83620284D01*
X182627885Y-83629500D01*
X182650118Y-83647277D01*
X182671835Y-83659969D01*
X182699132Y-83668582D01*
X182738101Y-83674125D01*
X182794839Y-83677605D01*
X182875438Y-83680028D01*
X182942451Y-83681492D01*
X183201734Y-83686917D01*
X183201734Y-83295066D01*
X183050130Y-83295066D01*
X182963540Y-83293851D01*
X182898658Y-83287274D01*
X182851489Y-83270942D01*
X182818040Y-83240458D01*
X182794318Y-83191428D01*
X182776327Y-83119457D01*
X182760076Y-83020150D01*
X182752583Y-82967633D01*
X182737958Y-82871518D01*
X182720568Y-82769194D01*
X182703137Y-82676262D01*
X182694488Y-82634667D01*
X182671108Y-82523956D01*
X182666859Y-82500664D01*
X182772267Y-82500664D01*
X182777161Y-82530464D01*
X182789181Y-82586484D01*
X182806824Y-82662197D01*
X182828584Y-82751076D01*
X182844134Y-82812467D01*
X182867570Y-82905832D01*
X182887647Y-82989731D01*
X182902920Y-83057801D01*
X182911941Y-83103676D01*
X182913767Y-83118678D01*
X182918735Y-83152575D01*
X182925156Y-83165244D01*
X182946324Y-83170537D01*
X182992411Y-83174500D01*
X183054477Y-83176444D01*
X183071574Y-83176533D01*
X183206703Y-83176533D01*
X183195815Y-83053766D01*
X183188009Y-82971252D01*
X183179810Y-82916703D01*
X183167861Y-82884348D01*
X183148804Y-82868415D01*
X183119282Y-82863132D01*
X183084663Y-82862701D01*
X183011184Y-82854257D01*
X182965145Y-82828782D01*
X182947838Y-82787027D01*
X182947733Y-82782829D01*
X182951986Y-82761243D01*
X182970944Y-82754614D01*
X183011233Y-82759025D01*
X183064371Y-82763201D01*
X183109760Y-82759908D01*
X183113547Y-82759027D01*
X183136815Y-82749632D01*
X183146084Y-82731129D01*
X183144544Y-82693462D01*
X183141591Y-82670605D01*
X183132020Y-82613152D01*
X183118772Y-82548516D01*
X183104116Y-82486179D01*
X183090323Y-82435625D01*
X183079663Y-82406337D01*
X183077604Y-82403293D01*
X183058640Y-82403109D01*
X183014528Y-82409294D01*
X182953129Y-82420638D01*
X182919792Y-82427568D01*
X182848744Y-82443501D01*
X182804721Y-82456095D01*
X182781495Y-82468436D01*
X182772840Y-82483607D01*
X182772267Y-82500664D01*
X182666859Y-82500664D01*
X182656131Y-82441861D01*
X182649217Y-82384277D01*
X182649496Y-82371458D01*
X183172315Y-82371458D01*
X183175237Y-82387694D01*
X183186944Y-82426494D01*
X183200434Y-82466530D01*
X183221530Y-82535743D01*
X183238881Y-82607912D01*
X183244507Y-82639108D01*
X183254272Y-82688166D01*
X183265565Y-82721496D01*
X183270810Y-82728630D01*
X183293590Y-82729302D01*
X183338599Y-82722199D01*
X183388565Y-82710720D01*
X183467741Y-82694564D01*
X183520175Y-82695037D01*
X183548991Y-82712795D01*
X183557334Y-82746237D01*
X183551902Y-82774074D01*
X183531960Y-82795320D01*
X183492039Y-82812862D01*
X183426670Y-82829583D01*
X183382191Y-82838644D01*
X183327305Y-82850558D01*
X183299026Y-82861811D01*
X183290461Y-82876723D01*
X183293238Y-82894427D01*
X183300694Y-82931867D01*
X183308853Y-82987690D01*
X183313161Y-83024133D01*
X183320884Y-83091743D01*
X183330537Y-83132286D01*
X183348508Y-83152266D01*
X183381183Y-83158189D01*
X183434951Y-83156560D01*
X183442814Y-83156180D01*
X183548867Y-83151133D01*
X183543263Y-83086786D01*
X183543870Y-83039393D01*
X183552562Y-83005224D01*
X183555003Y-83001541D01*
X183564621Y-82975403D01*
X183575668Y-82922363D01*
X183587307Y-82849308D01*
X183598701Y-82763125D01*
X183609012Y-82670704D01*
X183617401Y-82578931D01*
X183623032Y-82494695D01*
X183625067Y-82425470D01*
X183622827Y-82361587D01*
X183616869Y-82312784D01*
X183608334Y-82287908D01*
X183607183Y-82286945D01*
X183587060Y-82287350D01*
X183541701Y-82293607D01*
X183478927Y-82304197D01*
X183406557Y-82317600D01*
X183332409Y-82332295D01*
X183264303Y-82346765D01*
X183210059Y-82359488D01*
X183177496Y-82368946D01*
X183172315Y-82371458D01*
X182649496Y-82371458D01*
X182650027Y-82347101D01*
X182658223Y-82326228D01*
X182668419Y-82319024D01*
X182703808Y-82318340D01*
X182734120Y-82328824D01*
X182750594Y-82334243D01*
X182775196Y-82335250D01*
X182811979Y-82331063D01*
X182864993Y-82320901D01*
X182938290Y-82303984D01*
X183035922Y-82279530D01*
X183161938Y-82246758D01*
X183168082Y-82245143D01*
X183305101Y-82209635D01*
X183413717Y-82183090D01*
X183498078Y-82165117D01*
X183562330Y-82155326D01*
X183610620Y-82153326D01*
X183647096Y-82158726D01*
G37*
X183647096Y-82158726D02*
X183675904Y-82171137D01*
X183701191Y-82190168D01*
X183705940Y-82194500D01*
X183736799Y-82233087D01*
X183758437Y-82285008D01*
X183771149Y-82353915D01*
X183775232Y-82443461D01*
X183770981Y-82557298D01*
X183758692Y-82699077D01*
X183751906Y-82761667D01*
X183742088Y-82858216D01*
X183734064Y-82955668D01*
X183728694Y-83042290D01*
X183726836Y-83103357D01*
X183723163Y-83183837D01*
X183712142Y-83233606D01*
X183702313Y-83249268D01*
X183669689Y-83264026D01*
X183604596Y-83276234D01*
X183508353Y-83285646D01*
X183507580Y-83285701D01*
X183337200Y-83297781D01*
X183337200Y-83655564D01*
X183451500Y-83644402D01*
X183605115Y-83630682D01*
X183728664Y-83622833D01*
X183825476Y-83621093D01*
X183898879Y-83625700D01*
X183952202Y-83636893D01*
X183988775Y-83654909D01*
X184011925Y-83679986D01*
X184014603Y-83684663D01*
X184027002Y-83729853D01*
X184010788Y-83760775D01*
X183968854Y-83775570D01*
X183904097Y-83772384D01*
X183884004Y-83768409D01*
X183851694Y-83762245D01*
X183816966Y-83758613D01*
X183774306Y-83757656D01*
X183718200Y-83759518D01*
X183643135Y-83764341D01*
X183543597Y-83772269D01*
X183459967Y-83779433D01*
X183337200Y-83790112D01*
X183337804Y-83919356D01*
X183339751Y-83996997D01*
X183344413Y-84091719D01*
X183350918Y-84186929D01*
X183353504Y-84217685D01*
X183359270Y-84316045D01*
X183355539Y-84383452D01*
X183341415Y-84421710D01*
X183316005Y-84432621D01*
X183278412Y-84417990D01*
X183260197Y-84405707D01*
X183240614Y-84374041D01*
X183225160Y-84310438D01*
X183213780Y-84214459D01*
X183206422Y-84085668D01*
X183203208Y-83942767D01*
X183201734Y-83803067D01*
X182960433Y-83802111D01*
X182859279Y-83800236D01*
X182771174Y-83795773D01*
X182703028Y-83789211D01*
X182661747Y-83781039D01*
X182661474Y-83780944D01*
X182614722Y-83755422D01*
X182570145Y-83716391D01*
X182535009Y-83672394D01*
X182516580Y-83631973D01*
X182517153Y-83611261D01*
X182536981Y-83586809D01*
X182569212Y-83589662D01*
X182616657Y-83620284D01*
X182627885Y-83629500D01*
X182650118Y-83647277D01*
X182671835Y-83659969D01*
X182699132Y-83668582D01*
X182738101Y-83674125D01*
X182794839Y-83677605D01*
X182875438Y-83680028D01*
X182942451Y-83681492D01*
X183201734Y-83686917D01*
X183201734Y-83295066D01*
X183050130Y-83295066D01*
X182963540Y-83293851D01*
X182898658Y-83287274D01*
X182851489Y-83270942D01*
X182818040Y-83240458D01*
X182794318Y-83191428D01*
X182776327Y-83119457D01*
X182760076Y-83020150D01*
X182752583Y-82967633D01*
X182737958Y-82871518D01*
X182720568Y-82769194D01*
X182703137Y-82676262D01*
X182694488Y-82634667D01*
X182671108Y-82523956D01*
X182666859Y-82500664D01*
X182772267Y-82500664D01*
X182777161Y-82530464D01*
X182789181Y-82586484D01*
X182806824Y-82662197D01*
X182828584Y-82751076D01*
X182844134Y-82812467D01*
X182867570Y-82905832D01*
X182887647Y-82989731D01*
X182902920Y-83057801D01*
X182911941Y-83103676D01*
X182913767Y-83118678D01*
X182918735Y-83152575D01*
X182925156Y-83165244D01*
X182946324Y-83170537D01*
X182992411Y-83174500D01*
X183054477Y-83176444D01*
X183071574Y-83176533D01*
X183206703Y-83176533D01*
X183195815Y-83053766D01*
X183188009Y-82971252D01*
X183179810Y-82916703D01*
X183167861Y-82884348D01*
X183148804Y-82868415D01*
X183119282Y-82863132D01*
X183084663Y-82862701D01*
X183011184Y-82854257D01*
X182965145Y-82828782D01*
X182947838Y-82787027D01*
X182947733Y-82782829D01*
X182951986Y-82761243D01*
X182970944Y-82754614D01*
X183011233Y-82759025D01*
X183064371Y-82763201D01*
X183109760Y-82759908D01*
X183113547Y-82759027D01*
X183136815Y-82749632D01*
X183146084Y-82731129D01*
X183144544Y-82693462D01*
X183141591Y-82670605D01*
X183132020Y-82613152D01*
X183118772Y-82548516D01*
X183104116Y-82486179D01*
X183090323Y-82435625D01*
X183079663Y-82406337D01*
X183077604Y-82403293D01*
X183058640Y-82403109D01*
X183014528Y-82409294D01*
X182953129Y-82420638D01*
X182919792Y-82427568D01*
X182848744Y-82443501D01*
X182804721Y-82456095D01*
X182781495Y-82468436D01*
X182772840Y-82483607D01*
X182772267Y-82500664D01*
X182666859Y-82500664D01*
X182656131Y-82441861D01*
X182649217Y-82384277D01*
X182649496Y-82371458D01*
X183172315Y-82371458D01*
X183175237Y-82387694D01*
X183186944Y-82426494D01*
X183200434Y-82466530D01*
X183221530Y-82535743D01*
X183238881Y-82607912D01*
X183244507Y-82639108D01*
X183254272Y-82688166D01*
X183265565Y-82721496D01*
X183270810Y-82728630D01*
X183293590Y-82729302D01*
X183338599Y-82722199D01*
X183388565Y-82710720D01*
X183467741Y-82694564D01*
X183520175Y-82695037D01*
X183548991Y-82712795D01*
X183557334Y-82746237D01*
X183551902Y-82774074D01*
X183531960Y-82795320D01*
X183492039Y-82812862D01*
X183426670Y-82829583D01*
X183382191Y-82838644D01*
X183327305Y-82850558D01*
X183299026Y-82861811D01*
X183290461Y-82876723D01*
X183293238Y-82894427D01*
X183300694Y-82931867D01*
X183308853Y-82987690D01*
X183313161Y-83024133D01*
X183320884Y-83091743D01*
X183330537Y-83132286D01*
X183348508Y-83152266D01*
X183381183Y-83158189D01*
X183434951Y-83156560D01*
X183442814Y-83156180D01*
X183548867Y-83151133D01*
X183543263Y-83086786D01*
X183543870Y-83039393D01*
X183552562Y-83005224D01*
X183555003Y-83001541D01*
X183564621Y-82975403D01*
X183575668Y-82922363D01*
X183587307Y-82849308D01*
X183598701Y-82763125D01*
X183609012Y-82670704D01*
X183617401Y-82578931D01*
X183623032Y-82494695D01*
X183625067Y-82425470D01*
X183622827Y-82361587D01*
X183616869Y-82312784D01*
X183608334Y-82287908D01*
X183607183Y-82286945D01*
X183587060Y-82287350D01*
X183541701Y-82293607D01*
X183478927Y-82304197D01*
X183406557Y-82317600D01*
X183332409Y-82332295D01*
X183264303Y-82346765D01*
X183210059Y-82359488D01*
X183177496Y-82368946D01*
X183172315Y-82371458D01*
X182649496Y-82371458D01*
X182650027Y-82347101D01*
X182658223Y-82326228D01*
X182668419Y-82319024D01*
X182703808Y-82318340D01*
X182734120Y-82328824D01*
X182750594Y-82334243D01*
X182775196Y-82335250D01*
X182811979Y-82331063D01*
X182864993Y-82320901D01*
X182938290Y-82303984D01*
X183035922Y-82279530D01*
X183161938Y-82246758D01*
X183168082Y-82245143D01*
X183305101Y-82209635D01*
X183413717Y-82183090D01*
X183498078Y-82165117D01*
X183562330Y-82155326D01*
X183610620Y-82153326D01*
X183647096Y-82158726D01*
G36*
X187540838Y-82504004D02*
G01*
X187545871Y-82505606D01*
X187566383Y-82528558D01*
X187568376Y-82563639D01*
X187551205Y-82594211D01*
X187549367Y-82595678D01*
X187524726Y-82605937D01*
X187474533Y-82621356D01*
X187406358Y-82640032D01*
X187327770Y-82660061D01*
X187246340Y-82679540D01*
X187169637Y-82696565D01*
X187105231Y-82709232D01*
X187083700Y-82712790D01*
X187039853Y-82721610D01*
X187014365Y-82730988D01*
X187011747Y-82734197D01*
X187014946Y-82754867D01*
X187023351Y-82799372D01*
X187035200Y-82858406D01*
X187036200Y-82863266D01*
X187049589Y-82939814D01*
X187062225Y-83031717D01*
X187071603Y-83120509D01*
X187072382Y-83129966D01*
X187078649Y-83195996D01*
X187085446Y-83246875D01*
X187091662Y-83274963D01*
X187093929Y-83278133D01*
X187114317Y-83272584D01*
X187154574Y-83258548D01*
X187176634Y-83250293D01*
X187224416Y-83227430D01*
X187242440Y-83205519D01*
X187241911Y-83195259D01*
X187237413Y-83167115D01*
X187231689Y-83114253D01*
X187225664Y-83045750D01*
X187222737Y-83007200D01*
X187216055Y-82935159D01*
X187207692Y-82875069D01*
X187198985Y-82835568D01*
X187194668Y-82825908D01*
X187186577Y-82798306D01*
X187202998Y-82776454D01*
X187234603Y-82764766D01*
X187272063Y-82767655D01*
X187294256Y-82778789D01*
X187307985Y-82794133D01*
X187317555Y-82820680D01*
X187324047Y-82864668D01*
X187328538Y-82932333D01*
X187330838Y-82990270D01*
X187337323Y-83179744D01*
X187381962Y-83169591D01*
X187481817Y-83151252D01*
X187557476Y-83146787D01*
X187606275Y-83156232D01*
X187619759Y-83166169D01*
X187632512Y-83203390D01*
X187633595Y-83265601D01*
X187623231Y-83346082D01*
X187612053Y-83398527D01*
X187609494Y-83433068D01*
X187628392Y-83449446D01*
X187636746Y-83451975D01*
X187664735Y-83473438D01*
X187671471Y-83508183D01*
X187654691Y-83541454D01*
X187650967Y-83544664D01*
X187624089Y-83557869D01*
X187575842Y-83575193D01*
X187528200Y-83589578D01*
X187400411Y-83626654D01*
X187300876Y-83659340D01*
X187224574Y-83689546D01*
X187166483Y-83719179D01*
X187137317Y-83738169D01*
X187067406Y-83788375D01*
X187057087Y-83934594D01*
X187053298Y-84001326D01*
X187052033Y-84054086D01*
X187053416Y-84084632D01*
X187054738Y-84088782D01*
X187073856Y-84089838D01*
X187118571Y-84086080D01*
X187181074Y-84078272D01*
X187219254Y-84072676D01*
X187375800Y-84048600D01*
X187384267Y-83896200D01*
X187389017Y-83823484D01*
X187394569Y-83778268D01*
X187402640Y-83754197D01*
X187414948Y-83744915D01*
X187425449Y-83743800D01*
X187442814Y-83748613D01*
X187455903Y-83767334D01*
X187467365Y-83806386D01*
X187479846Y-83872190D01*
X187480874Y-83878247D01*
X187492294Y-83941729D01*
X187502476Y-83991038D01*
X187509628Y-84017700D01*
X187510824Y-84019934D01*
X187529972Y-84021363D01*
X187573171Y-84018129D01*
X187630492Y-84011009D01*
X187693859Y-84003332D01*
X187734197Y-84003392D01*
X187761642Y-84012071D01*
X187778775Y-84023877D01*
X187803265Y-84051383D01*
X187801393Y-84081692D01*
X187796992Y-84092439D01*
X187789297Y-84105622D01*
X187776389Y-84116639D01*
X187753968Y-84126536D01*
X187717734Y-84136359D01*
X187663388Y-84147155D01*
X187586629Y-84159969D01*
X187483159Y-84175847D01*
X187408244Y-84187016D01*
X187278810Y-84206207D01*
X187178756Y-84220793D01*
X187103944Y-84231044D01*
X187050241Y-84237230D01*
X187013510Y-84239623D01*
X186989617Y-84238491D01*
X186974426Y-84234106D01*
X186963802Y-84226738D01*
X186953676Y-84216724D01*
X186944118Y-84206161D01*
X186936906Y-84193357D01*
X186932041Y-84174438D01*
X186929524Y-84145533D01*
X186929353Y-84102769D01*
X186931529Y-84042273D01*
X186936053Y-83960175D01*
X186942923Y-83852601D01*
X186952141Y-83715680D01*
X186953683Y-83693000D01*
X186956398Y-83646616D01*
X187068071Y-83646616D01*
X187090504Y-83646113D01*
X187135556Y-83622536D01*
X187157125Y-83608437D01*
X187208528Y-83578869D01*
X187274688Y-83547651D01*
X187319743Y-83529604D01*
X187379525Y-83504913D01*
X187417330Y-83479420D01*
X187444147Y-83444571D01*
X187455257Y-83424149D01*
X187488575Y-83352020D01*
X187506070Y-83298485D01*
X187506790Y-83267235D01*
X187497385Y-83260603D01*
X187474304Y-83265339D01*
X187426042Y-83278685D01*
X187359571Y-83298616D01*
X187281863Y-83323107D01*
X187278773Y-83324103D01*
X187080147Y-83388200D01*
X187079807Y-83492648D01*
X187078022Y-83552671D01*
X187073742Y-83601401D01*
X187069188Y-83623882D01*
X187068071Y-83646616D01*
X186956398Y-83646616D01*
X186965021Y-83499345D01*
X186970464Y-83332644D01*
X186969870Y-83186474D01*
X186963095Y-83054416D01*
X186949997Y-82930047D01*
X186934455Y-82829400D01*
X186923417Y-82765488D01*
X186915035Y-82715414D01*
X186910729Y-82687707D01*
X186910446Y-82685084D01*
X186925772Y-82668627D01*
X186969611Y-82646883D01*
X187037350Y-82621624D01*
X187124377Y-82594619D01*
X187198000Y-82574677D01*
X187310089Y-82546246D01*
X187394069Y-82525692D01*
X187454537Y-82512104D01*
X187496090Y-82504569D01*
X187523325Y-82502173D01*
X187540838Y-82504004D01*
G37*
X187540838Y-82504004D02*
X187545871Y-82505606D01*
X187566383Y-82528558D01*
X187568376Y-82563639D01*
X187551205Y-82594211D01*
X187549367Y-82595678D01*
X187524726Y-82605937D01*
X187474533Y-82621356D01*
X187406358Y-82640032D01*
X187327770Y-82660061D01*
X187246340Y-82679540D01*
X187169637Y-82696565D01*
X187105231Y-82709232D01*
X187083700Y-82712790D01*
X187039853Y-82721610D01*
X187014365Y-82730988D01*
X187011747Y-82734197D01*
X187014946Y-82754867D01*
X187023351Y-82799372D01*
X187035200Y-82858406D01*
X187036200Y-82863266D01*
X187049589Y-82939814D01*
X187062225Y-83031717D01*
X187071603Y-83120509D01*
X187072382Y-83129966D01*
X187078649Y-83195996D01*
X187085446Y-83246875D01*
X187091662Y-83274963D01*
X187093929Y-83278133D01*
X187114317Y-83272584D01*
X187154574Y-83258548D01*
X187176634Y-83250293D01*
X187224416Y-83227430D01*
X187242440Y-83205519D01*
X187241911Y-83195259D01*
X187237413Y-83167115D01*
X187231689Y-83114253D01*
X187225664Y-83045750D01*
X187222737Y-83007200D01*
X187216055Y-82935159D01*
X187207692Y-82875069D01*
X187198985Y-82835568D01*
X187194668Y-82825908D01*
X187186577Y-82798306D01*
X187202998Y-82776454D01*
X187234603Y-82764766D01*
X187272063Y-82767655D01*
X187294256Y-82778789D01*
X187307985Y-82794133D01*
X187317555Y-82820680D01*
X187324047Y-82864668D01*
X187328538Y-82932333D01*
X187330838Y-82990270D01*
X187337323Y-83179744D01*
X187381962Y-83169591D01*
X187481817Y-83151252D01*
X187557476Y-83146787D01*
X187606275Y-83156232D01*
X187619759Y-83166169D01*
X187632512Y-83203390D01*
X187633595Y-83265601D01*
X187623231Y-83346082D01*
X187612053Y-83398527D01*
X187609494Y-83433068D01*
X187628392Y-83449446D01*
X187636746Y-83451975D01*
X187664735Y-83473438D01*
X187671471Y-83508183D01*
X187654691Y-83541454D01*
X187650967Y-83544664D01*
X187624089Y-83557869D01*
X187575842Y-83575193D01*
X187528200Y-83589578D01*
X187400411Y-83626654D01*
X187300876Y-83659340D01*
X187224574Y-83689546D01*
X187166483Y-83719179D01*
X187137317Y-83738169D01*
X187067406Y-83788375D01*
X187057087Y-83934594D01*
X187053298Y-84001326D01*
X187052033Y-84054086D01*
X187053416Y-84084632D01*
X187054738Y-84088782D01*
X187073856Y-84089838D01*
X187118571Y-84086080D01*
X187181074Y-84078272D01*
X187219254Y-84072676D01*
X187375800Y-84048600D01*
X187384267Y-83896200D01*
X187389017Y-83823484D01*
X187394569Y-83778268D01*
X187402640Y-83754197D01*
X187414948Y-83744915D01*
X187425449Y-83743800D01*
X187442814Y-83748613D01*
X187455903Y-83767334D01*
X187467365Y-83806386D01*
X187479846Y-83872190D01*
X187480874Y-83878247D01*
X187492294Y-83941729D01*
X187502476Y-83991038D01*
X187509628Y-84017700D01*
X187510824Y-84019934D01*
X187529972Y-84021363D01*
X187573171Y-84018129D01*
X187630492Y-84011009D01*
X187693859Y-84003332D01*
X187734197Y-84003392D01*
X187761642Y-84012071D01*
X187778775Y-84023877D01*
X187803265Y-84051383D01*
X187801393Y-84081692D01*
X187796992Y-84092439D01*
X187789297Y-84105622D01*
X187776389Y-84116639D01*
X187753968Y-84126536D01*
X187717734Y-84136359D01*
X187663388Y-84147155D01*
X187586629Y-84159969D01*
X187483159Y-84175847D01*
X187408244Y-84187016D01*
X187278810Y-84206207D01*
X187178756Y-84220793D01*
X187103944Y-84231044D01*
X187050241Y-84237230D01*
X187013510Y-84239623D01*
X186989617Y-84238491D01*
X186974426Y-84234106D01*
X186963802Y-84226738D01*
X186953676Y-84216724D01*
X186944118Y-84206161D01*
X186936906Y-84193357D01*
X186932041Y-84174438D01*
X186929524Y-84145533D01*
X186929353Y-84102769D01*
X186931529Y-84042273D01*
X186936053Y-83960175D01*
X186942923Y-83852601D01*
X186952141Y-83715680D01*
X186953683Y-83693000D01*
X186956398Y-83646616D01*
X187068071Y-83646616D01*
X187090504Y-83646113D01*
X187135556Y-83622536D01*
X187157125Y-83608437D01*
X187208528Y-83578869D01*
X187274688Y-83547651D01*
X187319743Y-83529604D01*
X187379525Y-83504913D01*
X187417330Y-83479420D01*
X187444147Y-83444571D01*
X187455257Y-83424149D01*
X187488575Y-83352020D01*
X187506070Y-83298485D01*
X187506790Y-83267235D01*
X187497385Y-83260603D01*
X187474304Y-83265339D01*
X187426042Y-83278685D01*
X187359571Y-83298616D01*
X187281863Y-83323107D01*
X187278773Y-83324103D01*
X187080147Y-83388200D01*
X187079807Y-83492648D01*
X187078022Y-83552671D01*
X187073742Y-83601401D01*
X187069188Y-83623882D01*
X187068071Y-83646616D01*
X186956398Y-83646616D01*
X186965021Y-83499345D01*
X186970464Y-83332644D01*
X186969870Y-83186474D01*
X186963095Y-83054416D01*
X186949997Y-82930047D01*
X186934455Y-82829400D01*
X186923417Y-82765488D01*
X186915035Y-82715414D01*
X186910729Y-82687707D01*
X186910446Y-82685084D01*
X186925772Y-82668627D01*
X186969611Y-82646883D01*
X187037350Y-82621624D01*
X187124377Y-82594619D01*
X187198000Y-82574677D01*
X187310089Y-82546246D01*
X187394069Y-82525692D01*
X187454537Y-82512104D01*
X187496090Y-82504569D01*
X187523325Y-82502173D01*
X187540838Y-82504004D01*
G36*
X186904999Y-83020941D02*
G01*
X186907288Y-83029877D01*
X186898297Y-83068087D01*
X186858659Y-83117610D01*
X186787994Y-83178881D01*
X186756012Y-83203071D01*
X186678091Y-83260396D01*
X186668296Y-83424568D01*
X186664325Y-83489814D01*
X186663312Y-83538268D01*
X186668001Y-83577097D01*
X186681135Y-83613469D01*
X186705459Y-83654552D01*
X186743716Y-83707514D01*
X186798650Y-83779520D01*
X186809707Y-83793991D01*
X186844275Y-83853035D01*
X186856659Y-83904865D01*
X186849464Y-83944417D01*
X186825297Y-83966625D01*
X186786763Y-83966427D01*
X186736468Y-83938757D01*
X186735574Y-83938057D01*
X186704337Y-83905749D01*
X186690013Y-83875676D01*
X186689916Y-83873804D01*
X186679787Y-83842461D01*
X186654982Y-83802095D01*
X186649623Y-83795145D01*
X186609413Y-83744890D01*
X186587628Y-83845945D01*
X186557700Y-83952473D01*
X186519710Y-84035658D01*
X186475920Y-84090795D01*
X186466326Y-84098281D01*
X186426605Y-84118813D01*
X186383919Y-84120884D01*
X186334400Y-84108965D01*
X186238517Y-84069998D01*
X186154424Y-84017433D01*
X186088346Y-83956458D01*
X186046506Y-83892264D01*
X186036648Y-83860728D01*
X186032599Y-83795265D01*
X186165067Y-83795265D01*
X186169443Y-83843639D01*
X186186635Y-83880290D01*
X186222737Y-83912789D01*
X186283843Y-83948706D01*
X186292067Y-83953041D01*
X186350354Y-83979337D01*
X186391579Y-83983939D01*
X186422026Y-83963680D01*
X186447980Y-83915396D01*
X186466119Y-83865386D01*
X186496611Y-83767007D01*
X186513084Y-83692147D01*
X186515834Y-83633630D01*
X186505156Y-83584280D01*
X186481344Y-83536922D01*
X186479734Y-83534352D01*
X186434944Y-83463400D01*
X186338594Y-83541886D01*
X186260184Y-83610445D01*
X186207819Y-83668837D01*
X186177609Y-83722738D01*
X186165668Y-83777825D01*
X186165067Y-83795265D01*
X186032599Y-83795265D01*
X186030747Y-83765331D01*
X186051579Y-83675675D01*
X186100946Y-83588015D01*
X186180646Y-83498606D01*
X186233430Y-83451232D01*
X186302442Y-83392838D01*
X186546048Y-83392838D01*
X186548618Y-83405675D01*
X186561861Y-83428739D01*
X186569884Y-83418884D01*
X186571467Y-83395667D01*
X186565215Y-83372058D01*
X186555273Y-83370809D01*
X186546048Y-83392838D01*
X186302442Y-83392838D01*
X186363387Y-83341271D01*
X186297617Y-83229269D01*
X186255277Y-83146448D01*
X186237807Y-83084841D01*
X186245260Y-83044982D01*
X186277433Y-83027442D01*
X186299855Y-83030877D01*
X186324627Y-83050940D01*
X186356480Y-83092508D01*
X186388811Y-83142244D01*
X186464023Y-83262204D01*
X186513511Y-83224186D01*
X186548309Y-83196536D01*
X186569899Y-83177694D01*
X186571467Y-83176003D01*
X186588036Y-83161836D01*
X186624995Y-83132750D01*
X186675563Y-83094042D01*
X186697791Y-83077271D01*
X186777500Y-83023806D01*
X186839173Y-82996468D01*
X186881956Y-82995449D01*
X186904999Y-83020941D01*
G37*
X186904999Y-83020941D02*
X186907288Y-83029877D01*
X186898297Y-83068087D01*
X186858659Y-83117610D01*
X186787994Y-83178881D01*
X186756012Y-83203071D01*
X186678091Y-83260396D01*
X186668296Y-83424568D01*
X186664325Y-83489814D01*
X186663312Y-83538268D01*
X186668001Y-83577097D01*
X186681135Y-83613469D01*
X186705459Y-83654552D01*
X186743716Y-83707514D01*
X186798650Y-83779520D01*
X186809707Y-83793991D01*
X186844275Y-83853035D01*
X186856659Y-83904865D01*
X186849464Y-83944417D01*
X186825297Y-83966625D01*
X186786763Y-83966427D01*
X186736468Y-83938757D01*
X186735574Y-83938057D01*
X186704337Y-83905749D01*
X186690013Y-83875676D01*
X186689916Y-83873804D01*
X186679787Y-83842461D01*
X186654982Y-83802095D01*
X186649623Y-83795145D01*
X186609413Y-83744890D01*
X186587628Y-83845945D01*
X186557700Y-83952473D01*
X186519710Y-84035658D01*
X186475920Y-84090795D01*
X186466326Y-84098281D01*
X186426605Y-84118813D01*
X186383919Y-84120884D01*
X186334400Y-84108965D01*
X186238517Y-84069998D01*
X186154424Y-84017433D01*
X186088346Y-83956458D01*
X186046506Y-83892264D01*
X186036648Y-83860728D01*
X186032599Y-83795265D01*
X186165067Y-83795265D01*
X186169443Y-83843639D01*
X186186635Y-83880290D01*
X186222737Y-83912789D01*
X186283843Y-83948706D01*
X186292067Y-83953041D01*
X186350354Y-83979337D01*
X186391579Y-83983939D01*
X186422026Y-83963680D01*
X186447980Y-83915396D01*
X186466119Y-83865386D01*
X186496611Y-83767007D01*
X186513084Y-83692147D01*
X186515834Y-83633630D01*
X186505156Y-83584280D01*
X186481344Y-83536922D01*
X186479734Y-83534352D01*
X186434944Y-83463400D01*
X186338594Y-83541886D01*
X186260184Y-83610445D01*
X186207819Y-83668837D01*
X186177609Y-83722738D01*
X186165668Y-83777825D01*
X186165067Y-83795265D01*
X186032599Y-83795265D01*
X186030747Y-83765331D01*
X186051579Y-83675675D01*
X186100946Y-83588015D01*
X186180646Y-83498606D01*
X186233430Y-83451232D01*
X186302442Y-83392838D01*
X186546048Y-83392838D01*
X186548618Y-83405675D01*
X186561861Y-83428739D01*
X186569884Y-83418884D01*
X186571467Y-83395667D01*
X186565215Y-83372058D01*
X186555273Y-83370809D01*
X186546048Y-83392838D01*
X186302442Y-83392838D01*
X186363387Y-83341271D01*
X186297617Y-83229269D01*
X186255277Y-83146448D01*
X186237807Y-83084841D01*
X186245260Y-83044982D01*
X186277433Y-83027442D01*
X186299855Y-83030877D01*
X186324627Y-83050940D01*
X186356480Y-83092508D01*
X186388811Y-83142244D01*
X186464023Y-83262204D01*
X186513511Y-83224186D01*
X186548309Y-83196536D01*
X186569899Y-83177694D01*
X186571467Y-83176003D01*
X186588036Y-83161836D01*
X186624995Y-83132750D01*
X186675563Y-83094042D01*
X186697791Y-83077271D01*
X186777500Y-83023806D01*
X186839173Y-82996468D01*
X186881956Y-82995449D01*
X186904999Y-83020941D01*
G36*
X185109489Y-82158147D02*
G01*
X185125423Y-82178888D01*
X185137089Y-82218041D01*
X185145193Y-82279356D01*
X185150439Y-82366584D01*
X185153534Y-82483476D01*
X185153780Y-82498755D01*
X185154836Y-82595780D01*
X185154227Y-82664005D01*
X185151487Y-82708477D01*
X185146148Y-82734243D01*
X185137742Y-82746347D01*
X185130576Y-82749248D01*
X185099027Y-82741826D01*
X185079869Y-82726035D01*
X185070337Y-82706103D01*
X185063537Y-82669894D01*
X185059120Y-82612968D01*
X185056733Y-82530888D01*
X185056026Y-82424742D01*
X185056210Y-82322985D01*
X185057229Y-82250246D01*
X185059660Y-82201679D01*
X185064083Y-82172437D01*
X185071076Y-82157673D01*
X185081219Y-82152541D01*
X185088582Y-82152066D01*
X185109489Y-82158147D01*
G37*
X185109489Y-82158147D02*
X185125423Y-82178888D01*
X185137089Y-82218041D01*
X185145193Y-82279356D01*
X185150439Y-82366584D01*
X185153534Y-82483476D01*
X185153780Y-82498755D01*
X185154836Y-82595780D01*
X185154227Y-82664005D01*
X185151487Y-82708477D01*
X185146148Y-82734243D01*
X185137742Y-82746347D01*
X185130576Y-82749248D01*
X185099027Y-82741826D01*
X185079869Y-82726035D01*
X185070337Y-82706103D01*
X185063537Y-82669894D01*
X185059120Y-82612968D01*
X185056733Y-82530888D01*
X185056026Y-82424742D01*
X185056210Y-82322985D01*
X185057229Y-82250246D01*
X185059660Y-82201679D01*
X185064083Y-82172437D01*
X185071076Y-82157673D01*
X185081219Y-82152541D01*
X185088582Y-82152066D01*
X185109489Y-82158147D01*
G36*
X183551224Y-81559438D02*
G01*
X183556249Y-81587363D01*
X183549436Y-81620624D01*
X183528500Y-81663039D01*
X183491153Y-81718430D01*
X183435110Y-81790618D01*
X183358085Y-81883423D01*
X183355578Y-81886386D01*
X183268118Y-81987376D01*
X183188905Y-82074265D01*
X183120662Y-82144333D01*
X183066109Y-82194858D01*
X183027969Y-82223118D01*
X183013628Y-82228266D01*
X182992826Y-82217581D01*
X182974187Y-82201501D01*
X182957708Y-82172652D01*
X182959430Y-82154935D01*
X182973988Y-82137038D01*
X183007941Y-82098141D01*
X183057772Y-82042180D01*
X183119965Y-81973097D01*
X183191005Y-81894830D01*
X183218948Y-81864200D01*
X183292477Y-81782928D01*
X183358352Y-81708625D01*
X183413047Y-81645389D01*
X183453038Y-81597318D01*
X183474801Y-81568508D01*
X183477498Y-81563633D01*
X183499812Y-81538613D01*
X183529493Y-81537119D01*
X183551224Y-81559438D01*
G37*
X183551224Y-81559438D02*
X183556249Y-81587363D01*
X183549436Y-81620624D01*
X183528500Y-81663039D01*
X183491153Y-81718430D01*
X183435110Y-81790618D01*
X183358085Y-81883423D01*
X183355578Y-81886386D01*
X183268118Y-81987376D01*
X183188905Y-82074265D01*
X183120662Y-82144333D01*
X183066109Y-82194858D01*
X183027969Y-82223118D01*
X183013628Y-82228266D01*
X182992826Y-82217581D01*
X182974187Y-82201501D01*
X182957708Y-82172652D01*
X182959430Y-82154935D01*
X182973988Y-82137038D01*
X183007941Y-82098141D01*
X183057772Y-82042180D01*
X183119965Y-81973097D01*
X183191005Y-81894830D01*
X183218948Y-81864200D01*
X183292477Y-81782928D01*
X183358352Y-81708625D01*
X183413047Y-81645389D01*
X183453038Y-81597318D01*
X183474801Y-81568508D01*
X183477498Y-81563633D01*
X183499812Y-81538613D01*
X183529493Y-81537119D01*
X183551224Y-81559438D01*
G36*
X182759550Y-81604366D02*
G01*
X182777698Y-81617303D01*
X182815639Y-81648441D01*
X182868032Y-81693279D01*
X182929539Y-81747314D01*
X182937201Y-81754133D01*
X183013016Y-81824128D01*
X183063795Y-81877787D01*
X183091803Y-81918819D01*
X183099302Y-81950933D01*
X183088556Y-81977837D01*
X183079813Y-81987813D01*
X183055141Y-82005630D01*
X183046327Y-82008133D01*
X183029702Y-81997261D01*
X182993298Y-81967455D01*
X182942053Y-81922936D01*
X182880906Y-81867921D01*
X182863447Y-81851914D01*
X182801144Y-81792601D01*
X182749123Y-81739336D01*
X182712031Y-81697161D01*
X182694511Y-81671115D01*
X182693734Y-81667721D01*
X182705210Y-81635492D01*
X182731139Y-81610196D01*
X182758775Y-81604104D01*
X182759550Y-81604366D01*
G37*
X182759550Y-81604366D02*
X182777698Y-81617303D01*
X182815639Y-81648441D01*
X182868032Y-81693279D01*
X182929539Y-81747314D01*
X182937201Y-81754133D01*
X183013016Y-81824128D01*
X183063795Y-81877787D01*
X183091803Y-81918819D01*
X183099302Y-81950933D01*
X183088556Y-81977837D01*
X183079813Y-81987813D01*
X183055141Y-82005630D01*
X183046327Y-82008133D01*
X183029702Y-81997261D01*
X182993298Y-81967455D01*
X182942053Y-81922936D01*
X182880906Y-81867921D01*
X182863447Y-81851914D01*
X182801144Y-81792601D01*
X182749123Y-81739336D01*
X182712031Y-81697161D01*
X182694511Y-81671115D01*
X182693734Y-81667721D01*
X182705210Y-81635492D01*
X182731139Y-81610196D01*
X182758775Y-81604104D01*
X182759550Y-81604366D01*
D10*
X194410000Y-75662779D02*
X194410000Y-75337221D01*
X193390000Y-75662779D02*
X193390000Y-75337221D01*
X207141422Y-60010000D02*
X207658578Y-60010000D01*
X207141422Y-58590000D02*
X207658578Y-58590000D01*
X176240000Y-94837221D02*
X176240000Y-95162779D01*
X177260000Y-94837221D02*
X177260000Y-95162779D01*
X190680000Y-63040000D02*
X190680000Y-64500000D01*
X187520000Y-63040000D02*
X187520000Y-65200000D01*
X187520000Y-63040000D02*
X188450000Y-63040000D01*
X190680000Y-63040000D02*
X189750000Y-63040000D01*
X183080000Y-63040000D02*
X183080000Y-64500000D01*
X179920000Y-63040000D02*
X179920000Y-65200000D01*
X179920000Y-63040000D02*
X180850000Y-63040000D01*
X183080000Y-63040000D02*
X182150000Y-63040000D01*
X186880000Y-63040000D02*
X186880000Y-64500000D01*
X183720000Y-63040000D02*
X183720000Y-65200000D01*
X183720000Y-63040000D02*
X184650000Y-63040000D01*
X186880000Y-63040000D02*
X185950000Y-63040000D01*
X169150000Y-114000000D02*
X169250000Y-114000000D01*
X170750000Y-118400000D02*
X170750000Y-114000000D01*
X167650000Y-114000000D02*
X167650000Y-118400000D01*
X169150000Y-118400000D02*
X169250000Y-118400000D01*
X172300000Y-68250000D02*
X172300000Y-74000000D01*
X175900000Y-68250000D02*
X172300000Y-68250000D01*
X175900000Y-74000000D02*
X175900000Y-68250000D01*
X198400000Y-75860000D02*
X201850000Y-75860000D01*
X198400000Y-75860000D02*
X196450000Y-75860000D01*
X198400000Y-70740000D02*
X200350000Y-70740000D01*
X198400000Y-70740000D02*
X196450000Y-70740000D01*
X201125000Y-95565000D02*
X202800000Y-95565000D01*
X201125000Y-95825000D02*
X201125000Y-95565000D01*
X198400000Y-95825000D02*
X201125000Y-95825000D01*
X195675000Y-95825000D02*
X195675000Y-95565000D01*
X198400000Y-95825000D02*
X195675000Y-95825000D01*
X201125000Y-90375000D02*
X201125000Y-90635000D01*
X198400000Y-90375000D02*
X201125000Y-90375000D01*
X195675000Y-90375000D02*
X195675000Y-90635000D01*
X198400000Y-90375000D02*
X195675000Y-90375000D01*
X184328249Y-76445120D02*
X183380725Y-75497597D01*
X185000000Y-75773369D02*
X184328249Y-76445120D01*
X185671751Y-76445120D02*
X185000000Y-75773369D01*
X192226631Y-83000000D02*
X191554880Y-83671751D01*
X191554880Y-82328249D02*
X192226631Y-83000000D01*
X177773369Y-83000000D02*
X178445120Y-82328249D01*
X178445120Y-83671751D02*
X177773369Y-83000000D01*
X185000000Y-90226631D02*
X185671751Y-89554880D01*
X184328249Y-89554880D02*
X185000000Y-90226631D01*
X205310000Y-59400000D02*
X205310000Y-56950000D01*
X202090000Y-57600000D02*
X202090000Y-59400000D01*
X201660000Y-64500000D02*
X201660000Y-61050000D01*
X201660000Y-64500000D02*
X201660000Y-66450000D01*
X191540000Y-64500000D02*
X191540000Y-62550000D01*
X191540000Y-64500000D02*
X191540000Y-66450000D01*
X188200000Y-104300000D02*
G75*
G03X188200000Y-104300000I-3000000J0D01*
G01*
X187200000Y-98400000D02*
X191300000Y-98400000D01*
X191300000Y-110200000D02*
X187200000Y-110200000D01*
X183200000Y-110200000D02*
X179100000Y-110200000D01*
X183200000Y-98400000D02*
X179100000Y-98400000D01*
X179100000Y-98400000D02*
X179100000Y-110200000D01*
X177700000Y-100500000D02*
X177400000Y-100200000D01*
X177400000Y-100200000D02*
X178000000Y-100200000D01*
X178000000Y-100200000D02*
X177700000Y-100500000D01*
X191300000Y-98400000D02*
X191300000Y-100800000D01*
X191300000Y-103000000D02*
X191300000Y-105600000D01*
X191300000Y-107800000D02*
X191300000Y-110200000D01*
X185200000Y-103800000D02*
X185200000Y-104800000D01*
X184700000Y-104300000D02*
X185700000Y-104300000D01*
X201170000Y-115070000D02*
X201170000Y-117130000D01*
X196430000Y-115070000D02*
X196430000Y-117130000D01*
X196430000Y-113730000D02*
X196430000Y-114130000D01*
X201170000Y-113730000D02*
X196430000Y-113730000D01*
X201170000Y-113730000D02*
X201170000Y-114130000D01*
X196430000Y-118470000D02*
X196430000Y-118070000D01*
X201170000Y-118470000D02*
X201170000Y-118070000D01*
X201170000Y-118470000D02*
X196430000Y-118470000D01*
X190170000Y-115070000D02*
X190170000Y-117130000D01*
X185430000Y-115070000D02*
X185430000Y-117130000D01*
X185430000Y-113730000D02*
X185430000Y-114130000D01*
X190170000Y-113730000D02*
X185430000Y-113730000D01*
X190170000Y-113730000D02*
X190170000Y-114130000D01*
X185430000Y-118470000D02*
X185430000Y-118070000D01*
X190170000Y-118470000D02*
X190170000Y-118070000D01*
X190170000Y-118470000D02*
X185430000Y-118470000D01*
X179170000Y-115070000D02*
X179170000Y-117130000D01*
X174430000Y-115070000D02*
X174430000Y-117130000D01*
X174430000Y-113730000D02*
X174430000Y-114130000D01*
X179170000Y-113730000D02*
X174430000Y-113730000D01*
X179170000Y-113730000D02*
X179170000Y-114130000D01*
X174430000Y-118470000D02*
X174430000Y-118070000D01*
X179170000Y-118470000D02*
X179170000Y-118070000D01*
X179170000Y-118470000D02*
X174430000Y-118470000D01*
X199690000Y-87937221D02*
X199690000Y-88262779D01*
X200710000Y-87937221D02*
X200710000Y-88262779D01*
X189262779Y-65990000D02*
X188937221Y-65990000D01*
X189262779Y-67010000D02*
X188937221Y-67010000D01*
X187410000Y-56062779D02*
X187410000Y-55737221D01*
X186390000Y-56062779D02*
X186390000Y-55737221D01*
X184010000Y-56062779D02*
X184010000Y-55737221D01*
X182990000Y-56062779D02*
X182990000Y-55737221D01*
X185710000Y-56062779D02*
X185710000Y-55737221D01*
X184690000Y-56062779D02*
X184690000Y-55737221D01*
X181662779Y-65990000D02*
X181337221Y-65990000D01*
X181662779Y-67010000D02*
X181337221Y-67010000D01*
X185462779Y-65990000D02*
X185137221Y-65990000D01*
X185462779Y-67010000D02*
X185137221Y-67010000D01*
X180910000Y-95162779D02*
X180910000Y-94837221D01*
X179890000Y-95162779D02*
X179890000Y-94837221D01*
X184510000Y-95162779D02*
X184510000Y-94837221D01*
X183490000Y-95162779D02*
X183490000Y-94837221D01*
X201837221Y-54510000D02*
X202162779Y-54510000D01*
X201837221Y-53490000D02*
X202162779Y-53490000D01*
X171637221Y-83110000D02*
X171962779Y-83110000D01*
X171637221Y-82090000D02*
X171962779Y-82090000D01*
X207228733Y-64010000D02*
X207571267Y-64010000D01*
X207228733Y-62990000D02*
X207571267Y-62990000D01*
X168430000Y-55570000D02*
X168430000Y-54300000D01*
X169700000Y-55570000D02*
X168430000Y-55570000D01*
X180240000Y-53257071D02*
X180240000Y-52860000D01*
X179480000Y-53257071D02*
X179480000Y-52860000D01*
X180240000Y-44200000D02*
X180240000Y-50200000D01*
X179480000Y-44200000D02*
X180240000Y-44200000D01*
X179480000Y-50200000D02*
X179480000Y-44200000D01*
X178590000Y-52860000D02*
X178590000Y-50200000D01*
X177700000Y-53257071D02*
X177700000Y-52860000D01*
X176940000Y-53257071D02*
X176940000Y-52860000D01*
X177700000Y-44200000D02*
X177700000Y-50200000D01*
X176940000Y-44200000D02*
X177700000Y-44200000D01*
X176940000Y-50200000D02*
X176940000Y-44200000D01*
X176050000Y-52860000D02*
X176050000Y-50200000D01*
X175160000Y-53257071D02*
X175160000Y-52860000D01*
X174400000Y-53257071D02*
X174400000Y-52860000D01*
X175160000Y-44200000D02*
X175160000Y-50200000D01*
X174400000Y-44200000D02*
X175160000Y-44200000D01*
X174400000Y-50200000D02*
X174400000Y-44200000D01*
X173510000Y-52860000D02*
X173510000Y-50200000D01*
X172620000Y-53257071D02*
X172620000Y-52860000D01*
X171860000Y-53257071D02*
X171860000Y-52860000D01*
X172620000Y-44200000D02*
X172620000Y-50200000D01*
X171860000Y-44200000D02*
X172620000Y-44200000D01*
X171860000Y-50200000D02*
X171860000Y-44200000D01*
X170970000Y-52860000D02*
X170970000Y-50200000D01*
X170080000Y-53190000D02*
X170080000Y-52860000D01*
X169320000Y-53190000D02*
X169320000Y-52860000D01*
X169980000Y-50200000D02*
X169980000Y-44200000D01*
X169860000Y-50200000D02*
X169860000Y-44200000D01*
X169740000Y-50200000D02*
X169740000Y-44200000D01*
X169620000Y-50200000D02*
X169620000Y-44200000D01*
X169500000Y-50200000D02*
X169500000Y-44200000D01*
X169380000Y-50200000D02*
X169380000Y-44200000D01*
X170080000Y-44200000D02*
X170080000Y-50200000D01*
X169320000Y-44200000D02*
X170080000Y-44200000D01*
X169320000Y-50200000D02*
X169320000Y-44200000D01*
X168370000Y-50200000D02*
X168370000Y-52860000D01*
X181190000Y-50200000D02*
X168370000Y-50200000D01*
X181190000Y-52860000D02*
X181190000Y-50200000D01*
X168370000Y-52860000D02*
X181190000Y-52860000D01*
X199070000Y-103230000D02*
X199070000Y-101900000D01*
X200400000Y-103230000D02*
X199070000Y-103230000D01*
X201670000Y-103230000D02*
X201670000Y-100570000D01*
X201670000Y-100570000D02*
X209350000Y-100570000D01*
X201670000Y-103230000D02*
X209350000Y-103230000D01*
X209350000Y-103230000D02*
X209350000Y-100570000D01*
X165170000Y-70970000D02*
X166500000Y-70970000D01*
X165170000Y-72300000D02*
X165170000Y-70970000D01*
X165170000Y-73570000D02*
X167830000Y-73570000D01*
X167830000Y-73570000D02*
X167830000Y-78710000D01*
X165170000Y-73570000D02*
X165170000Y-78710000D01*
X165170000Y-78710000D02*
X167830000Y-78710000D01*
X199070000Y-110430000D02*
X199070000Y-109100000D01*
X200400000Y-110430000D02*
X199070000Y-110430000D01*
X201670000Y-110430000D02*
X201670000Y-107770000D01*
X201670000Y-107770000D02*
X209350000Y-107770000D01*
X201670000Y-110430000D02*
X209350000Y-110430000D01*
X209350000Y-110430000D02*
X209350000Y-107770000D01*
X199070000Y-106830000D02*
X199070000Y-105500000D01*
X200400000Y-106830000D02*
X199070000Y-106830000D01*
X201670000Y-106830000D02*
X201670000Y-104170000D01*
X201670000Y-104170000D02*
X209350000Y-104170000D01*
X201670000Y-106830000D02*
X209350000Y-106830000D01*
X209350000Y-106830000D02*
X209350000Y-104170000D01*
X179770000Y-59700000D02*
X179770000Y-58370000D01*
X179770000Y-58370000D02*
X181100000Y-58370000D01*
X182370000Y-58370000D02*
X190050000Y-58370000D01*
X190050000Y-61030000D02*
X190050000Y-58370000D01*
X182370000Y-61030000D02*
X190050000Y-61030000D01*
X182370000Y-61030000D02*
X182370000Y-58370000D01*
X162950000Y-58270000D02*
X164280000Y-58270000D01*
X164280000Y-58270000D02*
X164280000Y-59600000D01*
X164280000Y-60870000D02*
X164280000Y-78710000D01*
X161620000Y-78710000D02*
X164280000Y-78710000D01*
X161620000Y-60870000D02*
X161620000Y-78710000D01*
X161620000Y-60870000D02*
X164280000Y-60870000D01*
X208530000Y-80230000D02*
X207200000Y-80230000D01*
X208530000Y-78900000D02*
X208530000Y-80230000D01*
X208530000Y-77630000D02*
X205870000Y-77630000D01*
X205870000Y-77630000D02*
X205870000Y-69950000D01*
X208530000Y-77630000D02*
X208530000Y-69950000D01*
X208530000Y-69950000D02*
X205870000Y-69950000D01*
X161570000Y-91470000D02*
X162900000Y-91470000D01*
X161570000Y-92800000D02*
X161570000Y-91470000D01*
X161570000Y-94070000D02*
X164230000Y-94070000D01*
X164230000Y-94070000D02*
X164230000Y-111910000D01*
X161570000Y-94070000D02*
X161570000Y-111910000D01*
X161570000Y-111910000D02*
X164230000Y-111910000D01*
X161570000Y-81220000D02*
X162900000Y-81220000D01*
X161570000Y-82550000D02*
X161570000Y-81220000D01*
X161570000Y-83820000D02*
X164230000Y-83820000D01*
X164230000Y-83820000D02*
X164230000Y-88960000D01*
X161570000Y-83820000D02*
X161570000Y-88960000D01*
X161570000Y-88960000D02*
X164230000Y-88960000D01*
X205870000Y-83870000D02*
X207200000Y-83870000D01*
X205870000Y-85200000D02*
X205870000Y-83870000D01*
X205870000Y-86470000D02*
X208530000Y-86470000D01*
X208530000Y-86470000D02*
X208530000Y-96690000D01*
X205870000Y-86470000D02*
X205870000Y-96690000D01*
X205870000Y-96690000D02*
X208530000Y-96690000D01*
D11*
X193200000Y-56400000D02*
X192200000Y-56400000D01*
X196800000Y-56400000D02*
X197800000Y-56400000D01*
X196800000Y-56825000D02*
X196800000Y-56400000D01*
X196075000Y-56825000D02*
X196800000Y-56825000D01*
X190850000Y-53250000D02*
X190850000Y-54650000D01*
X190850000Y-50700000D02*
X190850000Y-50850000D01*
X191150000Y-50700000D02*
X190850000Y-50700000D01*
X191150000Y-50250000D02*
X191150000Y-50700000D01*
X198850000Y-50700000D02*
X198850000Y-50250000D01*
X199150000Y-50700000D02*
X198850000Y-50700000D01*
X199150000Y-50850000D02*
X199150000Y-50700000D01*
X199150000Y-54650000D02*
X199150000Y-53250000D01*
D10*
X198497936Y-60010000D02*
X199702064Y-60010000D01*
X198497936Y-58190000D02*
X199702064Y-58190000D01*
D11*
X182400000Y-51700000D02*
X182400000Y-50700000D01*
X187900000Y-50700000D02*
X182400000Y-50700000D01*
X187900000Y-53700000D02*
X182500000Y-53700000D01*
D10*
X200315000Y-52960000D02*
X203000000Y-52960000D01*
X200315000Y-51040000D02*
X200315000Y-52960000D01*
X203000000Y-51040000D02*
X200315000Y-51040000D01*
X197890000Y-87937221D02*
X197890000Y-88262779D01*
X198910000Y-87937221D02*
X198910000Y-88262779D01*
X193390000Y-72337221D02*
X193390000Y-72662779D01*
X194410000Y-72337221D02*
X194410000Y-72662779D01*
X171962779Y-74890000D02*
X171637221Y-74890000D01*
X171962779Y-75910000D02*
X171637221Y-75910000D01*
X185290000Y-94837221D02*
X185290000Y-95162779D01*
X186310000Y-94837221D02*
X186310000Y-95162779D01*
X171962779Y-85490000D02*
X171637221Y-85490000D01*
X171962779Y-86510000D02*
X171637221Y-86510000D01*
X196090000Y-87937221D02*
X196090000Y-88262779D01*
X197110000Y-87937221D02*
X197110000Y-88262779D01*
X191690000Y-72337221D02*
X191690000Y-72662779D01*
X192710000Y-72337221D02*
X192710000Y-72662779D01*
X178090000Y-94837221D02*
X178090000Y-95162779D01*
X179110000Y-94837221D02*
X179110000Y-95162779D01*
X182710000Y-95162779D02*
X182710000Y-94837221D01*
X181690000Y-95162779D02*
X181690000Y-94837221D01*
X207562779Y-64890000D02*
X207237221Y-64890000D01*
X207562779Y-65910000D02*
X207237221Y-65910000D01*
X171510000Y-73062779D02*
X171510000Y-72737221D01*
X170490000Y-73062779D02*
X170490000Y-72737221D01*
X171962779Y-83790000D02*
X171637221Y-83790000D01*
X171962779Y-84810000D02*
X171637221Y-84810000D01*
X207141422Y-62110000D02*
X207658578Y-62110000D01*
X207141422Y-60690000D02*
X207658578Y-60690000D01*
X170490000Y-69537221D02*
X170490000Y-69862779D01*
X171510000Y-69537221D02*
X171510000Y-69862779D01*
X202290000Y-62137221D02*
X202290000Y-62462779D01*
X203310000Y-62137221D02*
X203310000Y-62462779D01*
X207237221Y-57910000D02*
X207562779Y-57910000D01*
X207237221Y-56890000D02*
X207562779Y-56890000D01*
X191710000Y-95162779D02*
X191710000Y-94837221D01*
X190690000Y-95162779D02*
X190690000Y-94837221D01*
X189910000Y-95162779D02*
X189910000Y-94837221D01*
X188890000Y-95162779D02*
X188890000Y-94837221D01*
X188110000Y-95162779D02*
X188110000Y-94837221D01*
X187090000Y-95162779D02*
X187090000Y-94837221D01*
X203310000Y-66262779D02*
X203310000Y-65937221D01*
X202290000Y-66262779D02*
X202290000Y-65937221D01*
D11*
X167252380Y-117652380D02*
X166776190Y-117985714D01*
X167252380Y-118223809D02*
X166252380Y-118223809D01*
X166252380Y-117842857D01*
X166300000Y-117747619D01*
X166347619Y-117700000D01*
X166442857Y-117652380D01*
X166585714Y-117652380D01*
X166680952Y-117700000D01*
X166728571Y-117747619D01*
X166776190Y-117842857D01*
X166776190Y-118223809D01*
X166728571Y-117223809D02*
X166728571Y-116890476D01*
X167252380Y-116747619D02*
X167252380Y-117223809D01*
X166252380Y-117223809D01*
X166252380Y-116747619D01*
X167204761Y-116366666D02*
X167252380Y-116223809D01*
X167252380Y-115985714D01*
X167204761Y-115890476D01*
X167157142Y-115842857D01*
X167061904Y-115795238D01*
X166966666Y-115795238D01*
X166871428Y-115842857D01*
X166823809Y-115890476D01*
X166776190Y-115985714D01*
X166728571Y-116176190D01*
X166680952Y-116271428D01*
X166633333Y-116319047D01*
X166538095Y-116366666D01*
X166442857Y-116366666D01*
X166347619Y-116319047D01*
X166300000Y-116271428D01*
X166252380Y-116176190D01*
X166252380Y-115938095D01*
X166300000Y-115795238D01*
X166728571Y-115366666D02*
X166728571Y-115033333D01*
X167252380Y-114890476D02*
X167252380Y-115366666D01*
X166252380Y-115366666D01*
X166252380Y-114890476D01*
X166252380Y-114604761D02*
X166252380Y-114033333D01*
X167252380Y-114319047D02*
X166252380Y-114319047D01*
X176880952Y-72166666D02*
X176833333Y-72261904D01*
X176785714Y-72309523D01*
X176690476Y-72357142D01*
X176642857Y-72357142D01*
X176547619Y-72309523D01*
X176500000Y-72261904D01*
X176452380Y-72166666D01*
X176452380Y-71976190D01*
X176500000Y-71880952D01*
X176547619Y-71833333D01*
X176642857Y-71785714D01*
X176690476Y-71785714D01*
X176785714Y-71833333D01*
X176833333Y-71880952D01*
X176880952Y-71976190D01*
X176880952Y-72166666D01*
X176928571Y-72261904D01*
X176976190Y-72309523D01*
X177071428Y-72357142D01*
X177261904Y-72357142D01*
X177357142Y-72309523D01*
X177404761Y-72261904D01*
X177452380Y-72166666D01*
X177452380Y-71976190D01*
X177404761Y-71880952D01*
X177357142Y-71833333D01*
X177261904Y-71785714D01*
X177071428Y-71785714D01*
X176976190Y-71833333D01*
X176928571Y-71880952D01*
X176880952Y-71976190D01*
X177452380Y-71357142D02*
X176452380Y-71357142D01*
X177166666Y-71023809D01*
X176452380Y-70690476D01*
X177452380Y-70690476D01*
X195638095Y-76928571D02*
X195971428Y-76928571D01*
X196114285Y-77452380D02*
X195638095Y-77452380D01*
X195638095Y-76452380D01*
X196114285Y-76452380D01*
X196542857Y-76928571D02*
X196876190Y-76928571D01*
X197019047Y-77452380D02*
X196542857Y-77452380D01*
X196542857Y-76452380D01*
X197019047Y-76452380D01*
X197447619Y-77452380D02*
X197447619Y-76452380D01*
X197828571Y-76452380D01*
X197923809Y-76500000D01*
X197971428Y-76547619D01*
X198019047Y-76642857D01*
X198019047Y-76785714D01*
X197971428Y-76880952D01*
X197923809Y-76928571D01*
X197828571Y-76976190D01*
X197447619Y-76976190D01*
X199019047Y-77452380D02*
X198685714Y-76976190D01*
X198447619Y-77452380D02*
X198447619Y-76452380D01*
X198828571Y-76452380D01*
X198923809Y-76500000D01*
X198971428Y-76547619D01*
X199019047Y-76642857D01*
X199019047Y-76785714D01*
X198971428Y-76880952D01*
X198923809Y-76928571D01*
X198828571Y-76976190D01*
X198447619Y-76976190D01*
X199638095Y-76452380D02*
X199828571Y-76452380D01*
X199923809Y-76500000D01*
X200019047Y-76595238D01*
X200066666Y-76785714D01*
X200066666Y-77119047D01*
X200019047Y-77309523D01*
X199923809Y-77404761D01*
X199828571Y-77452380D01*
X199638095Y-77452380D01*
X199542857Y-77404761D01*
X199447619Y-77309523D01*
X199400000Y-77119047D01*
X199400000Y-76785714D01*
X199447619Y-76595238D01*
X199542857Y-76500000D01*
X199638095Y-76452380D01*
X200495238Y-77452380D02*
X200495238Y-76452380D01*
X200828571Y-77166666D01*
X201161904Y-76452380D01*
X201161904Y-77452380D01*
X196709523Y-96928571D02*
X196376190Y-96928571D01*
X196376190Y-97452380D02*
X196376190Y-96452380D01*
X196852380Y-96452380D01*
X197709523Y-97452380D02*
X197233333Y-97452380D01*
X197233333Y-96452380D01*
X197995238Y-97166666D02*
X198471428Y-97166666D01*
X197900000Y-97452380D02*
X198233333Y-96452380D01*
X198566666Y-97452380D01*
X198852380Y-97404761D02*
X198995238Y-97452380D01*
X199233333Y-97452380D01*
X199328571Y-97404761D01*
X199376190Y-97357142D01*
X199423809Y-97261904D01*
X199423809Y-97166666D01*
X199376190Y-97071428D01*
X199328571Y-97023809D01*
X199233333Y-96976190D01*
X199042857Y-96928571D01*
X198947619Y-96880952D01*
X198900000Y-96833333D01*
X198852380Y-96738095D01*
X198852380Y-96642857D01*
X198900000Y-96547619D01*
X198947619Y-96500000D01*
X199042857Y-96452380D01*
X199280952Y-96452380D01*
X199423809Y-96500000D01*
X199852380Y-97452380D02*
X199852380Y-96452380D01*
X199852380Y-96928571D02*
X200423809Y-96928571D01*
X200423809Y-97452380D02*
X200423809Y-96452380D01*
X202885714Y-56252380D02*
X202409523Y-56252380D01*
X202409523Y-55252380D01*
X203219047Y-56252380D02*
X203219047Y-55252380D01*
X203457142Y-55252380D01*
X203600000Y-55300000D01*
X203695238Y-55395238D01*
X203742857Y-55490476D01*
X203790476Y-55680952D01*
X203790476Y-55823809D01*
X203742857Y-56014285D01*
X203695238Y-56109523D01*
X203600000Y-56204761D01*
X203457142Y-56252380D01*
X203219047Y-56252380D01*
X204409523Y-55252380D02*
X204600000Y-55252380D01*
X204695238Y-55300000D01*
X204790476Y-55395238D01*
X204838095Y-55585714D01*
X204838095Y-55919047D01*
X204790476Y-56109523D01*
X204695238Y-56204761D01*
X204600000Y-56252380D01*
X204409523Y-56252380D01*
X204314285Y-56204761D01*
X204219047Y-56109523D01*
X204171428Y-55919047D01*
X204171428Y-55585714D01*
X204219047Y-55395238D01*
X204314285Y-55300000D01*
X204409523Y-55252380D01*
X195452380Y-68952380D02*
X195452380Y-69761904D01*
X195500000Y-69857142D01*
X195547619Y-69904761D01*
X195642857Y-69952380D01*
X195833333Y-69952380D01*
X195928571Y-69904761D01*
X195976190Y-69857142D01*
X196023809Y-69761904D01*
X196023809Y-68952380D01*
X196452380Y-69904761D02*
X196595238Y-69952380D01*
X196833333Y-69952380D01*
X196928571Y-69904761D01*
X196976190Y-69857142D01*
X197023809Y-69761904D01*
X197023809Y-69666666D01*
X196976190Y-69571428D01*
X196928571Y-69523809D01*
X196833333Y-69476190D01*
X196642857Y-69428571D01*
X196547619Y-69380952D01*
X196500000Y-69333333D01*
X196452380Y-69238095D01*
X196452380Y-69142857D01*
X196500000Y-69047619D01*
X196547619Y-69000000D01*
X196642857Y-68952380D01*
X196880952Y-68952380D01*
X197023809Y-69000000D01*
X197785714Y-69428571D02*
X197928571Y-69476190D01*
X197976190Y-69523809D01*
X198023809Y-69619047D01*
X198023809Y-69761904D01*
X197976190Y-69857142D01*
X197928571Y-69904761D01*
X197833333Y-69952380D01*
X197452380Y-69952380D01*
X197452380Y-68952380D01*
X197785714Y-68952380D01*
X197880952Y-69000000D01*
X197928571Y-69047619D01*
X197976190Y-69142857D01*
X197976190Y-69238095D01*
X197928571Y-69333333D01*
X197880952Y-69380952D01*
X197785714Y-69428571D01*
X197452380Y-69428571D01*
X198452380Y-69571428D02*
X199214285Y-69571428D01*
X199547619Y-68952380D02*
X200119047Y-68952380D01*
X199833333Y-69952380D02*
X199833333Y-68952380D01*
X200309523Y-68952380D02*
X200880952Y-68952380D01*
X200595238Y-69952380D02*
X200595238Y-68952380D01*
X201690476Y-69952380D02*
X201214285Y-69952380D01*
X201214285Y-68952380D01*
X172761904Y-108928571D02*
X173095238Y-108928571D01*
X173238095Y-109452380D02*
X172761904Y-109452380D01*
X172761904Y-108452380D01*
X173238095Y-108452380D01*
X173666666Y-108785714D02*
X173666666Y-109452380D01*
X173666666Y-108880952D02*
X173714285Y-108833333D01*
X173809523Y-108785714D01*
X173952380Y-108785714D01*
X174047619Y-108833333D01*
X174095238Y-108928571D01*
X174095238Y-109452380D01*
X175000000Y-109404761D02*
X174904761Y-109452380D01*
X174714285Y-109452380D01*
X174619047Y-109404761D01*
X174571428Y-109357142D01*
X174523809Y-109261904D01*
X174523809Y-108976190D01*
X174571428Y-108880952D01*
X174619047Y-108833333D01*
X174714285Y-108785714D01*
X174904761Y-108785714D01*
X175000000Y-108833333D01*
X175571428Y-109452380D02*
X175476190Y-109404761D01*
X175428571Y-109357142D01*
X175380952Y-109261904D01*
X175380952Y-108976190D01*
X175428571Y-108880952D01*
X175476190Y-108833333D01*
X175571428Y-108785714D01*
X175714285Y-108785714D01*
X175809523Y-108833333D01*
X175857142Y-108880952D01*
X175904761Y-108976190D01*
X175904761Y-109261904D01*
X175857142Y-109357142D01*
X175809523Y-109404761D01*
X175714285Y-109452380D01*
X175571428Y-109452380D01*
X176761904Y-109452380D02*
X176761904Y-108452380D01*
X176761904Y-109404761D02*
X176666666Y-109452380D01*
X176476190Y-109452380D01*
X176380952Y-109404761D01*
X176333333Y-109357142D01*
X176285714Y-109261904D01*
X176285714Y-108976190D01*
X176333333Y-108880952D01*
X176380952Y-108833333D01*
X176476190Y-108785714D01*
X176666666Y-108785714D01*
X176761904Y-108833333D01*
X177619047Y-109404761D02*
X177523809Y-109452380D01*
X177333333Y-109452380D01*
X177238095Y-109404761D01*
X177190476Y-109309523D01*
X177190476Y-108928571D01*
X177238095Y-108833333D01*
X177333333Y-108785714D01*
X177523809Y-108785714D01*
X177619047Y-108833333D01*
X177666666Y-108928571D01*
X177666666Y-109023809D01*
X177190476Y-109119047D01*
X178095238Y-109452380D02*
X178095238Y-108785714D01*
X178095238Y-108976190D02*
X178142857Y-108880952D01*
X178190476Y-108833333D01*
X178285714Y-108785714D01*
X178380952Y-108785714D01*
X197466666Y-113154761D02*
X197609523Y-113202380D01*
X197847619Y-113202380D01*
X197942857Y-113154761D01*
X197990476Y-113107142D01*
X198038095Y-113011904D01*
X198038095Y-112916666D01*
X197990476Y-112821428D01*
X197942857Y-112773809D01*
X197847619Y-112726190D01*
X197657142Y-112678571D01*
X197561904Y-112630952D01*
X197514285Y-112583333D01*
X197466666Y-112488095D01*
X197466666Y-112392857D01*
X197514285Y-112297619D01*
X197561904Y-112250000D01*
X197657142Y-112202380D01*
X197895238Y-112202380D01*
X198038095Y-112250000D01*
X198371428Y-112202380D02*
X198609523Y-113202380D01*
X198800000Y-112488095D01*
X198990476Y-113202380D01*
X199228571Y-112202380D01*
X199514285Y-112202380D02*
X200133333Y-112202380D01*
X199800000Y-112583333D01*
X199942857Y-112583333D01*
X200038095Y-112630952D01*
X200085714Y-112678571D01*
X200133333Y-112773809D01*
X200133333Y-113011904D01*
X200085714Y-113107142D01*
X200038095Y-113154761D01*
X199942857Y-113202380D01*
X199657142Y-113202380D01*
X199561904Y-113154761D01*
X199514285Y-113107142D01*
X186166666Y-113154761D02*
X186309523Y-113202380D01*
X186547619Y-113202380D01*
X186642857Y-113154761D01*
X186690476Y-113107142D01*
X186738095Y-113011904D01*
X186738095Y-112916666D01*
X186690476Y-112821428D01*
X186642857Y-112773809D01*
X186547619Y-112726190D01*
X186357142Y-112678571D01*
X186261904Y-112630952D01*
X186214285Y-112583333D01*
X186166666Y-112488095D01*
X186166666Y-112392857D01*
X186214285Y-112297619D01*
X186261904Y-112250000D01*
X186357142Y-112202380D01*
X186595238Y-112202380D01*
X186738095Y-112250000D01*
X187071428Y-112202380D02*
X187309523Y-113202380D01*
X187500000Y-112488095D01*
X187690476Y-113202380D01*
X187928571Y-112202380D01*
X188261904Y-112297619D02*
X188309523Y-112250000D01*
X188404761Y-112202380D01*
X188642857Y-112202380D01*
X188738095Y-112250000D01*
X188785714Y-112297619D01*
X188833333Y-112392857D01*
X188833333Y-112488095D01*
X188785714Y-112630952D01*
X188214285Y-113202380D01*
X188833333Y-113202380D01*
X175416666Y-113154761D02*
X175559523Y-113202380D01*
X175797619Y-113202380D01*
X175892857Y-113154761D01*
X175940476Y-113107142D01*
X175988095Y-113011904D01*
X175988095Y-112916666D01*
X175940476Y-112821428D01*
X175892857Y-112773809D01*
X175797619Y-112726190D01*
X175607142Y-112678571D01*
X175511904Y-112630952D01*
X175464285Y-112583333D01*
X175416666Y-112488095D01*
X175416666Y-112392857D01*
X175464285Y-112297619D01*
X175511904Y-112250000D01*
X175607142Y-112202380D01*
X175845238Y-112202380D01*
X175988095Y-112250000D01*
X176321428Y-112202380D02*
X176559523Y-113202380D01*
X176750000Y-112488095D01*
X176940476Y-113202380D01*
X177178571Y-112202380D01*
X178083333Y-113202380D02*
X177511904Y-113202380D01*
X177797619Y-113202380D02*
X177797619Y-112202380D01*
X177702380Y-112345238D01*
X177607142Y-112440476D01*
X177511904Y-112488095D01*
X167404761Y-56452380D02*
X167452380Y-56309523D01*
X167452380Y-56071428D01*
X167404761Y-55976190D01*
X167357142Y-55928571D01*
X167261904Y-55880952D01*
X167166666Y-55880952D01*
X167071428Y-55928571D01*
X167023809Y-55976190D01*
X166976190Y-56071428D01*
X166928571Y-56261904D01*
X166880952Y-56357142D01*
X166833333Y-56404761D01*
X166738095Y-56452380D01*
X166642857Y-56452380D01*
X166547619Y-56404761D01*
X166500000Y-56357142D01*
X166452380Y-56261904D01*
X166452380Y-56023809D01*
X166500000Y-55880952D01*
X166452380Y-55595238D02*
X166452380Y-55023809D01*
X167452380Y-55309523D02*
X166452380Y-55309523D01*
X167071428Y-54690476D02*
X167071428Y-53928571D01*
X167452380Y-52976190D02*
X167452380Y-53452380D01*
X166452380Y-53452380D01*
X167452380Y-52642857D02*
X166452380Y-52642857D01*
X167452380Y-52166666D02*
X166452380Y-52166666D01*
X167452380Y-51595238D01*
X166452380Y-51595238D01*
X167452380Y-51119047D02*
X166452380Y-51119047D01*
X167452380Y-50547619D02*
X166880952Y-50976190D01*
X166452380Y-50547619D02*
X167023809Y-51119047D01*
X195261904Y-102071428D02*
X196023809Y-102071428D01*
X195642857Y-102452380D02*
X195642857Y-101690476D01*
X196976190Y-101452380D02*
X196500000Y-101452380D01*
X196452380Y-101928571D01*
X196500000Y-101880952D01*
X196595238Y-101833333D01*
X196833333Y-101833333D01*
X196928571Y-101880952D01*
X196976190Y-101928571D01*
X197023809Y-102023809D01*
X197023809Y-102261904D01*
X196976190Y-102357142D01*
X196928571Y-102404761D01*
X196833333Y-102452380D01*
X196595238Y-102452380D01*
X196500000Y-102404761D01*
X196452380Y-102357142D01*
X197357142Y-101785714D02*
X197595238Y-102452380D01*
X197833333Y-101785714D01*
X196238095Y-108500000D02*
X196142857Y-108452380D01*
X196000000Y-108452380D01*
X195857142Y-108500000D01*
X195761904Y-108595238D01*
X195714285Y-108690476D01*
X195666666Y-108880952D01*
X195666666Y-109023809D01*
X195714285Y-109214285D01*
X195761904Y-109309523D01*
X195857142Y-109404761D01*
X196000000Y-109452380D01*
X196095238Y-109452380D01*
X196238095Y-109404761D01*
X196285714Y-109357142D01*
X196285714Y-109023809D01*
X196095238Y-109023809D01*
X196714285Y-109452380D02*
X196714285Y-108452380D01*
X197285714Y-109452380D01*
X197285714Y-108452380D01*
X197761904Y-109452380D02*
X197761904Y-108452380D01*
X198000000Y-108452380D01*
X198142857Y-108500000D01*
X198238095Y-108595238D01*
X198285714Y-108690476D01*
X198333333Y-108880952D01*
X198333333Y-109023809D01*
X198285714Y-109214285D01*
X198238095Y-109309523D01*
X198142857Y-109404761D01*
X198000000Y-109452380D01*
X197761904Y-109452380D01*
X195761904Y-104952380D02*
X196380952Y-104952380D01*
X196047619Y-105333333D01*
X196190476Y-105333333D01*
X196285714Y-105380952D01*
X196333333Y-105428571D01*
X196380952Y-105523809D01*
X196380952Y-105761904D01*
X196333333Y-105857142D01*
X196285714Y-105904761D01*
X196190476Y-105952380D01*
X195904761Y-105952380D01*
X195809523Y-105904761D01*
X195761904Y-105857142D01*
X196666666Y-104952380D02*
X197000000Y-105952380D01*
X197333333Y-104952380D01*
X197571428Y-104952380D02*
X198190476Y-104952380D01*
X197857142Y-105333333D01*
X198000000Y-105333333D01*
X198095238Y-105380952D01*
X198142857Y-105428571D01*
X198190476Y-105523809D01*
X198190476Y-105761904D01*
X198142857Y-105857142D01*
X198095238Y-105904761D01*
X198000000Y-105952380D01*
X197714285Y-105952380D01*
X197619047Y-105904761D01*
X197571428Y-105857142D01*
X173823380Y-65714380D02*
X173823380Y-65523904D01*
X173871000Y-65428666D01*
X173966238Y-65333428D01*
X174156714Y-65285809D01*
X174490047Y-65285809D01*
X174680523Y-65333428D01*
X174775761Y-65428666D01*
X174823380Y-65523904D01*
X174823380Y-65714380D01*
X174775761Y-65809619D01*
X174680523Y-65904857D01*
X174490047Y-65952476D01*
X174156714Y-65952476D01*
X173966238Y-65904857D01*
X173871000Y-65809619D01*
X173823380Y-65714380D01*
X174823380Y-64381047D02*
X174823380Y-64857238D01*
X173823380Y-64857238D01*
X174299571Y-64047714D02*
X174299571Y-63714380D01*
X174823380Y-63571523D02*
X174823380Y-64047714D01*
X173823380Y-64047714D01*
X173823380Y-63571523D01*
X174823380Y-63142952D02*
X173823380Y-63142952D01*
X173823380Y-62904857D01*
X173871000Y-62762000D01*
X173966238Y-62666761D01*
X174061476Y-62619142D01*
X174251952Y-62571523D01*
X174394809Y-62571523D01*
X174585285Y-62619142D01*
X174680523Y-62666761D01*
X174775761Y-62762000D01*
X174823380Y-62904857D01*
X174823380Y-63142952D01*
X168625780Y-65441390D02*
X167625780Y-65441390D01*
X168625780Y-64965200D02*
X167625780Y-64965200D01*
X167625780Y-64584247D01*
X167673400Y-64489009D01*
X167721019Y-64441390D01*
X167816257Y-64393771D01*
X167959114Y-64393771D01*
X168054352Y-64441390D01*
X168101971Y-64489009D01*
X168149590Y-64584247D01*
X168149590Y-64965200D01*
X168578161Y-64012819D02*
X168625780Y-63869961D01*
X168625780Y-63631866D01*
X168578161Y-63536628D01*
X168530542Y-63489009D01*
X168435304Y-63441390D01*
X168340066Y-63441390D01*
X168244828Y-63489009D01*
X168197209Y-63536628D01*
X168149590Y-63631866D01*
X168101971Y-63822342D01*
X168054352Y-63917580D01*
X168006733Y-63965200D01*
X167911495Y-64012819D01*
X167816257Y-64012819D01*
X167721019Y-63965200D01*
X167673400Y-63917580D01*
X167625780Y-63822342D01*
X167625780Y-63584247D01*
X167673400Y-63441390D01*
X204452380Y-67952380D02*
X204452380Y-68761904D01*
X204500000Y-68857142D01*
X204547619Y-68904761D01*
X204642857Y-68952380D01*
X204833333Y-68952380D01*
X204928571Y-68904761D01*
X204976190Y-68857142D01*
X205023809Y-68761904D01*
X205023809Y-67952380D01*
X205452380Y-68904761D02*
X205595238Y-68952380D01*
X205833333Y-68952380D01*
X205928571Y-68904761D01*
X205976190Y-68857142D01*
X206023809Y-68761904D01*
X206023809Y-68666666D01*
X205976190Y-68571428D01*
X205928571Y-68523809D01*
X205833333Y-68476190D01*
X205642857Y-68428571D01*
X205547619Y-68380952D01*
X205500000Y-68333333D01*
X205452380Y-68238095D01*
X205452380Y-68142857D01*
X205500000Y-68047619D01*
X205547619Y-68000000D01*
X205642857Y-67952380D01*
X205880952Y-67952380D01*
X206023809Y-68000000D01*
X206404761Y-68666666D02*
X206880952Y-68666666D01*
X206309523Y-68952380D02*
X206642857Y-67952380D01*
X206976190Y-68952380D01*
X207880952Y-68952380D02*
X207547619Y-68476190D01*
X207309523Y-68952380D02*
X207309523Y-67952380D01*
X207690476Y-67952380D01*
X207785714Y-68000000D01*
X207833333Y-68047619D01*
X207880952Y-68142857D01*
X207880952Y-68285714D01*
X207833333Y-68380952D01*
X207785714Y-68428571D01*
X207690476Y-68476190D01*
X207309523Y-68476190D01*
X208166666Y-67952380D02*
X208738095Y-67952380D01*
X208452380Y-68952380D02*
X208452380Y-67952380D01*
X209500000Y-67952380D02*
X209309523Y-67952380D01*
X209214285Y-68000000D01*
X209166666Y-68047619D01*
X209071428Y-68190476D01*
X209023809Y-68380952D01*
X209023809Y-68761904D01*
X209071428Y-68857142D01*
X209119047Y-68904761D01*
X209214285Y-68952380D01*
X209404761Y-68952380D01*
X209500000Y-68904761D01*
X209547619Y-68857142D01*
X209595238Y-68761904D01*
X209595238Y-68523809D01*
X209547619Y-68428571D01*
X209500000Y-68380952D01*
X209404761Y-68333333D01*
X209214285Y-68333333D01*
X209119047Y-68380952D01*
X209071428Y-68428571D01*
X209023809Y-68523809D01*
X161852380Y-90702380D02*
X161852380Y-89702380D01*
X163042857Y-89654761D02*
X162185714Y-90940476D01*
X163566666Y-89702380D02*
X163757142Y-89702380D01*
X163852380Y-89750000D01*
X163947619Y-89845238D01*
X163995238Y-90035714D01*
X163995238Y-90369047D01*
X163947619Y-90559523D01*
X163852380Y-90654761D01*
X163757142Y-90702380D01*
X163566666Y-90702380D01*
X163471428Y-90654761D01*
X163376190Y-90559523D01*
X163328571Y-90369047D01*
X163328571Y-90035714D01*
X163376190Y-89845238D01*
X163471428Y-89750000D01*
X163566666Y-89702380D01*
X161547619Y-80452380D02*
X161547619Y-79452380D01*
X161928571Y-79452380D01*
X162023809Y-79500000D01*
X162071428Y-79547619D01*
X162119047Y-79642857D01*
X162119047Y-79785714D01*
X162071428Y-79880952D01*
X162023809Y-79928571D01*
X161928571Y-79976190D01*
X161547619Y-79976190D01*
X162452380Y-79452380D02*
X162690476Y-80452380D01*
X162880952Y-79738095D01*
X163071428Y-80452380D01*
X163309523Y-79452380D01*
X163690476Y-80452380D02*
X163690476Y-79452380D01*
X164023809Y-80166666D01*
X164357142Y-79452380D01*
X164357142Y-80452380D01*
X164595238Y-80547619D02*
X165357142Y-80547619D01*
X165452380Y-79452380D02*
X166023809Y-79452380D01*
X165738095Y-80452380D02*
X165738095Y-79452380D01*
X166357142Y-80452380D02*
X166357142Y-79452380D01*
X166833333Y-80452380D02*
X166833333Y-79452380D01*
X167166666Y-80166666D01*
X167500000Y-79452380D01*
X167500000Y-80452380D01*
X167880952Y-79452380D02*
X168500000Y-79452380D01*
X168166666Y-79833333D01*
X168309523Y-79833333D01*
X168404761Y-79880952D01*
X168452380Y-79928571D01*
X168500000Y-80023809D01*
X168500000Y-80261904D01*
X168452380Y-80357142D01*
X168404761Y-80404761D01*
X168309523Y-80452380D01*
X168023809Y-80452380D01*
X167928571Y-80404761D01*
X167880952Y-80357142D01*
X205961904Y-82666666D02*
X206438095Y-82666666D01*
X205866666Y-82952380D02*
X206200000Y-81952380D01*
X206533333Y-82952380D01*
X206866666Y-82952380D02*
X206866666Y-81952380D01*
X207104761Y-81952380D01*
X207247619Y-82000000D01*
X207342857Y-82095238D01*
X207390476Y-82190476D01*
X207438095Y-82380952D01*
X207438095Y-82523809D01*
X207390476Y-82714285D01*
X207342857Y-82809523D01*
X207247619Y-82904761D01*
X207104761Y-82952380D01*
X206866666Y-82952380D01*
X208438095Y-82857142D02*
X208390476Y-82904761D01*
X208247619Y-82952380D01*
X208152380Y-82952380D01*
X208009523Y-82904761D01*
X207914285Y-82809523D01*
X207866666Y-82714285D01*
X207819047Y-82523809D01*
X207819047Y-82380952D01*
X207866666Y-82190476D01*
X207914285Y-82095238D01*
X208009523Y-82000000D01*
X208152380Y-81952380D01*
X208247619Y-81952380D01*
X208390476Y-82000000D01*
X208438095Y-82047619D01*
X193738095Y-52452380D02*
X193738095Y-53261904D01*
X193785714Y-53357142D01*
X193833333Y-53404761D01*
X193928571Y-53452380D01*
X194119047Y-53452380D01*
X194214285Y-53404761D01*
X194261904Y-53357142D01*
X194309523Y-53261904D01*
X194309523Y-52452380D01*
X194738095Y-53404761D02*
X194880952Y-53452380D01*
X195119047Y-53452380D01*
X195214285Y-53404761D01*
X195261904Y-53357142D01*
X195309523Y-53261904D01*
X195309523Y-53166666D01*
X195261904Y-53071428D01*
X195214285Y-53023809D01*
X195119047Y-52976190D01*
X194928571Y-52928571D01*
X194833333Y-52880952D01*
X194785714Y-52833333D01*
X194738095Y-52738095D01*
X194738095Y-52642857D01*
X194785714Y-52547619D01*
X194833333Y-52500000D01*
X194928571Y-52452380D01*
X195166666Y-52452380D01*
X195309523Y-52500000D01*
X196071428Y-52928571D02*
X196214285Y-52976190D01*
X196261904Y-53023809D01*
X196309523Y-53119047D01*
X196309523Y-53261904D01*
X196261904Y-53357142D01*
X196214285Y-53404761D01*
X196119047Y-53452380D01*
X195738095Y-53452380D01*
X195738095Y-52452380D01*
X196071428Y-52452380D01*
X196166666Y-52500000D01*
X196214285Y-52547619D01*
X196261904Y-52642857D01*
X196261904Y-52738095D01*
X196214285Y-52833333D01*
X196166666Y-52880952D01*
X196071428Y-52928571D01*
X195738095Y-52928571D01*
X194666666Y-58928571D02*
X194333333Y-58928571D01*
X194333333Y-59452380D02*
X194333333Y-58452380D01*
X194809523Y-58452380D01*
X195714285Y-59452380D02*
X195142857Y-59452380D01*
X195428571Y-59452380D02*
X195428571Y-58452380D01*
X195333333Y-58595238D01*
X195238095Y-58690476D01*
X195142857Y-58738095D01*
X189452380Y-52890476D02*
X188976190Y-53223809D01*
X189452380Y-53461904D02*
X188452380Y-53461904D01*
X188452380Y-53080952D01*
X188500000Y-52985714D01*
X188547619Y-52938095D01*
X188642857Y-52890476D01*
X188785714Y-52890476D01*
X188880952Y-52938095D01*
X188928571Y-52985714D01*
X188976190Y-53080952D01*
X188976190Y-53461904D01*
X188500000Y-51938095D02*
X188452380Y-52033333D01*
X188452380Y-52176190D01*
X188500000Y-52319047D01*
X188595238Y-52414285D01*
X188690476Y-52461904D01*
X188880952Y-52509523D01*
X189023809Y-52509523D01*
X189214285Y-52461904D01*
X189309523Y-52414285D01*
X189404761Y-52319047D01*
X189452380Y-52176190D01*
X189452380Y-52080952D01*
X189404761Y-51938095D01*
X189357142Y-51890476D01*
X189023809Y-51890476D01*
X189023809Y-52080952D01*
X188928571Y-51128571D02*
X188976190Y-50985714D01*
X189023809Y-50938095D01*
X189119047Y-50890476D01*
X189261904Y-50890476D01*
X189357142Y-50938095D01*
X189404761Y-50985714D01*
X189452380Y-51080952D01*
X189452380Y-51461904D01*
X188452380Y-51461904D01*
X188452380Y-51128571D01*
X188500000Y-51033333D01*
X188547619Y-50985714D01*
X188642857Y-50938095D01*
X188738095Y-50938095D01*
X188833333Y-50985714D01*
X188880952Y-51033333D01*
X188928571Y-51128571D01*
X188928571Y-51461904D01*
M02*
