G04 #@! TF.GenerationSoftware,KiCad,Pcbnew,(5.1.5)-2*
G04 #@! TF.CreationDate,2020-06-11T12:49:33+08:00*
G04 #@! TF.ProjectId,Bonjour STM32,426f6e6a-6f75-4722-9053-544d33322e6b,rev?*
G04 #@! TF.SameCoordinates,Original*
G04 #@! TF.FileFunction,Legend,Bot*
G04 #@! TF.FilePolarity,Positive*
%FSLAX46Y46*%
G04 Gerber Fmt 4.6, Leading zero omitted, Abs format (unit mm)*
G04 Created by KiCad (PCBNEW (5.1.5)-2) date 2020-06-11 12:49:33*
%MOMM*%
%LPD*%
G04 APERTURE LIST*
%ADD10C,0.120000*%
%ADD11C,0.150000*%
G04 APERTURE END LIST*
D10*
X200787000Y-116459000D02*
X169164000Y-116459000D01*
X180975000Y-119380000D02*
X180975000Y-113538000D01*
X190881000Y-113411000D02*
X190881000Y-119380000D01*
D11*
X179680619Y-117435380D02*
X179109190Y-117435380D01*
X179394904Y-118435380D02*
X179394904Y-117435380D01*
X178775857Y-118435380D02*
X178775857Y-117435380D01*
X178299666Y-118435380D02*
X178299666Y-117435380D01*
X177966333Y-118149666D01*
X177633000Y-117435380D01*
X177633000Y-118435380D01*
X176633000Y-118435380D02*
X177204428Y-118435380D01*
X176918714Y-118435380D02*
X176918714Y-117435380D01*
X177013952Y-117578238D01*
X177109190Y-117673476D01*
X177204428Y-117721095D01*
X176442523Y-118530619D02*
X175680619Y-118530619D01*
X174871095Y-118340142D02*
X174918714Y-118387761D01*
X175061571Y-118435380D01*
X175156809Y-118435380D01*
X175299666Y-118387761D01*
X175394904Y-118292523D01*
X175442523Y-118197285D01*
X175490142Y-118006809D01*
X175490142Y-117863952D01*
X175442523Y-117673476D01*
X175394904Y-117578238D01*
X175299666Y-117483000D01*
X175156809Y-117435380D01*
X175061571Y-117435380D01*
X174918714Y-117483000D01*
X174871095Y-117530619D01*
X174442523Y-118435380D02*
X174442523Y-117435380D01*
X174442523Y-117911571D02*
X173871095Y-117911571D01*
X173871095Y-118435380D02*
X173871095Y-117435380D01*
X172871095Y-118435380D02*
X173442523Y-118435380D01*
X173156809Y-118435380D02*
X173156809Y-117435380D01*
X173252047Y-117578238D01*
X173347285Y-117673476D01*
X173442523Y-117721095D01*
X171633000Y-118435380D02*
X171680619Y-118435380D01*
X171775857Y-118387761D01*
X171918714Y-118244904D01*
X172156809Y-117959190D01*
X172252047Y-117816333D01*
X172299666Y-117673476D01*
X172299666Y-117578238D01*
X172252047Y-117483000D01*
X172156809Y-117435380D01*
X172109190Y-117435380D01*
X172013952Y-117483000D01*
X171966333Y-117578238D01*
X171966333Y-117625857D01*
X172013952Y-117721095D01*
X172061571Y-117768714D01*
X172347285Y-117959190D01*
X172394904Y-118006809D01*
X172442523Y-118102047D01*
X172442523Y-118244904D01*
X172394904Y-118340142D01*
X172347285Y-118387761D01*
X172252047Y-118435380D01*
X172109190Y-118435380D01*
X172013952Y-118387761D01*
X171966333Y-118340142D01*
X171823476Y-118149666D01*
X171775857Y-118006809D01*
X171775857Y-117911571D01*
X171252047Y-117530619D02*
X171204428Y-117483000D01*
X171109190Y-117435380D01*
X170871095Y-117435380D01*
X170775857Y-117483000D01*
X170728238Y-117530619D01*
X170680619Y-117625857D01*
X170680619Y-117721095D01*
X170728238Y-117863952D01*
X171299666Y-118435380D01*
X170680619Y-118435380D01*
X177871095Y-114990571D02*
X177537761Y-114990571D01*
X177394904Y-115514380D02*
X177871095Y-115514380D01*
X177871095Y-114514380D01*
X177394904Y-114514380D01*
X176966333Y-114847714D02*
X176966333Y-115514380D01*
X176966333Y-114942952D02*
X176918714Y-114895333D01*
X176823476Y-114847714D01*
X176680619Y-114847714D01*
X176585380Y-114895333D01*
X176537761Y-114990571D01*
X176537761Y-115514380D01*
X175633000Y-115466761D02*
X175728238Y-115514380D01*
X175918714Y-115514380D01*
X176013952Y-115466761D01*
X176061571Y-115419142D01*
X176109190Y-115323904D01*
X176109190Y-115038190D01*
X176061571Y-114942952D01*
X176013952Y-114895333D01*
X175918714Y-114847714D01*
X175728238Y-114847714D01*
X175633000Y-114895333D01*
X175061571Y-115514380D02*
X175156809Y-115466761D01*
X175204428Y-115419142D01*
X175252047Y-115323904D01*
X175252047Y-115038190D01*
X175204428Y-114942952D01*
X175156809Y-114895333D01*
X175061571Y-114847714D01*
X174918714Y-114847714D01*
X174823476Y-114895333D01*
X174775857Y-114942952D01*
X174728238Y-115038190D01*
X174728238Y-115323904D01*
X174775857Y-115419142D01*
X174823476Y-115466761D01*
X174918714Y-115514380D01*
X175061571Y-115514380D01*
X173871095Y-115514380D02*
X173871095Y-114514380D01*
X173871095Y-115466761D02*
X173966333Y-115514380D01*
X174156809Y-115514380D01*
X174252047Y-115466761D01*
X174299666Y-115419142D01*
X174347285Y-115323904D01*
X174347285Y-115038190D01*
X174299666Y-114942952D01*
X174252047Y-114895333D01*
X174156809Y-114847714D01*
X173966333Y-114847714D01*
X173871095Y-114895333D01*
X173013952Y-115466761D02*
X173109190Y-115514380D01*
X173299666Y-115514380D01*
X173394904Y-115466761D01*
X173442523Y-115371523D01*
X173442523Y-114990571D01*
X173394904Y-114895333D01*
X173299666Y-114847714D01*
X173109190Y-114847714D01*
X173013952Y-114895333D01*
X172966333Y-114990571D01*
X172966333Y-115085809D01*
X173442523Y-115181047D01*
X172537761Y-115514380D02*
X172537761Y-114847714D01*
X172537761Y-115038190D02*
X172490142Y-114942952D01*
X172442523Y-114895333D01*
X172347285Y-114847714D01*
X172252047Y-114847714D01*
X187808952Y-118387761D02*
X187666095Y-118435380D01*
X187428000Y-118435380D01*
X187332761Y-118387761D01*
X187285142Y-118340142D01*
X187237523Y-118244904D01*
X187237523Y-118149666D01*
X187285142Y-118054428D01*
X187332761Y-118006809D01*
X187428000Y-117959190D01*
X187618476Y-117911571D01*
X187713714Y-117863952D01*
X187761333Y-117816333D01*
X187808952Y-117721095D01*
X187808952Y-117625857D01*
X187761333Y-117530619D01*
X187713714Y-117483000D01*
X187618476Y-117435380D01*
X187380380Y-117435380D01*
X187237523Y-117483000D01*
X186808952Y-118435380D02*
X186808952Y-117435380D01*
X186428000Y-117435380D01*
X186332761Y-117483000D01*
X186285142Y-117530619D01*
X186237523Y-117625857D01*
X186237523Y-117768714D01*
X186285142Y-117863952D01*
X186332761Y-117911571D01*
X186428000Y-117959190D01*
X186808952Y-117959190D01*
X185808952Y-118435380D02*
X185808952Y-117435380D01*
X185570857Y-118530619D02*
X184808952Y-118530619D01*
X184618476Y-117530619D02*
X184570857Y-117483000D01*
X184475619Y-117435380D01*
X184237523Y-117435380D01*
X184142285Y-117483000D01*
X184094666Y-117530619D01*
X184047047Y-117625857D01*
X184047047Y-117721095D01*
X184094666Y-117863952D01*
X184666095Y-118435380D01*
X184047047Y-118435380D01*
X187618476Y-114990571D02*
X187951809Y-114990571D01*
X187951809Y-115514380D02*
X187951809Y-114514380D01*
X187475619Y-114514380D01*
X186618476Y-115514380D02*
X187094666Y-115514380D01*
X187094666Y-114514380D01*
X186332761Y-115228666D02*
X185856571Y-115228666D01*
X186428000Y-115514380D02*
X186094666Y-114514380D01*
X185761333Y-115514380D01*
X185475619Y-115466761D02*
X185332761Y-115514380D01*
X185094666Y-115514380D01*
X184999428Y-115466761D01*
X184951809Y-115419142D01*
X184904190Y-115323904D01*
X184904190Y-115228666D01*
X184951809Y-115133428D01*
X184999428Y-115085809D01*
X185094666Y-115038190D01*
X185285142Y-114990571D01*
X185380380Y-114942952D01*
X185428000Y-114895333D01*
X185475619Y-114800095D01*
X185475619Y-114704857D01*
X185428000Y-114609619D01*
X185380380Y-114562000D01*
X185285142Y-114514380D01*
X185047047Y-114514380D01*
X184904190Y-114562000D01*
X184475619Y-115514380D02*
X184475619Y-114514380D01*
X184475619Y-114990571D02*
X183904190Y-114990571D01*
X183904190Y-115514380D02*
X183904190Y-114514380D01*
X197667333Y-118435380D02*
X197667333Y-117435380D01*
X197238761Y-117530619D02*
X197191142Y-117483000D01*
X197095904Y-117435380D01*
X196857809Y-117435380D01*
X196762571Y-117483000D01*
X196714952Y-117530619D01*
X196667333Y-117625857D01*
X196667333Y-117721095D01*
X196714952Y-117863952D01*
X197286380Y-118435380D01*
X196667333Y-118435380D01*
X195667333Y-118340142D02*
X195714952Y-118387761D01*
X195857809Y-118435380D01*
X195953047Y-118435380D01*
X196095904Y-118387761D01*
X196191142Y-118292523D01*
X196238761Y-118197285D01*
X196286380Y-118006809D01*
X196286380Y-117863952D01*
X196238761Y-117673476D01*
X196191142Y-117578238D01*
X196095904Y-117483000D01*
X195953047Y-117435380D01*
X195857809Y-117435380D01*
X195714952Y-117483000D01*
X195667333Y-117530619D01*
X195476857Y-118530619D02*
X194714952Y-118530619D01*
X194524476Y-117530619D02*
X194476857Y-117483000D01*
X194381619Y-117435380D01*
X194143523Y-117435380D01*
X194048285Y-117483000D01*
X194000666Y-117530619D01*
X193953047Y-117625857D01*
X193953047Y-117721095D01*
X194000666Y-117863952D01*
X194572095Y-118435380D01*
X193953047Y-118435380D01*
X198595904Y-114990571D02*
X198262571Y-114990571D01*
X198119714Y-115514380D02*
X198595904Y-115514380D01*
X198595904Y-114514380D01*
X198119714Y-114514380D01*
X197691142Y-114990571D02*
X197357809Y-114990571D01*
X197214952Y-115514380D02*
X197691142Y-115514380D01*
X197691142Y-114514380D01*
X197214952Y-114514380D01*
X196786380Y-115514380D02*
X196786380Y-114514380D01*
X196405428Y-114514380D01*
X196310190Y-114562000D01*
X196262571Y-114609619D01*
X196214952Y-114704857D01*
X196214952Y-114847714D01*
X196262571Y-114942952D01*
X196310190Y-114990571D01*
X196405428Y-115038190D01*
X196786380Y-115038190D01*
X195214952Y-115514380D02*
X195548285Y-115038190D01*
X195786380Y-115514380D02*
X195786380Y-114514380D01*
X195405428Y-114514380D01*
X195310190Y-114562000D01*
X195262571Y-114609619D01*
X195214952Y-114704857D01*
X195214952Y-114847714D01*
X195262571Y-114942952D01*
X195310190Y-114990571D01*
X195405428Y-115038190D01*
X195786380Y-115038190D01*
X194595904Y-114514380D02*
X194405428Y-114514380D01*
X194310190Y-114562000D01*
X194214952Y-114657238D01*
X194167333Y-114847714D01*
X194167333Y-115181047D01*
X194214952Y-115371523D01*
X194310190Y-115466761D01*
X194405428Y-115514380D01*
X194595904Y-115514380D01*
X194691142Y-115466761D01*
X194786380Y-115371523D01*
X194834000Y-115181047D01*
X194834000Y-114847714D01*
X194786380Y-114657238D01*
X194691142Y-114562000D01*
X194595904Y-114514380D01*
X193738761Y-115514380D02*
X193738761Y-114514380D01*
X193405428Y-115228666D01*
X193072095Y-114514380D01*
X193072095Y-115514380D01*
D10*
X169164000Y-119380000D02*
X200787000Y-119380000D01*
X169164000Y-113538000D02*
X169164000Y-119380000D01*
X200787000Y-113411000D02*
X169164000Y-113538000D01*
X200787000Y-119380000D02*
X200787000Y-113411000D01*
D11*
X199666666Y-58452380D02*
X199666666Y-59261904D01*
X199619047Y-59357142D01*
X199571428Y-59404761D01*
X199476190Y-59452380D01*
X199285714Y-59452380D01*
X199190476Y-59404761D01*
X199142857Y-59357142D01*
X199095238Y-59261904D01*
X199095238Y-58452380D01*
X198666666Y-59404761D02*
X198523809Y-59452380D01*
X198285714Y-59452380D01*
X198190476Y-59404761D01*
X198142857Y-59357142D01*
X198095238Y-59261904D01*
X198095238Y-59166666D01*
X198142857Y-59071428D01*
X198190476Y-59023809D01*
X198285714Y-58976190D01*
X198476190Y-58928571D01*
X198571428Y-58880952D01*
X198619047Y-58833333D01*
X198666666Y-58738095D01*
X198666666Y-58642857D01*
X198619047Y-58547619D01*
X198571428Y-58500000D01*
X198476190Y-58452380D01*
X198238095Y-58452380D01*
X198095238Y-58500000D01*
X197714285Y-59166666D02*
X197238095Y-59166666D01*
X197809523Y-59452380D02*
X197476190Y-58452380D01*
X197142857Y-59452380D01*
X196238095Y-59452380D02*
X196571428Y-58976190D01*
X196809523Y-59452380D02*
X196809523Y-58452380D01*
X196428571Y-58452380D01*
X196333333Y-58500000D01*
X196285714Y-58547619D01*
X196238095Y-58642857D01*
X196238095Y-58785714D01*
X196285714Y-58880952D01*
X196333333Y-58928571D01*
X196428571Y-58976190D01*
X196809523Y-58976190D01*
X195952380Y-58452380D02*
X195380952Y-58452380D01*
X195666666Y-59452380D02*
X195666666Y-58452380D01*
X194523809Y-59452380D02*
X195095238Y-59452380D01*
X194809523Y-59452380D02*
X194809523Y-58452380D01*
X194904761Y-58595238D01*
X195000000Y-58690476D01*
X195095238Y-58738095D01*
X194095238Y-59071428D02*
X193333333Y-59071428D01*
X192857142Y-58452380D02*
X192857142Y-59261904D01*
X192809523Y-59357142D01*
X192761904Y-59404761D01*
X192666666Y-59452380D01*
X192476190Y-59452380D01*
X192380952Y-59404761D01*
X192333333Y-59357142D01*
X192285714Y-59261904D01*
X192285714Y-58452380D01*
X191857142Y-59404761D02*
X191714285Y-59452380D01*
X191476190Y-59452380D01*
X191380952Y-59404761D01*
X191333333Y-59357142D01*
X191285714Y-59261904D01*
X191285714Y-59166666D01*
X191333333Y-59071428D01*
X191380952Y-59023809D01*
X191476190Y-58976190D01*
X191666666Y-58928571D01*
X191761904Y-58880952D01*
X191809523Y-58833333D01*
X191857142Y-58738095D01*
X191857142Y-58642857D01*
X191809523Y-58547619D01*
X191761904Y-58500000D01*
X191666666Y-58452380D01*
X191428571Y-58452380D01*
X191285714Y-58500000D01*
X190523809Y-58928571D02*
X190380952Y-58976190D01*
X190333333Y-59023809D01*
X190285714Y-59119047D01*
X190285714Y-59261904D01*
X190333333Y-59357142D01*
X190380952Y-59404761D01*
X190476190Y-59452380D01*
X190857142Y-59452380D01*
X190857142Y-58452380D01*
X190523809Y-58452380D01*
X190428571Y-58500000D01*
X190380952Y-58547619D01*
X190333333Y-58642857D01*
X190333333Y-58738095D01*
X190380952Y-58833333D01*
X190428571Y-58880952D01*
X190523809Y-58928571D01*
X190857142Y-58928571D01*
X176869047Y-57654761D02*
X176726190Y-57702380D01*
X176488095Y-57702380D01*
X176392857Y-57654761D01*
X176345238Y-57607142D01*
X176297619Y-57511904D01*
X176297619Y-57416666D01*
X176345238Y-57321428D01*
X176392857Y-57273809D01*
X176488095Y-57226190D01*
X176678571Y-57178571D01*
X176773809Y-57130952D01*
X176821428Y-57083333D01*
X176869047Y-56988095D01*
X176869047Y-56892857D01*
X176821428Y-56797619D01*
X176773809Y-56750000D01*
X176678571Y-56702380D01*
X176440476Y-56702380D01*
X176297619Y-56750000D01*
X175964285Y-56702380D02*
X175726190Y-57702380D01*
X175535714Y-56988095D01*
X175345238Y-57702380D01*
X175107142Y-56702380D01*
X174726190Y-57702380D02*
X174726190Y-56702380D01*
X174488095Y-56702380D01*
X174345238Y-56750000D01*
X174250000Y-56845238D01*
X174202380Y-56940476D01*
X174154761Y-57130952D01*
X174154761Y-57273809D01*
X174202380Y-57464285D01*
X174250000Y-57559523D01*
X174345238Y-57654761D01*
X174488095Y-57702380D01*
X174726190Y-57702380D01*
X173726190Y-57702380D02*
X173726190Y-56702380D01*
X173059523Y-56702380D02*
X172869047Y-56702380D01*
X172773809Y-56750000D01*
X172678571Y-56845238D01*
X172630952Y-57035714D01*
X172630952Y-57369047D01*
X172678571Y-57559523D01*
X172773809Y-57654761D01*
X172869047Y-57702380D01*
X173059523Y-57702380D01*
X173154761Y-57654761D01*
X173250000Y-57559523D01*
X173297619Y-57369047D01*
X173297619Y-57035714D01*
X173250000Y-56845238D01*
X173154761Y-56750000D01*
X173059523Y-56702380D01*
X208107142Y-99952380D02*
X208107142Y-98952380D01*
X207726190Y-98952380D01*
X207630952Y-99000000D01*
X207583333Y-99047619D01*
X207535714Y-99142857D01*
X207535714Y-99285714D01*
X207583333Y-99380952D01*
X207630952Y-99428571D01*
X207726190Y-99476190D01*
X208107142Y-99476190D01*
X206964285Y-99952380D02*
X207059523Y-99904761D01*
X207107142Y-99857142D01*
X207154761Y-99761904D01*
X207154761Y-99476190D01*
X207107142Y-99380952D01*
X207059523Y-99333333D01*
X206964285Y-99285714D01*
X206821428Y-99285714D01*
X206726190Y-99333333D01*
X206678571Y-99380952D01*
X206630952Y-99476190D01*
X206630952Y-99761904D01*
X206678571Y-99857142D01*
X206726190Y-99904761D01*
X206821428Y-99952380D01*
X206964285Y-99952380D01*
X206297619Y-99285714D02*
X206107142Y-99952380D01*
X205916666Y-99476190D01*
X205726190Y-99952380D01*
X205535714Y-99285714D01*
X204773809Y-99904761D02*
X204869047Y-99952380D01*
X205059523Y-99952380D01*
X205154761Y-99904761D01*
X205202380Y-99809523D01*
X205202380Y-99428571D01*
X205154761Y-99333333D01*
X205059523Y-99285714D01*
X204869047Y-99285714D01*
X204773809Y-99333333D01*
X204726190Y-99428571D01*
X204726190Y-99523809D01*
X205202380Y-99619047D01*
X204297619Y-99952380D02*
X204297619Y-99285714D01*
X204297619Y-99476190D02*
X204250000Y-99380952D01*
X204202380Y-99333333D01*
X204107142Y-99285714D01*
X204011904Y-99285714D01*
X202583333Y-99428571D02*
X202440476Y-99476190D01*
X202392857Y-99523809D01*
X202345238Y-99619047D01*
X202345238Y-99761904D01*
X202392857Y-99857142D01*
X202440476Y-99904761D01*
X202535714Y-99952380D01*
X202916666Y-99952380D01*
X202916666Y-98952380D01*
X202583333Y-98952380D01*
X202488095Y-99000000D01*
X202440476Y-99047619D01*
X202392857Y-99142857D01*
X202392857Y-99238095D01*
X202440476Y-99333333D01*
X202488095Y-99380952D01*
X202583333Y-99428571D01*
X202916666Y-99428571D01*
X201916666Y-98952380D02*
X201916666Y-99761904D01*
X201869047Y-99857142D01*
X201821428Y-99904761D01*
X201726190Y-99952380D01*
X201535714Y-99952380D01*
X201440476Y-99904761D01*
X201392857Y-99857142D01*
X201345238Y-99761904D01*
X201345238Y-98952380D01*
X200916666Y-99904761D02*
X200773809Y-99952380D01*
X200535714Y-99952380D01*
X200440476Y-99904761D01*
X200392857Y-99857142D01*
X200345238Y-99761904D01*
X200345238Y-99666666D01*
X200392857Y-99571428D01*
X200440476Y-99523809D01*
X200535714Y-99476190D01*
X200726190Y-99428571D01*
X200821428Y-99380952D01*
X200869047Y-99333333D01*
X200916666Y-99238095D01*
X200916666Y-99142857D01*
X200869047Y-99047619D01*
X200821428Y-99000000D01*
X200726190Y-98952380D01*
X200488095Y-98952380D01*
X200345238Y-99000000D01*
X202833333Y-96428571D02*
X202833333Y-95952380D01*
X202547619Y-96523809D02*
X203547619Y-96190476D01*
X202547619Y-95857142D01*
X202547619Y-95523809D02*
X203547619Y-95523809D01*
X203547619Y-95285714D01*
X203500000Y-95142857D01*
X203404761Y-95047619D01*
X203309523Y-95000000D01*
X203119047Y-94952380D01*
X202976190Y-94952380D01*
X202785714Y-95000000D01*
X202690476Y-95047619D01*
X202595238Y-95142857D01*
X202547619Y-95285714D01*
X202547619Y-95523809D01*
X202642857Y-93952380D02*
X202595238Y-94000000D01*
X202547619Y-94142857D01*
X202547619Y-94238095D01*
X202595238Y-94380952D01*
X202690476Y-94476190D01*
X202785714Y-94523809D01*
X202976190Y-94571428D01*
X203119047Y-94571428D01*
X203309523Y-94523809D01*
X203404761Y-94476190D01*
X203500000Y-94380952D01*
X203547619Y-94238095D01*
X203547619Y-94142857D01*
X203500000Y-94000000D01*
X203452380Y-93952380D01*
X202547619Y-93000000D02*
X202547619Y-93571428D01*
X202547619Y-93285714D02*
X203547619Y-93285714D01*
X203404761Y-93380952D01*
X203309523Y-93476190D01*
X203261904Y-93571428D01*
X202452380Y-92809523D02*
X202452380Y-92047619D01*
X203214285Y-91380952D02*
X202547619Y-91380952D01*
X203595238Y-91619047D02*
X202880952Y-91857142D01*
X202880952Y-91238095D01*
X202642857Y-90285714D02*
X202595238Y-90333333D01*
X202547619Y-90476190D01*
X202547619Y-90571428D01*
X202595238Y-90714285D01*
X202690476Y-90809523D01*
X202785714Y-90857142D01*
X202976190Y-90904761D01*
X203119047Y-90904761D01*
X203309523Y-90857142D01*
X203404761Y-90809523D01*
X203500000Y-90714285D01*
X203547619Y-90571428D01*
X203547619Y-90476190D01*
X203500000Y-90333333D01*
X203452380Y-90285714D01*
X202547619Y-89857142D02*
X203547619Y-89857142D01*
X203071428Y-89857142D02*
X203071428Y-89285714D01*
X202547619Y-89285714D02*
X203547619Y-89285714D01*
X202833333Y-88857142D02*
X202833333Y-88380952D01*
X202547619Y-88952380D02*
X203547619Y-88619047D01*
X202547619Y-88285714D01*
X202547619Y-87952380D02*
X203547619Y-87952380D01*
X202547619Y-87380952D01*
X203547619Y-87380952D01*
X202547619Y-86904761D02*
X203547619Y-86904761D01*
X202547619Y-86333333D01*
X203547619Y-86333333D01*
X203071428Y-85857142D02*
X203071428Y-85523809D01*
X202547619Y-85380952D02*
X202547619Y-85857142D01*
X203547619Y-85857142D01*
X203547619Y-85380952D01*
X202547619Y-84476190D02*
X202547619Y-84952380D01*
X203547619Y-84952380D01*
X189773809Y-62952380D02*
X189773809Y-61952380D01*
X189345238Y-62047619D02*
X189297619Y-62000000D01*
X189202380Y-61952380D01*
X188964285Y-61952380D01*
X188869047Y-62000000D01*
X188821428Y-62047619D01*
X188773809Y-62142857D01*
X188773809Y-62238095D01*
X188821428Y-62380952D01*
X189392857Y-62952380D01*
X188773809Y-62952380D01*
X187773809Y-62857142D02*
X187821428Y-62904761D01*
X187964285Y-62952380D01*
X188059523Y-62952380D01*
X188202380Y-62904761D01*
X188297619Y-62809523D01*
X188345238Y-62714285D01*
X188392857Y-62523809D01*
X188392857Y-62380952D01*
X188345238Y-62190476D01*
X188297619Y-62095238D01*
X188202380Y-62000000D01*
X188059523Y-61952380D01*
X187964285Y-61952380D01*
X187821428Y-62000000D01*
X187773809Y-62047619D01*
X186821428Y-62952380D02*
X187392857Y-62952380D01*
X187107142Y-62952380D02*
X187107142Y-61952380D01*
X187202380Y-62095238D01*
X187297619Y-62190476D01*
X187392857Y-62238095D01*
X185773809Y-62476190D02*
X185821428Y-62428571D01*
X185916666Y-62380952D01*
X186011904Y-62380952D01*
X186107142Y-62428571D01*
X186154761Y-62476190D01*
X186202380Y-62571428D01*
X186202380Y-62666666D01*
X186154761Y-62761904D01*
X186107142Y-62809523D01*
X186011904Y-62857142D01*
X185916666Y-62857142D01*
X185821428Y-62809523D01*
X185773809Y-62761904D01*
X185773809Y-62380952D02*
X185773809Y-62761904D01*
X185726190Y-62809523D01*
X185678571Y-62809523D01*
X185583333Y-62761904D01*
X185535714Y-62666666D01*
X185535714Y-62428571D01*
X185630952Y-62285714D01*
X185773809Y-62190476D01*
X185964285Y-62142857D01*
X186154761Y-62190476D01*
X186297619Y-62285714D01*
X186392857Y-62428571D01*
X186440476Y-62619047D01*
X186392857Y-62809523D01*
X186297619Y-62952380D01*
X186154761Y-63047619D01*
X185964285Y-63095238D01*
X185773809Y-63047619D01*
X185630952Y-62952380D01*
X184678571Y-62285714D02*
X184678571Y-62952380D01*
X184916666Y-61904761D02*
X185154761Y-62619047D01*
X184535714Y-62619047D01*
X183964285Y-61952380D02*
X183869047Y-61952380D01*
X183773809Y-62000000D01*
X183726190Y-62047619D01*
X183678571Y-62142857D01*
X183630952Y-62333333D01*
X183630952Y-62571428D01*
X183678571Y-62761904D01*
X183726190Y-62857142D01*
X183773809Y-62904761D01*
X183869047Y-62952380D01*
X183964285Y-62952380D01*
X184059523Y-62904761D01*
X184107142Y-62857142D01*
X184154761Y-62761904D01*
X184202380Y-62571428D01*
X184202380Y-62333333D01*
X184154761Y-62142857D01*
X184107142Y-62047619D01*
X184059523Y-62000000D01*
X183964285Y-61952380D01*
X183011904Y-61952380D02*
X182916666Y-61952380D01*
X182821428Y-62000000D01*
X182773809Y-62047619D01*
X182726190Y-62142857D01*
X182678571Y-62333333D01*
X182678571Y-62571428D01*
X182726190Y-62761904D01*
X182773809Y-62857142D01*
X182821428Y-62904761D01*
X182916666Y-62952380D01*
X183011904Y-62952380D01*
X183107142Y-62904761D01*
X183154761Y-62857142D01*
X183202380Y-62761904D01*
X183250000Y-62571428D01*
X183250000Y-62333333D01*
X183202380Y-62142857D01*
X183154761Y-62047619D01*
X183107142Y-62000000D01*
X183011904Y-61952380D01*
X182250000Y-62952380D02*
X182250000Y-61952380D01*
X181678571Y-62952380D02*
X182107142Y-62380952D01*
X181678571Y-61952380D02*
X182250000Y-62523809D01*
X181250000Y-62952380D02*
X181250000Y-61952380D01*
X181250000Y-62428571D02*
X180678571Y-62428571D01*
X180678571Y-62952380D02*
X180678571Y-61952380D01*
X180297619Y-61952380D02*
X179630952Y-61952380D01*
X180297619Y-62952380D01*
X179630952Y-62952380D01*
X165678571Y-103678571D02*
X165678571Y-103345238D01*
X166202380Y-103345238D02*
X165202380Y-103345238D01*
X165202380Y-103821428D01*
X166202380Y-104202380D02*
X165535714Y-104202380D01*
X165726190Y-104202380D02*
X165630952Y-104250000D01*
X165583333Y-104297619D01*
X165535714Y-104392857D01*
X165535714Y-104488095D01*
X166154761Y-105202380D02*
X166202380Y-105107142D01*
X166202380Y-104916666D01*
X166154761Y-104821428D01*
X166059523Y-104773809D01*
X165678571Y-104773809D01*
X165583333Y-104821428D01*
X165535714Y-104916666D01*
X165535714Y-105107142D01*
X165583333Y-105202380D01*
X165678571Y-105250000D01*
X165773809Y-105250000D01*
X165869047Y-104773809D01*
X166154761Y-106059523D02*
X166202380Y-105964285D01*
X166202380Y-105773809D01*
X166154761Y-105678571D01*
X166059523Y-105630952D01*
X165678571Y-105630952D01*
X165583333Y-105678571D01*
X165535714Y-105773809D01*
X165535714Y-105964285D01*
X165583333Y-106059523D01*
X165678571Y-106107142D01*
X165773809Y-106107142D01*
X165869047Y-105630952D01*
X165250000Y-107821428D02*
X165202380Y-107726190D01*
X165202380Y-107583333D01*
X165250000Y-107440476D01*
X165345238Y-107345238D01*
X165440476Y-107297619D01*
X165630952Y-107250000D01*
X165773809Y-107250000D01*
X165964285Y-107297619D01*
X166059523Y-107345238D01*
X166154761Y-107440476D01*
X166202380Y-107583333D01*
X166202380Y-107678571D01*
X166154761Y-107821428D01*
X166107142Y-107869047D01*
X165773809Y-107869047D01*
X165773809Y-107678571D01*
X166202380Y-108297619D02*
X165202380Y-108297619D01*
X165202380Y-108678571D01*
X165250000Y-108773809D01*
X165297619Y-108821428D01*
X165392857Y-108869047D01*
X165535714Y-108869047D01*
X165630952Y-108821428D01*
X165678571Y-108773809D01*
X165726190Y-108678571D01*
X165726190Y-108297619D01*
X166202380Y-109297619D02*
X165202380Y-109297619D01*
X165202380Y-109964285D02*
X165202380Y-110154761D01*
X165250000Y-110250000D01*
X165345238Y-110345238D01*
X165535714Y-110392857D01*
X165869047Y-110392857D01*
X166059523Y-110345238D01*
X166154761Y-110250000D01*
X166202380Y-110154761D01*
X166202380Y-109964285D01*
X166154761Y-109869047D01*
X166059523Y-109773809D01*
X165869047Y-109726190D01*
X165535714Y-109726190D01*
X165345238Y-109773809D01*
X165250000Y-109869047D01*
X165202380Y-109964285D01*
X166154761Y-110773809D02*
X166202380Y-110869047D01*
X166202380Y-111059523D01*
X166154761Y-111154761D01*
X166059523Y-111202380D01*
X166011904Y-111202380D01*
X165916666Y-111154761D01*
X165869047Y-111059523D01*
X165869047Y-110916666D01*
X165821428Y-110821428D01*
X165726190Y-110773809D01*
X165678571Y-110773809D01*
X165583333Y-110821428D01*
X165535714Y-110916666D01*
X165535714Y-111059523D01*
X165583333Y-111154761D01*
X164952380Y-81404761D02*
X164952380Y-81976190D01*
X165952380Y-81690476D02*
X164952380Y-81690476D01*
X165952380Y-82309523D02*
X164952380Y-82309523D01*
X165952380Y-82785714D02*
X164952380Y-82785714D01*
X165666666Y-83119047D01*
X164952380Y-83452380D01*
X165952380Y-83452380D01*
X164952380Y-83833333D02*
X164952380Y-84452380D01*
X165333333Y-84119047D01*
X165333333Y-84261904D01*
X165380952Y-84357142D01*
X165428571Y-84404761D01*
X165523809Y-84452380D01*
X165761904Y-84452380D01*
X165857142Y-84404761D01*
X165904761Y-84357142D01*
X165952380Y-84261904D01*
X165952380Y-83976190D01*
X165904761Y-83880952D01*
X165857142Y-83833333D01*
X166047619Y-84642857D02*
X166047619Y-85404761D01*
X165952380Y-85642857D02*
X164952380Y-85642857D01*
X164952380Y-86023809D01*
X165000000Y-86119047D01*
X165047619Y-86166666D01*
X165142857Y-86214285D01*
X165285714Y-86214285D01*
X165380952Y-86166666D01*
X165428571Y-86119047D01*
X165476190Y-86023809D01*
X165476190Y-85642857D01*
X164952380Y-86547619D02*
X165952380Y-86785714D01*
X165238095Y-86976190D01*
X165952380Y-87166666D01*
X164952380Y-87404761D01*
X165952380Y-87785714D02*
X164952380Y-87785714D01*
X165666666Y-88119047D01*
X164952380Y-88452380D01*
X165952380Y-88452380D01*
X204797619Y-77797619D02*
X203988095Y-77797619D01*
X203892857Y-77750000D01*
X203845238Y-77702380D01*
X203797619Y-77607142D01*
X203797619Y-77416666D01*
X203845238Y-77321428D01*
X203892857Y-77273809D01*
X203988095Y-77226190D01*
X204797619Y-77226190D01*
X203845238Y-76797619D02*
X203797619Y-76654761D01*
X203797619Y-76416666D01*
X203845238Y-76321428D01*
X203892857Y-76273809D01*
X203988095Y-76226190D01*
X204083333Y-76226190D01*
X204178571Y-76273809D01*
X204226190Y-76321428D01*
X204273809Y-76416666D01*
X204321428Y-76607142D01*
X204369047Y-76702380D01*
X204416666Y-76750000D01*
X204511904Y-76797619D01*
X204607142Y-76797619D01*
X204702380Y-76750000D01*
X204750000Y-76702380D01*
X204797619Y-76607142D01*
X204797619Y-76369047D01*
X204750000Y-76226190D01*
X204083333Y-75845238D02*
X204083333Y-75369047D01*
X203797619Y-75940476D02*
X204797619Y-75607142D01*
X203797619Y-75273809D01*
X203797619Y-74369047D02*
X204273809Y-74702380D01*
X203797619Y-74940476D02*
X204797619Y-74940476D01*
X204797619Y-74559523D01*
X204750000Y-74464285D01*
X204702380Y-74416666D01*
X204607142Y-74369047D01*
X204464285Y-74369047D01*
X204369047Y-74416666D01*
X204321428Y-74464285D01*
X204273809Y-74559523D01*
X204273809Y-74940476D01*
X204797619Y-74083333D02*
X204797619Y-73511904D01*
X203797619Y-73797619D02*
X204797619Y-73797619D01*
X204797619Y-72750000D02*
X204797619Y-72940476D01*
X204750000Y-73035714D01*
X204702380Y-73083333D01*
X204559523Y-73178571D01*
X204369047Y-73226190D01*
X203988095Y-73226190D01*
X203892857Y-73178571D01*
X203845238Y-73130952D01*
X203797619Y-73035714D01*
X203797619Y-72845238D01*
X203845238Y-72750000D01*
X203892857Y-72702380D01*
X203988095Y-72654761D01*
X204226190Y-72654761D01*
X204321428Y-72702380D01*
X204369047Y-72750000D01*
X204416666Y-72845238D01*
X204416666Y-73035714D01*
X204369047Y-73130952D01*
X204321428Y-73178571D01*
X204226190Y-73226190D01*
X166154761Y-59833333D02*
X166202380Y-59976190D01*
X166202380Y-60214285D01*
X166154761Y-60309523D01*
X166107142Y-60357142D01*
X166011904Y-60404761D01*
X165916666Y-60404761D01*
X165821428Y-60357142D01*
X165773809Y-60309523D01*
X165726190Y-60214285D01*
X165678571Y-60023809D01*
X165630952Y-59928571D01*
X165583333Y-59880952D01*
X165488095Y-59833333D01*
X165392857Y-59833333D01*
X165297619Y-59880952D01*
X165250000Y-59928571D01*
X165202380Y-60023809D01*
X165202380Y-60261904D01*
X165250000Y-60404761D01*
X166202380Y-60833333D02*
X165202380Y-60833333D01*
X165202380Y-61214285D01*
X165250000Y-61309523D01*
X165297619Y-61357142D01*
X165392857Y-61404761D01*
X165535714Y-61404761D01*
X165630952Y-61357142D01*
X165678571Y-61309523D01*
X165726190Y-61214285D01*
X165726190Y-60833333D01*
X166202380Y-61833333D02*
X165202380Y-61833333D01*
X166202380Y-62833333D02*
X166202380Y-62261904D01*
X166202380Y-62547619D02*
X165202380Y-62547619D01*
X165345238Y-62452380D01*
X165440476Y-62357142D01*
X165488095Y-62261904D01*
X165726190Y-63880952D02*
X165678571Y-63833333D01*
X165630952Y-63738095D01*
X165630952Y-63642857D01*
X165678571Y-63547619D01*
X165726190Y-63500000D01*
X165821428Y-63452380D01*
X165916666Y-63452380D01*
X166011904Y-63500000D01*
X166059523Y-63547619D01*
X166107142Y-63642857D01*
X166107142Y-63738095D01*
X166059523Y-63833333D01*
X166011904Y-63880952D01*
X165630952Y-63880952D02*
X166011904Y-63880952D01*
X166059523Y-63928571D01*
X166059523Y-63976190D01*
X166011904Y-64071428D01*
X165916666Y-64119047D01*
X165678571Y-64119047D01*
X165535714Y-64023809D01*
X165440476Y-63880952D01*
X165392857Y-63690476D01*
X165440476Y-63500000D01*
X165535714Y-63357142D01*
X165678571Y-63261904D01*
X165869047Y-63214285D01*
X166059523Y-63261904D01*
X166202380Y-63357142D01*
X166297619Y-63500000D01*
X166345238Y-63690476D01*
X166297619Y-63880952D01*
X166202380Y-64023809D01*
X165535714Y-64976190D02*
X166202380Y-64976190D01*
X165154761Y-64738095D02*
X165869047Y-64500000D01*
X165869047Y-65119047D01*
X165297619Y-65452380D02*
X165250000Y-65500000D01*
X165202380Y-65595238D01*
X165202380Y-65833333D01*
X165250000Y-65928571D01*
X165297619Y-65976190D01*
X165392857Y-66023809D01*
X165488095Y-66023809D01*
X165630952Y-65976190D01*
X166202380Y-65404761D01*
X166202380Y-66023809D01*
X166202380Y-66452380D02*
X165202380Y-66452380D01*
X165916666Y-66785714D01*
X165202380Y-67119047D01*
X166202380Y-67119047D01*
X166202380Y-67595238D02*
X165202380Y-67595238D01*
X165678571Y-67595238D02*
X165678571Y-68166666D01*
X166202380Y-68166666D02*
X165202380Y-68166666D01*
X165202380Y-68547619D02*
X165202380Y-69214285D01*
X166202380Y-68547619D01*
X166202380Y-69214285D01*
M02*
