M48
; DRILL file {KiCad (5.1.5)-2} date 2020/6/12 14:56:35
; FORMAT={-:-/ absolute / metric / decimal}
; #@! TF.CreationDate,2020-06-12T14:56:35+08:00
; #@! TF.GenerationSoftware,Kicad,Pcbnew,(5.1.5)-2
; #@! TF.FileFunction,Plated,1,2,PTH
FMAT,2
METRIC
T1C0.300
T2C0.400
T3C0.550
T4C0.850
T5C1.000
T6C1.500
T7C2.200
%
G90
G05
T1
X164.682Y-77.38
X164.809Y-62.14
X165.76Y-99.593
X166.649Y-101.854
X166.714Y-62.14
X166.814Y-87.63
X166.814Y-99.631
X167.793Y-62.14
X167.831Y-87.63
X168.123Y-91.821
X168.3Y-71.399
X169.291Y-71.374
X169.736Y-83.566
X169.736Y-84.519
X169.736Y-85.471
X169.736Y-86.423
X169.749Y-82.6
X170.078Y-111.963
X171.004Y-110.996
X171.018Y-85.166
X171.018Y-75.387
X171.018Y-80.112
X171.018Y-81.14
X171.018Y-87.249
X171.413Y-62.14
X171.653Y-88.062
X171.729Y-77.699
X172.588Y-81.438
X172.746Y-62.14
X174.115Y-107.885
X174.233Y-87.391
X174.269Y-76.81
X174.559Y-75.387
X174.877Y-107.123
X174.955Y-92.532
X175.033Y-87.389
X175.463Y-56.185
X175.793Y-77.47
X175.793Y-87.097
X176.559Y-86.684
X177.216Y-76.048
X177.355Y-55.88
X177.355Y-61.023
X177.355Y-61.976
X177.368Y-76.886
X177.825Y-77.572
X178.333Y-78.232
X178.574Y-59.297
X178.613Y-97.307
X178.816Y-78.918
X178.879Y-89.027
X179.872Y-88.661
X179.895Y-68.77
X179.959Y-74.625
X180.416Y-112.471
X181.127Y-92.38
X181.419Y-83.376
X181.458Y-97.307
X181.483Y-82.169
X181.635Y-100.749
X181.686Y-101.752
X181.864Y-84.328
X181.991Y-73.431
X182.055Y-82.804
X182.944Y-85.153
X182.944Y-86.931
X183.451Y-80.772
X183.451Y-82.042
X183.921Y-87.02
X183.959Y-69.659
X183.959Y-77.978
X183.998Y-78.816
X184.048Y-91.897
X184.277Y-90.297
X184.34Y-54.419
X184.887Y-92.532
X185.115Y-88.595
X185.242Y-85.293
X185.293Y-70.485
X185.8Y-94.212
X185.801Y-95.809
X185.826Y-77.673
X186.499Y-81.09
X186.639Y-97.079
X186.868Y-92.151
X186.944Y-72.009
X186.944Y-72.962
X186.944Y-73.914
X186.944Y-74.867
X187.452Y-81.915
X187.579Y-94.234
X187.604Y-91.567
X187.655Y-86.309
X187.897Y-72.581
X187.909Y-85.522
X187.935Y-79.654
X188.366Y-90.907
X188.481Y-97.079
X188.531Y-54.038
X188.595Y-89.992
X188.9Y-69.596
X189.382Y-94.209
X189.382Y-112.471
X189.547Y-70.231
X189.738Y-68.834
X190.055Y-64.897
X190.436Y-70.993
X190.69Y-68.834
X191.186Y-94.209
X191.198Y-65.849
X191.198Y-66.739
X191.402Y-97.079
X192.087Y-63.309
X192.087Y-64.897
X192.418Y-97.079
X192.837Y-91.211
X192.837Y-92.735
X192.837Y-93.726
X192.891Y-85.512
X193.167Y-63.563
X193.167Y-64.897
X193.421Y-97.079
X194.373Y-61.277
X195.199Y-112.471
X195.326Y-61.341
X195.326Y-63.563
X195.326Y-64.643
X195.707Y-58.611
X196.215Y-93.091
X196.405Y-79.4
X198.056Y-63.119
X198.438Y-68.516
X198.438Y-74.993
X199.453Y-80.645
X199.707Y-68.516
X199.707Y-74.295
X199.746Y-93.726
X199.809Y-78.156
X199.911Y-81.94
X200.152Y-53.975
X200.533Y-95.059
X200.85Y-59.309
X200.85Y-70.294
X200.977Y-78.105
X200.977Y-79.184
X200.977Y-81.343
X200.977Y-84.709
X200.977Y-85.598
X201.483Y-74.927
X202.311Y-80.645
X202.403Y-74.006
X202.882Y-87.122
X204.406Y-88.837
X204.406Y-91.44
X204.406Y-93.916
X204.406Y-101.092
X204.47Y-101.981
X204.648Y-60.579
X204.648Y-67.259
X204.654Y-62.414
X204.66Y-61.531
X205.422Y-102.044
X205.486Y-61.404
T2
X200.977Y-76.01
X202.946Y-72.898
X204.406Y-96.901
X204.648Y-63.424
X205.35Y-53.0
X205.833Y-51.833
X205.833Y-54.167
X207.0Y-51.35
X207.0Y-54.65
X208.167Y-51.833
X208.167Y-54.167
X208.65Y-53.0
X161.35Y-53.0
X161.833Y-51.833
X161.833Y-54.167
X163.0Y-51.35
X163.0Y-54.65
X164.167Y-51.833
X164.167Y-54.167
X164.65Y-53.0
X161.35Y-117.0
X161.833Y-115.833
X161.833Y-118.167
X163.0Y-115.35
X163.0Y-118.65
X164.167Y-115.833
X164.167Y-118.167
X164.65Y-117.0
X205.517Y-117.0
X206.0Y-115.833
X206.0Y-118.167
X207.167Y-115.35
X207.167Y-118.65
X208.333Y-115.833
X208.333Y-118.167
X208.817Y-117.0
T5
X207.2Y-85.2
X207.2Y-87.74
X207.2Y-90.28
X207.2Y-92.82
X207.2Y-95.36
X162.9Y-92.8
X162.9Y-95.34
X162.9Y-97.88
X162.9Y-100.42
X162.9Y-102.96
X162.9Y-105.5
X162.9Y-108.04
X162.9Y-110.58
X166.5Y-72.3
X166.5Y-74.84
X166.5Y-77.38
X162.95Y-59.6
X162.95Y-62.14
X162.95Y-64.68
X162.95Y-67.22
X162.95Y-69.76
X162.95Y-72.3
X162.95Y-74.84
X162.95Y-77.38
X162.9Y-82.55
X162.9Y-85.09
X162.9Y-87.63
X177.7Y-101.8
X177.7Y-104.3
X177.7Y-106.8
X192.2Y-101.8
X192.2Y-106.8
X207.2Y-70.358
X207.2Y-72.898
X207.2Y-75.438
X207.2Y-77.978
X181.1Y-59.7
X183.64Y-59.7
X186.18Y-59.7
X188.72Y-59.7
X207.2Y-102.044
X207.2Y-104.584
X207.2Y-107.124
X207.2Y-109.664
X169.7Y-54.3
X172.24Y-54.3
X174.78Y-54.3
X177.32Y-54.3
X179.86Y-54.3
T7
X207.0Y-53.0
X163.0Y-53.0
X163.0Y-117.0
X207.167Y-117.0
T3
G00X191.125Y-52.375
M15
G01X191.125Y-51.725
M16
G05
G00X198.875Y-52.375
M15
G01X198.875Y-51.725
M16
G05
T4
G00X191.275Y-56.125
M15
G01X191.275Y-55.575
M16
G05
G00X198.725Y-56.125
M15
G01X198.725Y-55.575
M16
G05
T6
G00X184.55Y-98.7
M15
G01X185.85Y-98.7
M16
G05
G00X184.55Y-109.9
M15
G01X185.85Y-109.9
M16
G05
T0
M30
