M48
; DRILL file {KiCad (5.1.5)-2} date 2020/5/24 12:04:21
; FORMAT={-:-/ absolute / metric / decimal}
; #@! TF.CreationDate,2020-05-24T12:04:21+08:00
; #@! TF.GenerationSoftware,Kicad,Pcbnew,(5.1.5)-2
; #@! TF.FileFunction,Plated,1,2,PTH
FMAT,2
METRIC
T1C0.300
T2C0.400
T3C0.600
T4C1.000
T5C1.500
T6C2.200
%
G90
G05
T1
X165.76Y-99.593
X166.649Y-101.854
X168.123Y-91.821
X168.3Y-71.399
X169.291Y-71.374
X170.002Y-112.649
X171.018Y-75.387
X171.018Y-80.112
X171.018Y-87.249
X171.729Y-77.699
X172.588Y-81.438
X173.406Y-87.249
X174.233Y-87.391
X174.269Y-76.81
X174.559Y-75.387
X174.955Y-92.532
X175.033Y-87.389
X175.793Y-77.47
X175.793Y-87.097
X176.559Y-86.684
X177.216Y-76.048
X177.368Y-76.886
X177.825Y-77.572
X178.333Y-78.232
X178.613Y-97.307
X178.816Y-78.918
X179.872Y-88.661
X179.934Y-74.625
X180.416Y-112.471
X180.721Y-82.768
X181.075Y-83.485
X181.127Y-92.38
X181.457Y-84.188
X181.458Y-97.307
X181.686Y-101.752
X181.864Y-84.887
X181.991Y-73.431
X183.769Y-70.155
X183.921Y-87.02
X183.998Y-78.816
X184.048Y-91.897
X184.734Y-70.155
X184.887Y-92.532
X185.115Y-88.595
X185.242Y-85.293
X185.801Y-95.809
X185.826Y-77.673
X186.868Y-92.151
X187.249Y-69.571
X187.452Y-81.915
X187.579Y-94.234
X187.604Y-91.567
X187.655Y-86.309
X187.909Y-85.522
X187.935Y-79.654
X188.366Y-90.907
X188.595Y-89.992
X188.9Y-74.5
X189.1Y-75.4
X189.357Y-57.963
X189.382Y-94.209
X189.382Y-112.471
X190.0Y-76.3
X190.729Y-74.092
X190.9Y-77.0
X190.932Y-71.73
X191.186Y-94.209
X191.44Y-77.622
X191.922Y-86.411
X192.583Y-87.478
X192.837Y-91.211
X192.837Y-92.735
X192.837Y-93.726
X193.218Y-63.932
X193.421Y-97.079
X193.535Y-84.798
X194.183Y-85.395
X195.199Y-112.471
X197.714Y-71.425
X197.815Y-75.209
X197.891Y-72.669
X198.476Y-63.678
X199.161Y-81.534
X199.695Y-63.678
X199.746Y-93.726
X200.152Y-53.975
X200.33Y-81.509
X200.584Y-91.211
X200.584Y-94.996
X201.93Y-59.919
X202.844Y-71.374
X203.53Y-69.317
X204.419Y-93.853
X204.648Y-67.259
T2
X205.35Y-53.0
X205.833Y-51.833
X205.833Y-54.167
X207.0Y-51.35
X207.0Y-54.65
X208.167Y-51.833
X208.167Y-54.167
X208.65Y-53.0
X205.517Y-117.0
X206.0Y-115.833
X206.0Y-118.167
X207.167Y-115.35
X207.167Y-118.65
X208.333Y-115.833
X208.333Y-118.167
X208.817Y-117.0
X161.35Y-53.0
X161.833Y-51.833
X161.833Y-54.167
X163.0Y-51.35
X163.0Y-54.65
X164.167Y-51.833
X164.167Y-54.167
X164.65Y-53.0
X161.35Y-117.0
X161.833Y-115.833
X161.833Y-118.167
X163.0Y-115.35
X163.0Y-118.65
X164.167Y-115.833
X164.167Y-118.167
X164.65Y-117.0
T4
X166.5Y-72.3
X166.5Y-74.84
X166.5Y-77.38
X181.102Y-59.817
X183.642Y-59.817
X186.182Y-59.817
X188.722Y-59.817
X200.4Y-101.9
X202.94Y-101.9
X205.48Y-101.9
X208.02Y-101.9
X169.7Y-54.3
X172.24Y-54.3
X174.78Y-54.3
X177.32Y-54.3
X179.86Y-54.3
X207.2Y-85.2
X207.2Y-87.74
X207.2Y-90.28
X207.2Y-92.82
X207.2Y-95.36
X162.95Y-59.6
X162.95Y-62.14
X162.95Y-64.68
X162.95Y-67.22
X162.95Y-69.76
X162.95Y-72.3
X162.95Y-74.84
X162.95Y-77.38
X162.9Y-92.8
X162.9Y-95.34
X162.9Y-97.88
X162.9Y-100.42
X162.9Y-102.96
X162.9Y-105.5
X162.9Y-108.04
X162.9Y-110.58
X200.4Y-109.1
X202.94Y-109.1
X205.48Y-109.1
X208.02Y-109.1
X200.4Y-105.5
X202.94Y-105.5
X205.48Y-105.5
X208.02Y-105.5
X207.2Y-71.28
X207.2Y-73.82
X207.2Y-76.36
X207.2Y-78.9
X177.7Y-101.8
X177.7Y-104.3
X177.7Y-106.8
X192.2Y-101.8
X192.2Y-106.8
X162.9Y-82.55
X162.9Y-85.09
X162.9Y-87.63
T6
X207.167Y-117.0
X163.0Y-53.0
X163.0Y-117.0
X207.0Y-53.0
T3
G00X190.28Y-51.95
M15
G01X190.28Y-51.35
M16
G05
G00X190.28Y-56.38
M15
G01X190.28Y-55.28
M16
G05
G00X198.92Y-51.95
M15
G01X198.92Y-51.35
M16
G05
G00X198.92Y-56.38
M15
G01X198.92Y-55.28
M16
G05
T5
G00X184.55Y-98.7
M15
G01X185.85Y-98.7
M16
G05
G00X184.55Y-109.9
M15
G01X185.85Y-109.9
M16
G05
T0
M30
